<svg width="240" height="95" viewBox="0 0 240 95" fill="none" xmlns="http://www.w3.org/2000/svg">
<path fill-rule="evenodd" clip-rule="evenodd" d="M27.3914 0.269079C24.3199 0.927498 22.487 2.65344 21.6419 5.68267C21.2137 7.21761 21.2101 12.7803 21.6362 14.6979C22.3668 17.9865 23.1124 19.3026 27.2668 24.6363C32.1839 30.9496 32.3025 31.1907 32.4162 35.1082C32.5072 38.2435 32.3438 39.1725 31.5649 39.9515C31.1627 40.3534 30.8984 40.4578 30.2864 40.4556C29.2836 40.4522 28.7281 40.1573 28.2762 39.3879C27.9355 38.8082 27.9056 38.427 27.8521 33.9936L27.7947 29.2231H24.3133H20.832L20.9062 34.9745C20.9736 40.1858 21.015 40.8298 21.3481 41.834C22.0618 43.986 23.1763 45.3558 24.9161 46.2198C26.4676 46.9902 27.3811 47.1468 30.2281 47.1308C32.4212 47.1185 33.1039 47.0496 34.0174 46.7484C36.2155 46.0237 37.7136 44.7264 38.7067 42.6875C39.6615 40.7276 39.8486 39.5267 39.8461 35.3757C39.8422 28.9493 39.4292 27.9362 33.8845 20.7521C32.4462 18.8885 30.9277 16.8961 30.51 16.3244C28.8335 14.0302 28.2287 11.8986 28.4524 9.07106C28.628 6.84845 29.055 6.21767 30.383 6.21767C31.2419 6.21767 31.857 6.4809 32.1343 6.96705C32.3003 7.25809 32.394 8.56583 32.4573 11.4786L32.5464 15.5803L35.9025 15.6289L39.2587 15.6775L39.1939 10.5463C39.1344 5.83497 39.0971 5.31886 38.7367 4.2376C37.9918 2.00215 36.0843 0.534266 33.4381 0.159759C31.6649 -0.091339 28.8335 -0.0401564 27.3914 0.269079ZM0 23.4272V46.5217H3.47756H6.95513V36.3514V26.181L9.31809 26.2308L11.681 26.2805L11.7271 36.4011L11.7732 46.5217H15.2499H18.7268L18.6815 23.4717L18.6362 0.421735L15.2032 0.373228L11.7702 0.324899V9.60215V18.8796H9.36267H6.95513V9.60607V0.332567H3.47756H0V23.4272ZM42.2658 23.4272V46.5217H50.2909H58.3161V43.0442V39.5666H53.7685H49.2209V32.879V26.1914H52.6985H56.176V22.7138V19.2362H52.6985H49.2209V13.1728V7.10936H53.5901H57.9594V3.72096V0.332567H50.1126H42.2658V23.4272ZM70.6213 0.406755C70.6213 0.573322 65.0855 45.2356 64.9884 45.853L64.8831 46.5217H68.0723H71.2615L71.6713 42.6429C71.8968 40.5095 72.1225 38.5836 72.173 38.3628C72.2632 37.9696 72.316 37.9616 74.8315 37.9616C76.2432 37.9616 77.3981 37.9926 77.3981 38.0308C77.3981 38.0688 77.5987 39.9315 77.8439 42.1702C78.0891 44.409 78.2898 46.3038 78.2898 46.3812C78.2898 46.4584 79.8145 46.5217 81.6782 46.5217C84.7837 46.5217 85.0666 46.4957 85.0666 46.2104C85.0666 45.8307 79.2089 1.29915 79.0846 0.733824L78.9963 0.332567H74.8088C72.5056 0.332567 70.6213 0.365916 70.6213 0.406755ZM86.2555 0.451518C86.1901 0.516789 86.1366 10.9094 86.1366 23.5461V46.5217H89.7033H93.27V36.2501V25.9786L94.9605 26.0403C96.53 26.0977 96.6863 26.1375 97.1451 26.5964L97.6393 27.0907L97.7401 36.1374C97.8175 43.0845 97.8968 45.3394 98.0821 45.853L98.3234 46.5217H101.86C103.805 46.5217 105.397 46.4517 105.397 46.3659C105.397 46.2801 105.261 45.8587 105.095 45.4296C104.828 44.7416 104.781 43.4672 104.694 34.6624C104.601 25.3753 104.571 24.6318 104.262 24.0513C103.839 23.2552 102.953 22.3117 102.315 21.9776L101.818 21.7176L102.782 20.8372C103.375 20.2952 103.908 19.5954 104.17 19.0169C104.592 18.0821 104.594 18.043 104.594 11.5678C104.594 4.19445 104.55 3.89502 103.241 2.40769C102.292 1.32929 101.034 0.746665 99.1598 0.517502C97.5095 0.315625 86.448 0.258914 86.2555 0.451518ZM105.932 3.72096V7.10936H108.874H111.817V26.8156V46.5217H115.205H118.594V26.8156V7.10936H121.536H124.479V3.72096V0.332567H115.205H105.932V3.72096ZM134.734 0.555488C134.692 0.678183 133.384 11.0506 131.829 23.6055L129.001 46.4326L132.116 46.4814C133.829 46.5082 135.253 46.5075 135.28 46.4798C135.328 46.4326 136.249 38.4891 136.249 38.1287C136.249 38.0326 137.341 37.9616 138.823 37.9616C141.122 37.9616 141.406 37.9949 141.484 38.2737C141.531 38.4454 141.752 40.3713 141.975 42.5538L142.379 46.5217H145.836C149.041 46.5217 149.286 46.4991 149.206 46.2097C149.159 46.0381 147.773 35.6455 146.124 23.1151L143.127 0.332567H138.969C135.803 0.332567 134.793 0.385711 134.734 0.555488ZM150.516 23.4272V46.5217H153.636H156.756L156.801 33.3694L156.847 20.2171L160.146 33.3694L163.445 46.5217H166.254H169.063V23.4272V0.332567H165.942H162.821V12.6676C162.821 19.4517 162.789 24.9691 162.749 24.9282C162.71 24.8872 161.381 19.477 159.796 12.9053C158.212 6.33359 156.874 0.816216 156.824 0.644656C156.743 0.362884 156.432 0.332567 153.625 0.332567H150.516V23.4272ZM172.035 0.451518C171.97 0.516789 171.916 10.9138 171.916 23.5559V46.5417L178.56 46.4855C185.006 46.431 185.233 46.4172 186.219 46.0201C188.224 45.2133 189.612 43.5023 190.237 41.0654C190.528 39.9308 190.553 38.5456 190.553 23.4272C190.553 10.2666 190.505 6.81171 190.311 5.96622C189.574 2.74814 187.681 0.981534 184.475 0.518037C183.11 0.320619 172.224 0.262481 172.035 0.451518ZM96.7827 7.02679C97.6707 7.60852 97.755 8.17474 97.6947 13.1484C97.6443 17.3131 97.6083 17.7717 97.2905 18.2971C96.802 19.1045 96.0378 19.4146 94.5361 19.4146H93.27V12.9679V6.52138L94.8061 6.62981C95.7585 6.69704 96.5097 6.84792 96.7827 7.02679ZM182.37 7.01769C183.453 7.72676 183.419 7.21154 183.419 23.2488C183.419 37.5157 183.41 37.8899 183.063 38.5858C182.582 39.5466 181.792 39.9226 180.254 39.9229L179.05 39.9233V23.2233V6.52334L180.483 6.62161C181.375 6.68278 182.087 6.83222 182.37 7.01769ZM139.72 22.0896C140.164 26.1602 140.573 29.8316 140.629 30.2485L140.73 31.0065H138.835H136.941L137.043 30.2485C137.1 29.8316 137.465 26.441 137.855 22.7138C138.624 15.371 138.761 14.238 138.852 14.5103C138.885 14.6084 139.275 18.0191 139.72 22.0896ZM75.7187 22.7584L76.6143 30.9173L74.8429 30.9683C73.8686 30.9965 73.0345 30.9824 72.9893 30.9373C72.8789 30.8267 74.6048 14.5995 74.7271 14.5995C74.7801 14.5995 75.2263 18.2709 75.7187 22.7584ZM45.7123 47.843C43.2079 48.3229 41.4973 49.4595 40.52 51.2931C39.5838 53.0499 39.4119 54.0549 39.4163 57.7498C39.4208 61.6741 39.7352 63.4477 40.8323 65.7391C41.7295 67.6129 42.0962 68.1456 45.45 72.4462C50.2792 78.6384 50.4698 79.0484 50.4682 83.2332C50.4671 86.153 50.3209 86.9257 49.6402 87.6064C49.2692 87.9772 49.0017 88.0736 48.3496 88.0715C47.2455 88.0679 46.7053 87.7658 46.2789 86.9136C45.9559 86.2676 45.917 85.7683 45.8603 81.5203L45.7979 76.839H42.3162H38.8348L38.9243 82.5012C39.002 87.4174 39.0596 88.3189 39.3612 89.3445C40.4587 93.0758 43.2224 94.8417 47.9725 94.8465C50.3567 94.849 51.7865 94.5836 53.2617 93.8648C55.3701 92.8372 56.7583 91.0171 57.5417 88.2525C57.8199 87.271 57.8683 86.465 57.857 82.9916C57.8453 79.3562 57.7996 78.7295 57.456 77.4797C56.6982 74.7251 56.3528 74.1914 49.6168 65.3648C48.7066 64.1721 47.6633 62.5988 47.2984 61.8687C46.6398 60.551 46.6345 60.5226 46.574 58.0068C46.5243 55.9361 46.5667 55.3596 46.8055 54.856C47.2455 53.9291 48.3444 53.5769 49.4659 54.0033C50.2963 54.319 50.374 54.7136 50.4693 59.0945L50.5584 63.1962L53.9144 63.2447L57.2703 63.2934L57.2038 58.073C57.1485 53.7412 57.085 52.6947 56.8303 51.9243C56.232 50.1136 54.64 48.6053 52.7254 48.0348C51.4162 47.6447 47.3307 47.5329 45.7123 47.843ZM76.8631 47.764C73.428 48.1246 71.1745 49.8679 70.0975 52.9982C69.41 54.9963 69.3482 56.8082 69.4161 72.9156C69.4737 86.5724 69.5147 88.4515 69.7731 89.2992C70.5138 91.7274 71.7862 93.3649 73.6359 94.2698C74.4908 94.6881 74.8447 94.7538 76.2464 94.7538C77.7073 94.7538 77.9816 94.6976 79.0151 94.1883C79.646 93.8774 80.5147 93.2773 80.9454 92.8548C81.7461 92.0693 82.9265 90.3886 82.9265 90.0339C82.9265 89.9253 82.9927 89.8773 83.0735 89.9273C83.1543 89.9772 83.4535 90.945 83.7383 92.0778L84.2564 94.1376H86.2664H88.2766V80.1382V66.1388H83.3724H78.4681V69.7055V73.2722H80.087H81.7062L81.6475 79.5586C81.5836 86.4249 81.5724 86.5004 80.4985 87.3451C79.8311 87.87 78.344 87.8625 77.6681 87.3309C76.6551 86.5342 76.6847 87.0234 76.6847 71.0523C76.6847 55.0336 76.6683 55.3059 77.6745 54.6466C78.1656 54.3249 79.3302 54.2815 79.9462 54.5621C80.8876 54.9911 81.0353 55.5925 81.1134 59.3174L81.1854 62.7504H84.5528H87.9199V59.1178C87.9199 53.3524 87.4035 51.3128 85.5038 49.5767C84.2769 48.4553 82.9916 47.96 80.7865 47.759C78.9068 47.5877 78.5402 47.588 76.8631 47.764ZM124.938 47.7678C122.841 48.1498 121.515 48.797 120.325 50.0184C118.821 51.5637 118.245 53.6533 118.241 57.5786C118.237 61.8414 118.863 64.542 120.469 67.1899C120.921 67.9359 122.733 70.3921 124.497 72.6481C128.442 77.6964 129.084 78.862 129.332 81.4197C129.521 83.3689 129.42 85.697 129.106 86.6475C128.789 87.606 128.172 88.0742 127.224 88.0742C126.11 88.0742 125.472 87.6956 125.125 86.829C124.884 86.2261 124.836 85.3315 124.836 81.4722V76.839H121.358H117.88L117.883 82.3228C117.885 86.5353 117.947 88.0663 118.15 88.9268C118.623 90.9326 119.515 92.3122 121.001 93.3371C122.473 94.3518 123.719 94.6914 126.351 94.7951C128.993 94.8991 130.704 94.6279 132.286 93.8537C134.125 92.954 135.713 90.86 136.342 88.5056C136.775 86.8806 136.96 83.7169 136.781 80.9753C136.465 76.1333 135.905 74.9609 130.723 68.2788C127.465 64.0772 126.724 63.0156 126.054 61.583C125.551 60.5085 125.474 60.1377 125.405 58.4503C125.298 55.8614 125.449 54.9765 126.108 54.3177C126.586 53.8393 126.72 53.7979 127.534 53.876C129.271 54.0431 129.453 54.5979 129.465 59.7672L129.472 63.2932L132.816 63.2447L136.16 63.1962L136.147 58.3811C136.136 54.446 136.078 53.3542 135.829 52.4069C135.257 50.226 133.777 48.6978 131.612 48.0531C130.454 47.708 126.252 47.5285 124.938 47.7678ZM145.166 47.7954C142.876 48.1737 140.854 49.6375 139.837 51.6523C138.726 53.8532 138.727 53.8348 138.788 71.7564C138.843 87.5451 138.854 88.0171 139.211 89.1661C139.7 90.7419 140.312 91.7452 141.412 92.7741C143.154 94.4039 145.184 94.9608 148.804 94.8028C152.587 94.6378 154.655 93.4974 156.006 90.8307C156.928 89.0104 156.99 88.4408 157.067 81.0745L157.14 74.1639H153.748H150.355L150.302 80.272C150.249 86.284 150.242 86.3903 149.84 87.0373C149.181 88.0963 147.617 88.3586 146.702 87.564C145.87 86.8417 145.879 87.0341 145.879 71.043C145.879 54.9235 145.874 55.027 146.744 54.5612C147.255 54.2879 148.661 54.3225 149.242 54.6227C150.179 55.107 150.242 55.47 150.303 60.6549L150.359 65.4254H153.737H157.115L157.108 60.2983C157.104 56.8043 157.025 54.7411 156.861 53.8212C156.237 50.323 154.216 48.3542 150.656 47.7763C149.321 47.5597 146.535 47.5693 145.166 47.7954ZM187.408 47.8489C183.986 48.5653 181.915 50.7032 181.046 54.4149C180.775 55.5759 180.744 57.2615 180.744 71.1322C180.744 85.1232 180.773 86.6812 181.052 87.8791C182.167 92.654 185.099 94.8447 190.374 94.8447C195.501 94.8447 198.212 92.9672 199.506 88.52C199.789 87.5451 199.822 86.0654 199.873 71.8673C199.933 55.1071 199.913 54.6625 199.003 52.3546C198.198 50.3119 196.542 48.7911 194.371 48.1002C192.877 47.6246 189.126 47.4892 187.408 47.8489ZM209.1 47.7831C205.351 48.4121 203.135 50.6595 202.327 54.6519C202.076 55.8962 202.049 57.9148 202.101 71.7564C202.156 86.2446 202.185 87.5322 202.481 88.52C203.014 90.297 203.678 91.502 204.674 92.4989C206.319 94.1444 208.432 94.8538 211.674 94.8479C217.033 94.8381 219.869 92.7015 220.901 87.8958C221.202 86.4952 221.227 85.2206 221.227 71.1322C221.227 57.1784 221.2 55.7633 220.91 54.4577C219.837 49.6287 216.952 47.5356 211.473 47.6126C210.658 47.624 209.59 47.7007 209.1 47.7831ZM0 71.1124V94.316L5.12718 94.3127C7.94721 94.311 10.9365 94.2375 11.7702 94.1494C14.6457 93.8453 16.3547 92.8279 17.454 90.7655C18.6144 88.5881 18.6 88.8013 18.6792 72.6481C18.7683 54.4543 18.6717 52.9791 17.2525 50.87C16.4794 49.7213 15.3958 48.9318 13.9473 48.4615C12.8335 48.1 12.312 48.0676 6.37553 47.9911L0 47.9089V71.1124ZM21.3043 48.1714C21.2577 48.2941 21.2401 58.7066 21.2654 71.3105L21.3112 94.2268L29.381 94.2732L37.4507 94.3195V90.751V87.1825H32.8118H28.1729L28.2196 80.5395L28.2664 73.8964L31.7885 73.8481L35.3106 73.7998V70.3259V66.8521H31.7439H28.1772V60.7887V54.7252H32.6356H37.094V51.3368V47.9484H29.2417C23.1238 47.9484 21.3704 47.9977 21.3043 48.1714ZM90.6772 48.1714C90.6307 48.2941 90.613 58.7066 90.6383 71.3105L90.6842 94.2268H93.8051H96.9259L97.0151 81.1583L97.1043 68.09L100.382 81.2073L103.659 94.3247L106.445 94.2758L109.231 94.2268L109.276 71.0835L109.322 47.9402L106.156 47.9889L102.989 48.0376L102.9 60.1861L102.811 72.3345L99.9716 60.5428C98.4097 54.0574 97.0675 48.5705 96.9887 48.3497C96.8478 47.9549 96.797 47.9484 93.8038 47.9484C91.5346 47.9484 90.7405 48.005 90.6772 48.1714ZM159.433 71.1322V94.3236L162.866 94.2753L166.299 94.2268L166.345 84.1062L166.391 73.9856H168.706H171.022L171.068 84.1062L171.114 94.2268L174.547 94.2753L177.98 94.3236V71.1322V47.9408L174.547 47.9891L171.114 48.0376L171.068 57.2665L171.022 66.4954H168.706H166.391L166.345 57.2665L166.299 48.0376L162.866 47.9891L159.433 47.9408V71.1322ZM223.895 48.1714C223.848 48.2941 223.83 58.7066 223.856 71.3105L223.902 94.2268L231.704 94.2733L239.506 94.3197V90.7512V87.1825H235.226H230.946V67.5655V47.9484H227.463C224.84 47.9484 223.959 48.0035 223.895 48.1714ZM59.9211 71.1322V94.1376H63.3987H66.8762V71.1322V48.1268H63.3987H59.9211V71.1322ZM10.3705 54.5613C10.5684 54.6673 10.8825 55.0887 11.0681 55.4976C11.3905 56.2077 11.4057 56.8974 11.4057 70.8647C11.4057 84.9722 11.3934 85.5152 11.0587 86.253C10.6199 87.2196 9.91195 87.5392 8.20919 87.5392H6.95513V70.9539V54.3686H8.48276C9.3229 54.3686 10.1723 54.4552 10.3705 54.5613ZM191.998 54.9617C192.224 55.2244 192.492 55.74 192.594 56.1077C192.858 57.0575 192.851 85.145 192.587 86.1947C192.311 87.2875 191.574 87.9463 190.603 87.9661C189.411 87.9905 188.754 87.6242 188.286 86.6732L187.878 85.845V71.2214C187.878 55.2661 187.851 55.6895 188.906 54.8014C189.405 54.3819 189.581 54.3391 190.526 54.4076C191.403 54.4711 191.659 54.5674 191.998 54.9617ZM213.021 54.7552C214.034 55.5525 214.004 55.0491 214 71.1711C213.996 85.5006 213.984 86.0502 213.649 86.788C212.849 88.5514 210.371 88.4316 209.534 86.589C209.212 85.8781 209.197 85.1905 209.197 71.1322C209.197 57.1415 209.213 56.3834 209.53 55.6852C209.98 54.694 210.495 54.3686 211.612 54.3686C212.283 54.3686 212.661 54.4724 213.021 54.7552Z" fill="white"/>
</svg>
