<svg width="86" height="117" viewBox="0 0 86 117" fill="none" xmlns="http://www.w3.org/2000/svg">
<path d="M0 5C0 2.23858 2.23858 0 5 0H42.5H62.1311C63.1835 0 64.209 0.332056 65.0617 0.948878L75.5 8.5L82.7094 13.1481C84.1373 14.0688 85 15.6515 85 17.3504V29.25V58.5V112C85 114.761 82.7614 117 80 117H5C2.23858 117 0 114.761 0 112V5Z" fill="#424242"/>
<path d="M67.0697 1.27643L83.497 14.0532C87.255 16.9761 85.1881 23 80.4273 23L64 23C61.2386 23 59 20.7614 59 18L59 5.2232C59 1.06245 63.7854 -1.27802 67.0697 1.27643Z" fill="#303030"/>
<path d="M17.9677 69.1929V73.4828H22.4483V69.1929H17.9677ZM19.9506 76.6859C17.9677 76.6859 15.8704 76.991 13.735 77.4867L14.2879 80.1941C16.0992 79.7746 18.2728 79.6602 19.207 79.6602V92.0724C19.207 93.1973 19.3596 94.7226 20.9802 95.6187C21.8191 96.0763 23.2681 96.3432 24.8888 96.3432C27.253 96.3432 29.9794 95.7712 31.6191 94.4175L30.3226 92.244C29.0071 93.2354 26.6429 93.6358 24.8697 93.6358C23.1156 93.6358 22.2767 93.5595 22.1814 91.9961C22.1814 91.9961 22.1623 81.891 22.1623 76.6859H19.9506ZM46.7959 76.4381C45.0418 76.4381 43.8597 77.7727 43.0398 79.2789C43.0398 77.9443 41.953 76.4381 40.1036 76.4381C38.7118 76.4381 37.053 77.7536 36.176 79.2789C36.1378 78.4019 35.8709 76.6478 35.5849 76.0377L32.725 76.8003C33.0491 77.7346 33.297 78.6879 33.297 80.461L33.3542 96H36.0425V82.8252C37.2246 80.2322 38.5402 79.3552 39.4554 79.3552C40.3324 79.3552 40.3705 80.0988 40.3705 80.6326V96H43.0589V82.8062C44.241 80.2322 45.2324 79.3552 46.1476 79.3552C47.2916 79.3552 47.3678 80.5945 47.3678 81.2618V81.5097V92.3202V92.3584C47.3678 95.0467 49.2745 96.1335 50.6282 96.4004L51.7912 93.8646C51.0095 93.5595 50.0371 92.8541 50.0371 91.8817V81.9101C50.0371 80.0988 49.5605 76.4381 46.7959 76.4381ZM56.9391 97.449C56.9391 96.2479 57.4729 95.1039 58.5406 94.6844C61.3243 94.6463 62.4111 94.6463 62.5827 94.6463C64.8897 94.6463 67.7306 94.856 67.7306 96.4767C67.7306 99.6416 65.0804 100.423 62.8877 100.423H60.8858C58.369 100.423 56.9391 99.8514 56.9391 97.449ZM61.4959 85.3801C59.0173 85.3801 57.2441 84.6937 57.2441 82.482C57.2441 80.728 59.208 79.3361 61.801 79.3361C64.2224 79.3361 65.843 80.0797 65.843 82.5392C65.843 84.3887 63.9555 85.3801 61.4959 85.3801ZM54.2317 82.6727C54.2317 84.0455 54.7465 85.2276 55.3947 85.9521C54.5939 86.8673 53.9838 88.0113 53.9838 89.7463C53.9838 91.2334 54.5177 92.5871 55.6044 93.3879C54.5558 94.3031 53.9457 95.6568 53.9457 97.5634C53.9457 101.548 56.7866 103.398 60.8095 103.398H62.7733C67.4255 103.398 70.743 101.396 70.743 96.4576C70.743 92.835 67.4446 91.7101 63.8601 91.7101C63.3453 91.7101 60.9049 91.7482 60.4091 91.7482C58.0068 91.7482 56.9772 90.9475 56.9772 89.4984C56.9772 88.7167 57.4348 88.0494 57.7971 87.6299C59.0364 88.1066 60.2375 88.24 61.5912 88.24C65.8811 88.24 68.8173 86.0665 68.8173 82.463C68.8173 81.5478 68.7411 80.747 68.2453 79.8509C68.5695 79.5268 69.3131 79.4315 69.9804 79.4315C70.171 79.4315 70.5905 79.4887 70.8193 79.5268V76.3999C68.722 76.3999 67.7115 76.5906 66.6438 77.582C65.4045 76.8194 63.9936 76.4381 61.801 76.4381C57.1107 76.4381 54.2317 78.6688 54.2317 82.6727Z" fill="#303030"/>
</svg>
