<svg width="813" height="521" viewBox="0 0 813 521" fill="none" xmlns="http://www.w3.org/2000/svg">
<path d="M14.4823 72.0419C14.4823 68.1415 14.2726 49.1844 14.2726 44.1095C18.8022 43.9837 22.6607 43.9837 27.1064 43.9837C28.9938 43.9837 31.1327 44.1934 32.6845 44.5709L34.1944 38.4895L33.4395 38.2798C33.3975 38.2798 30.923 37.6926 27.2323 37.6926C22.1155 37.6926 19.3055 37.8185 14.2726 37.8185V24.062C21.9477 24.02 27.3581 23.9781 31.7199 23.9781H34.6557C38.7659 24.02 39.6886 24.5653 40.779 25.1524L43.1277 19.0291C41.7017 18.3161 39.6886 17.687 36.4592 17.5612H7.72991V71.8742L14.4823 72.0419ZM57.1358 58.9565C57.1358 54.0075 62.1268 50.9039 67.8307 50.862C72.1925 50.862 75.2961 52.0782 77.6867 53.5462V57.5305C76.5963 59.2501 72.1925 65.8767 63.385 65.8767C59.4845 65.8767 57.1358 63.3603 57.1358 58.9565ZM84.2714 58.6629V44.8225C84.2714 35.3859 77.7286 28.8851 67.579 28.8851C60.0717 28.8851 54.4517 31.4016 50.4254 39.0347L55.8776 42.4739C59.2329 36.4764 61.8751 35.2182 67.6629 35.2182C74.7928 35.2182 77.6867 39.0347 77.6867 46.9615C75.4219 45.5775 72.7797 44.8225 67.4952 44.8225C62.5462 44.8225 58.3102 45.8291 54.3258 49.8973C51.8513 52.4557 50.5931 56.1884 50.5931 59.3759C50.5931 66.338 56.2132 72.2516 63.385 72.2516C71.6473 72.2516 75.9252 68.6028 79.1966 65.4573C79.9515 69.6933 82.4679 70.7418 84.6488 72.4194L88.1299 67.4285C86.9136 66.4639 85.3618 65.4992 84.8166 64.7443C84.2714 64.0313 84.2714 60.1308 84.2714 58.6629ZM103.103 33.1211C102.767 31.066 102.264 29.3884 101.844 28.3818L95.134 29.9336C96.1405 33.8761 96.4761 34.9665 96.4761 42.4319V72.0419L103.103 72V40.1252C109.226 37.1894 113.252 35.4279 115.936 35.4279C118.705 35.4279 122.773 36.8119 122.773 39.9155V63.4441C122.773 68.8545 126.631 70.9934 130.322 72.7969L133.845 68.0995C131.496 66.8413 129.399 65.9186 129.399 63.1505V38.6153C129.399 32.3662 121.892 29.1368 116.859 29.1368C112.246 29.1368 108.387 30.3531 103.103 33.1211ZM151.292 53.672C151.46 49.4779 151.502 44.1095 151.88 35.5537C153.809 35.5537 154.941 35.4279 156.87 35.4279H170.166V29.2626H169.411C169.411 29.2626 162.952 29.3045 156.87 29.3465H151.754C151.796 26.4945 151.838 22.5521 151.838 19.784L145.211 19.7421C145.211 22.6779 145.169 26.6203 145.169 29.5562H144.54C143.156 29.5562 141.269 29.682 140.262 30.0595L141.101 36.1828C142.191 35.8892 143.366 35.7214 144.54 35.7214H145.127C144.875 43.816 144.792 49.3102 144.624 53.672V55.4754C144.624 59.0823 144.792 62.2279 146.259 65.2476C149.237 71.4548 154.354 72.2516 162.071 72.2516C165.636 72.2516 168.656 71.8742 171.088 70.4482C175.786 67.7221 176.75 63.9055 177.17 62.7311L171.885 60.3825C171.592 61.1793 170.837 63.4861 168.446 64.7443C167.398 65.3315 164.713 65.7509 161.987 65.7509C161.442 65.7509 158.213 65.7089 157.458 65.625C152.802 65.1637 151.292 60.9277 151.292 55.3496V53.672ZM191.933 48.1358C196.336 50.4426 204.934 52.0782 208.164 54.385C210.47 56.1045 211.771 57.3628 211.771 60.005C211.771 64.6185 206.78 66.8413 201.621 66.8413C195.12 66.8413 192.226 63.8216 192.226 58.2016L185.642 58.1596C185.642 67.1768 191.01 72.8388 201.747 72.8388C204.137 72.8388 206.654 72.5452 209.002 72C213.49 70.8257 218.271 67.0091 218.271 60.2147C218.271 48.3036 207.535 47.4648 196.169 42.7255C194.491 41.9706 193.652 41.0059 193.652 38.9928C193.652 36.2667 197.385 35.0504 201.831 35.0504C205.438 35.0504 210.219 36.8119 212.442 39.4122L217.181 34.7568C213.742 30.5208 206.36 28.8432 201.244 28.8432C193.904 28.8432 187.11 31.9049 187.068 39.1606C187.068 43.816 189.207 46.6679 191.933 48.1358ZM236.474 49.8973C236.474 41.3415 238.78 36.015 245.91 36.015C251.656 36.015 253.669 37.9443 256.647 42.7255V61.0116C254.466 63.1505 252.033 65.7928 248.217 65.7928C241.381 65.7928 236.474 61.7665 236.474 49.8973ZM263.232 39.9994C263.232 36.5183 263.567 32.9114 263.987 30.1434L257.108 29.3045C256.899 30.6466 256.689 31.5693 256.647 33.3308C254.005 30.9822 250.607 29.5142 245.91 29.5142C234.377 29.5142 229.931 37.8604 229.931 49.1005C229.931 63.1925 235.257 72.2936 248.804 72.2936C252.998 72.2936 254.634 70.9515 256.647 69.6513V78.1233C256.647 81.9399 256.815 85.9662 257.192 89.0279L263.861 88.6504C263.567 85.7984 263.232 82.2754 263.232 78.333V39.9994ZM307.605 72.4194L311.044 67.5124C309.366 66.1703 307.311 64.1571 307.227 61.9762V29.2207H300.601V57.5725C299.007 61.2632 296.113 62.5214 294.142 63.6958C292.003 64.9959 290.283 65.3315 287.473 65.4573C285.754 65.4573 283.615 65.1218 283.028 64.7023C282.105 64.0313 281.182 62.9408 280.931 61.5149C280.847 46.1646 281.056 33.0372 280.134 29.1787L273.423 30.3111C274.556 33.7922 274.262 51.7847 274.388 63.0247C274.388 66.4639 277.198 68.8545 279.085 70.1546C281.602 71.8742 285.167 71.9161 287.767 71.9161H288.144C294.435 71.7903 298.504 68.9803 302.027 65.3734C302.949 68.9803 305.214 70.6998 307.605 72.4194ZM323.961 47.6745C324.003 41.2157 328.323 35.5537 335.453 35.5537C341.157 35.5537 345.435 39.8316 346.106 46.584C340.151 47.2551 329.372 47.6326 323.961 47.6745ZM335.411 29.1787C323.542 29.1787 317.335 38.3637 317.335 50.3587C317.335 63.4861 323.458 72.4194 335.956 72.4194C345.938 72.4194 350.72 66.8833 352.439 64.9959L347.28 60.4244C345.645 62.6892 342.122 66.0025 336.124 66.0025C327.568 66.0025 323.961 60.5083 323.961 54.0914C331.427 54.0075 340.989 53.5042 352.733 52.7074C352.775 52.3718 352.775 51.7427 352.775 50.9039C352.775 45.1161 351.223 29.1787 335.411 29.1787ZM413.337 42.2642C418.915 44.7806 425.416 45.2 430.281 47.297C433.594 48.723 436.069 51.575 436.069 56.0626C436.069 62.0601 432.881 66.0444 424.283 66.0444C414.889 66.0444 411.407 61.3471 411.407 54.6786H404.781C404.781 64.0313 409.227 72 424.032 72.3775H424.828C434.894 72.3775 442.779 67.0091 442.779 55.7271C442.779 48.4294 438.501 43.4804 433.971 41.2995C428.435 38.7831 420.634 38.2379 416.944 36.4764C414.595 35.344 412.666 33.7502 412.666 30.3111C412.666 28.8851 413.127 27.6689 414.134 26.6203C416.063 24.733 418.621 23.8523 422.899 23.8523C429.358 23.8523 432.881 25.2783 434.475 30.6047L441.143 29.3884C439.55 20.7067 432.42 17.5193 423.067 17.3934H422.689C413.84 17.3934 405.997 21.4617 405.997 30.5208C405.997 36.6441 409.52 40.4607 413.337 42.2642ZM457.248 58.9565C457.248 54.0075 462.239 50.9039 467.943 50.862C472.305 50.862 475.409 52.0782 477.799 53.5462V57.5305C476.709 59.2501 472.305 65.8767 463.498 65.8767C459.597 65.8767 457.248 63.3603 457.248 58.9565ZM484.384 58.6629V44.8225C484.384 35.3859 477.841 28.8851 467.692 28.8851C460.184 28.8851 454.564 31.4016 450.538 39.0347L455.99 42.4739C459.345 36.4764 461.988 35.2182 467.776 35.2182C474.905 35.2182 477.799 39.0347 477.799 46.9615C475.535 45.5775 472.892 44.8225 467.608 44.8225C462.659 44.8225 458.423 45.8291 454.438 49.8973C451.964 52.4557 450.706 56.1884 450.706 59.3759C450.706 66.338 456.326 72.2516 463.498 72.2516C471.76 72.2516 476.038 68.6028 479.309 65.4573C480.064 69.6933 482.581 70.7418 484.761 72.4194L488.243 67.4285C487.026 66.4639 485.474 65.4992 484.929 64.7443C484.384 64.0313 484.384 60.1308 484.384 58.6629ZM503.215 33.1211C502.88 31.066 502.376 29.3884 501.957 28.3818L495.247 29.9336C496.253 33.8761 496.589 34.9665 496.589 42.4319V72.0419L503.215 72V40.1252C509.339 37.1894 513.365 35.4279 516.049 35.4279C518.817 35.4279 522.885 36.8119 522.885 39.9155V63.4441C522.885 68.8545 526.744 70.9934 530.435 72.7969L533.958 68.0995C531.609 66.8413 529.512 65.9186 529.512 63.1505V38.6153C529.512 32.3662 522.005 29.1368 516.972 29.1368C512.358 29.1368 508.5 30.3531 503.215 33.1211ZM547.588 48.1358C551.992 50.4426 560.59 52.0782 563.819 54.385C566.126 56.1045 567.426 57.3628 567.426 60.005C567.426 64.6185 562.435 66.8413 557.277 66.8413C550.776 66.8413 547.882 63.8216 547.882 58.2016L541.297 58.1596C541.297 67.1768 546.666 72.8388 557.402 72.8388C559.793 72.8388 562.31 72.5452 564.658 72C569.146 70.8257 573.927 67.0091 573.927 60.2147C573.927 48.3036 563.19 47.4648 551.824 42.7255C550.147 41.9706 549.308 41.0059 549.308 38.9928C549.308 36.2667 553.041 35.0504 557.486 35.0504C561.093 35.0504 565.874 36.8119 568.097 39.4122L572.837 34.7568C569.397 30.5208 562.016 28.8432 556.899 28.8432C549.56 28.8432 542.765 31.9049 542.723 39.1606C542.723 43.816 544.862 46.6679 547.588 48.1358ZM627.737 17.8128L627.863 72.2097H634.489V34.2535C635.118 35.4279 634.909 35.0504 635.789 36.8958C639.48 43.9837 641.913 48.5972 642.248 49.2682L647.365 49.3941C647.826 47.8842 652.733 39.3283 655.837 33.4147L655.921 72.2097H662.505L662.463 17.8548H655.879C653.698 23.9362 648.246 33.6664 644.765 40.1671C643.968 38.5734 642.877 36.4344 640.78 32.6598C637.886 27.543 636.251 24.1039 634.237 17.8548L627.737 17.8128ZM697.148 62.9828C695.051 64.7443 693.206 65.4153 690.018 65.4573C683.014 65.4573 679.365 60.5083 679.365 52.3299C679.365 42.0964 681.966 35.1762 690.689 35.1762C698.113 35.1762 700.797 41.2995 700.881 49.0166V49.7715C700.881 55.9787 699.874 60.4244 697.148 62.9828ZM689.935 71.9581H690.018C703.523 71.9581 707.55 61.1793 707.55 49.2263C707.55 45.2 706.795 40.4607 705.075 37.1474C702.139 31.6113 697.526 28.7174 689.263 28.7174C677.017 28.7174 672.739 40.293 672.739 52.5396C672.739 64.2829 678.527 71.9161 689.935 71.9581ZM725.5 33.1211C725.165 31.066 724.661 29.3884 724.242 28.3818L717.531 29.9336C718.538 33.8761 718.873 34.9665 718.873 42.4319V72.0419L725.5 72V40.1252C731.623 37.1894 735.65 35.4279 738.334 35.4279C741.102 35.4279 745.17 36.8119 745.17 39.9155V63.4441C745.17 68.8545 749.029 70.9934 752.719 72.7969L756.242 68.0995C753.894 66.8413 751.797 65.9186 751.797 63.1505V38.6153C751.797 32.3662 744.289 29.1368 739.257 29.1368C734.643 29.1368 730.785 30.3531 725.5 33.1211ZM786.062 62.9828C783.965 64.7443 782.12 65.4153 778.932 65.4573C771.928 65.4573 768.279 60.5083 768.279 52.3299C768.279 42.0964 770.88 35.1762 779.603 35.1762C787.027 35.1762 789.711 41.2995 789.795 49.0166V49.7715C789.795 55.9787 788.788 60.4244 786.062 62.9828ZM778.848 71.9581H778.932C792.437 71.9581 796.463 61.1793 796.463 49.2263C796.463 45.2 795.709 40.4607 793.989 37.1474C791.053 31.6113 786.44 28.7174 778.177 28.7174C765.931 28.7174 761.653 40.293 761.653 52.5396C761.653 64.2829 767.441 71.9161 778.848 71.9581Z" fill="white"/>
<path d="M21.6971 202.309C20.5748 200.569 16.0997 198.704 14.0937 197.287C16.3242 195.561 19.4105 193.204 21.6691 192.012L19.8454 189.108C19.3544 189.262 19.0598 189.459 18.6389 189.697C16.7731 190.792 12.3962 193.962 10.1937 195.772L10.2218 198.942C10.5865 199.195 16.2961 202.379 17.6289 203.487C18.3022 204.02 19.0317 204.666 19.3684 205.171L21.6971 202.309ZM36.8199 204.932L38.1386 202.66C37.5634 202.435 36.876 202.028 36.876 201.313V194.116C36.876 192.124 36.0904 190.174 34.3509 190.174H34.2386C32.962 190.174 32.0923 191.465 31.5031 192.615C31.3768 191.619 30.7876 190.174 29.2445 190.174C27.9959 190.174 27.1121 191.17 26.7053 191.703C26.6071 191.184 26.551 190.287 26.3406 189.838L23.2824 190.763C23.5208 191.451 23.7172 191.928 23.7172 193.233L23.7453 204.483H26.8877V195.94C27.1963 194.453 28.1082 193.078 28.4449 193.078C28.8096 193.078 28.8377 193.289 28.8377 193.808V204.469L31.9941 204.483L32.0221 196.066C32.2185 195.281 32.948 193.078 33.2566 193.078C33.6775 193.078 33.7617 193.247 33.7897 193.836V201.257V201.285C33.7897 204.175 35.8239 204.736 36.8199 204.932ZM43.0486 195.982C43.1327 194.355 44.0726 193.008 45.5035 193.008C46.7381 193.008 47.7481 193.808 47.8183 195.645C45.9525 195.645 44.6338 195.702 43.0486 195.982ZM45.4755 190.16C41.5054 190.16 39.4292 193.233 39.4292 197.245C39.4292 201.636 41.7018 204.624 45.714 204.624C49.0668 204.624 49.9927 203.95 51.4096 202.379L48.9125 200.191C47.9585 201.229 47.2852 201.734 45.7981 201.734C44.5075 201.734 43.273 200.485 43.0486 198.928C44.4795 198.648 47.4675 198.451 51.4657 198.395C51.4657 198.395 51.4797 198.072 51.4797 197.792C51.4797 193.078 49.9506 190.16 45.4755 190.16ZM59.2375 198.367C59.2936 196.964 59.2796 195.491 59.3637 193.162C61.2295 193.162 63.446 193.19 65.3679 193.19L65.41 190.329C65.2978 190.329 60.9209 190.272 59.3918 190.272C59.4058 189.319 59.4198 187.958 59.4198 187.032L55.8987 186.948C55.8987 187.93 55.8847 189.347 55.8847 190.329H55.6742C55.2113 190.329 54.58 190.385 54.2433 190.497L54.4818 193.359C54.8465 193.247 55.2393 193.19 55.6321 193.19H55.8285C55.7584 195.491 55.7303 197.048 55.7023 198.311V198.9C55.7023 200.106 55.7584 201.173 56.2494 202.183C57.2454 204.259 59.3216 204.568 61.9029 204.568C63.0953 204.568 64.1755 204.455 64.9892 203.978C66.5604 203.081 67.3179 201.509 67.4582 201.117L64.5403 199.714C64.4421 199.994 64.2877 200.948 63.5583 201.341C63.2076 201.537 62.7867 201.734 61.8748 201.734C61.6925 201.734 61.2155 201.706 60.963 201.678C59.7846 201.481 59.2375 200.808 59.2375 198.928V198.367ZM72.5365 200.036C72.5365 198.493 74.0656 197.89 74.9915 197.89C75.8893 197.89 76.8433 198.367 77.3483 198.956V199.615C77.0958 200.401 75.9455 201.832 74.4023 201.832C73.5045 201.832 72.5365 201.411 72.5365 200.036ZM80.9396 200.05V195.295C80.9396 191.956 78.1479 190.062 74.9915 190.062C72.4944 190.104 71.6387 190.076 69.1977 191.619L70.9092 194.537C71.9473 193.443 73.266 192.98 74.8793 192.98C75.721 192.98 77.3483 193.415 77.3483 195.744C76.8152 195.379 75.8893 195.084 74.9915 195.084C72.9995 195.084 71.4423 195.547 70.1096 196.908C69.2819 197.764 68.861 198.984 68.861 200.247C68.861 202.8 71.288 204.638 73.6869 204.638C76.2401 204.638 77.3904 204.161 78.4566 203.067C79.0458 204.077 79.5227 204.231 80.2522 204.792L82.0058 202.702C81.2062 202.07 80.9396 201.341 80.9396 200.05ZM111.031 196.543C111.031 192.026 108.927 190.272 105.419 190.272C103.75 190.272 102.684 191.058 102.165 191.451C102.417 190.371 102.501 189.599 102.501 188.337C102.501 187.06 102.431 185.713 102.305 184.689L98.826 184.815C98.9242 185.769 99.0504 186.948 99.0504 188.266V204.483H102.487V194.916C102.95 194.144 103.862 193.078 104.942 193.078C106.233 193.078 107.58 193.261 107.58 197.595V202.014C107.58 203.558 108.155 204.596 108.478 205.045L111.648 203.922C111.297 203.417 111.031 202.576 111.031 201.425V196.543ZM118.718 198.367C118.775 196.964 118.761 195.491 118.845 193.162C120.71 193.162 122.927 193.19 124.849 193.19L124.891 190.329C124.779 190.329 120.402 190.272 118.873 190.272C118.887 189.319 118.901 187.958 118.901 187.032L115.38 186.948C115.38 187.93 115.366 189.347 115.366 190.329H115.155C114.692 190.329 114.061 190.385 113.724 190.497L113.963 193.359C114.328 193.247 114.72 193.19 115.113 193.19H115.31C115.239 195.491 115.211 197.048 115.183 198.311V198.9C115.183 200.106 115.239 201.173 115.73 202.183C116.726 204.259 118.803 204.568 121.384 204.568C122.576 204.568 123.656 204.455 124.47 203.978C126.041 203.081 126.799 201.509 126.939 201.117L124.021 199.714C123.923 199.994 123.769 200.948 123.039 201.341C122.689 201.537 122.268 201.734 121.356 201.734C121.173 201.734 120.696 201.706 120.444 201.678C119.266 201.481 118.718 200.808 118.718 198.928V198.367ZM133.589 198.367C133.645 196.964 133.631 195.491 133.715 193.162C135.581 193.162 137.797 193.19 139.719 193.19L139.761 190.329C139.649 190.329 135.272 190.272 133.743 190.272C133.757 189.319 133.771 187.958 133.771 187.032L130.25 186.948C130.25 187.93 130.236 189.347 130.236 190.329H130.025C129.562 190.329 128.931 190.385 128.595 190.497L128.833 193.359C129.198 193.247 129.591 193.19 129.983 193.19H130.18C130.11 195.491 130.082 197.048 130.053 198.311V198.9C130.053 200.106 130.11 201.173 130.601 202.183C131.597 204.259 133.673 204.568 136.254 204.568C137.447 204.568 138.527 204.455 139.34 203.978C140.912 203.081 141.669 201.509 141.809 201.117L138.891 199.714C138.793 199.994 138.639 200.948 137.909 201.341C137.559 201.537 137.138 201.734 136.226 201.734C136.044 201.734 135.567 201.706 135.314 201.678C134.136 201.481 133.589 200.808 133.589 198.928V198.367ZM151.98 197.034C151.98 200.78 151.152 201.776 149.539 201.776C148.487 201.776 147.729 200.934 147.196 200.121L147.168 195.281C147.8 194.046 148.417 193.106 150.227 193.106C151.461 193.106 151.98 194.327 151.98 197.034ZM143.745 194.116L143.717 206.532C143.717 207.808 143.787 209.141 143.914 210.165L147.393 210.067C147.295 209.113 147.196 207.934 147.196 206.616V205.339C147.154 204.722 147.056 204.203 147 203.642C147.407 204.077 148.066 204.596 149.469 204.596C154.547 204.596 155.571 201.467 155.571 196.754C155.571 192.994 154.309 190.301 150.451 190.301C148.88 190.301 147.701 190.693 146.916 191.563C146.86 191.016 146.761 190.483 146.635 190.146L143.437 190.511C143.577 191.423 143.745 192.587 143.745 193.752V194.116ZM158.447 195.309L158.531 197.034V198.746C159.303 198.704 160.145 198.69 160.944 198.69C162.347 198.69 163.624 198.732 164.227 198.732C165.981 198.732 168.814 198.732 170.708 198.774H170.961V195.337H170.708C169.207 195.323 167.075 195.309 165.924 195.309H164.255C163.301 195.309 161.884 195.267 160.481 195.267C159.78 195.267 159.079 195.281 158.447 195.309ZM176.881 195.982C176.965 194.355 177.905 193.008 179.336 193.008C180.57 193.008 181.58 193.808 181.65 195.645C179.785 195.645 178.466 195.702 176.881 195.982ZM179.308 190.16C175.338 190.16 173.261 193.233 173.261 197.245C173.261 201.636 175.534 204.624 179.546 204.624C182.899 204.624 183.825 203.95 185.242 202.379L182.745 200.191C181.791 201.229 181.117 201.734 179.63 201.734C178.34 201.734 177.105 200.485 176.881 198.928C178.312 198.648 181.3 198.451 185.298 198.395C185.298 198.395 185.312 198.072 185.312 197.792C185.312 193.078 183.783 190.16 179.308 190.16ZM191.639 197.034C191.639 194.327 192.172 193.106 193.406 193.106C195.216 193.106 195.819 194.046 196.451 195.281L196.436 200.121C195.903 200.934 195.132 201.776 194.08 201.776C192.466 201.776 191.639 200.78 191.639 197.034ZM199.888 194.116V193.752C199.888 192.587 200.042 191.423 200.182 190.511L196.984 190.146C196.857 190.483 196.773 191.016 196.717 191.563C195.931 190.693 194.753 190.301 193.182 190.301C189.324 190.301 188.047 192.994 188.047 196.754C188.047 201.467 189.072 204.596 194.15 204.596C195.553 204.596 196.212 204.077 196.619 203.642C196.563 204.203 196.479 204.722 196.436 205.339V206.616C196.436 207.934 196.549 209.688 196.815 210.417L200.126 209.997C199.916 209.506 199.902 208.131 199.902 206.938V206.532L199.888 194.116ZM214.435 204.722L216.441 202.155C215.726 201.86 214.814 200.92 214.786 200.191V190.272H211.265V198.619C211.265 200.401 210.297 201.495 208.164 201.594C206.972 201.594 206.705 201.243 206.537 200.303C206.509 195.168 206.593 191.465 206.285 190.174L202.721 190.567C202.988 191.367 203.03 194.383 203.03 197.413C203.03 198.76 203.016 200.121 203.016 201.271C203.016 203.74 205.625 204.455 207.758 204.455H207.884C209.988 204.413 211.601 204.049 212.653 202.968C212.948 203.67 213.537 204.315 214.435 204.722ZM221.744 184.423L221.758 187.874H225.756L225.728 184.423H221.744ZM221.744 190.272C220.622 190.272 219.373 190.469 218.054 190.862L218.461 193.471C219.794 193.162 221.057 193.078 221.744 193.078V201.594C221.744 202.421 221.856 203.543 223.049 204.203C223.666 204.54 224.957 204.736 226.149 204.736C227.888 204.736 230.007 204.315 231.213 203.319L229.852 200.654C229.011 201.467 228.169 201.93 226.864 201.93C225.574 201.93 225.335 201.537 225.335 200.64C225.335 200.64 225.321 194.102 225.321 190.272H221.744ZM234.678 189.389L231.704 191.212C233.472 193.78 236.446 200.976 236.446 204.596C239.364 204.596 239.883 204.357 240.879 203.558C243.432 201.509 244.891 197.399 244.891 192.952C244.891 192.138 244.849 190.497 244.807 190.272H241.286C241.314 190.749 241.328 191.423 241.328 192.068C241.328 192.419 241.328 192.77 241.314 193.036C241.23 195.94 240.935 198.956 239.195 200.962C238.242 197.357 237.063 193.359 234.678 189.389ZM247.276 198.956L247.304 202.099C248.258 202.042 249.156 202.014 249.997 202.014C250.727 202.014 251.428 202.042 252.13 202.042C254.683 202.042 256.703 202.099 259.144 202.099V198.956C256.787 198.956 254.907 198.844 252.41 198.844C250.811 198.844 249.24 198.844 247.276 198.956ZM247.192 192.405C247.178 192.713 247.164 193.19 247.164 193.681C247.164 194.341 247.178 195.042 247.178 195.463C249.212 195.589 250.727 195.688 252.074 195.688C254.837 195.688 256.394 195.519 259.102 195.519L259.074 192.433C256.296 192.433 254.767 192.573 252.074 192.573C250.755 192.573 249.198 192.531 247.192 192.405ZM269.946 183.946V187.158C270.255 187.93 270.353 188.8 270.353 190.02C270.353 190.974 270.283 192.194 270.142 192.966L272.934 193.204C273.411 190.385 273.537 187.916 273.537 183.946H269.946ZM264.026 183.946V187.158C264.335 187.93 264.433 188.8 264.433 190.02C264.433 190.974 264.363 192.194 264.222 192.966L267.014 193.204C267.491 190.385 267.617 187.916 267.617 183.946H264.026ZM287.327 185.25L283.371 191.928C281.926 189.473 280.748 187.312 278.924 185.222L276.245 187.397C278.209 189.627 279.696 192.166 281.379 195.084L276.525 203.389L279.471 205.241L283.455 198.114C285.588 201.579 285.925 203.01 288.057 205.115L290.386 202.912C288.394 200.948 287.79 198.648 285.391 194.832L290.245 186.892L287.327 185.25ZM292.279 195.309L292.364 197.034V198.746C293.135 198.704 293.977 198.69 294.777 198.69C296.179 198.69 297.456 198.732 298.059 198.732C299.813 198.732 302.647 198.732 304.54 198.774H304.793V195.337H304.54C303.039 195.323 300.907 195.309 299.757 195.309H298.087C297.133 195.309 295.716 195.267 294.314 195.267C293.612 195.267 292.911 195.281 292.279 195.309ZM315.833 185.545C315.693 186.429 315.651 187.116 315.651 188.126C315.651 190.553 315.721 192.643 315.721 194.411C315.721 198.437 315.679 201.551 312.873 201.678C310.909 201.622 310.769 199.517 310.573 198.199C310.502 197.68 310.488 196.936 310.488 196.038V194.06C310.488 191.409 310.545 188.196 310.601 185.839H306.981C306.897 188.098 306.855 190.876 306.855 193.331C306.855 195.267 306.883 197.006 306.953 198.086C307.206 202.253 308.581 204.624 312.901 204.624C314.711 204.554 316.521 204.147 317.671 202.786C319.242 200.934 319.312 197.764 319.312 194.439V193.611C319.312 192.026 319.27 190.202 319.27 188.126V187.719C319.27 187.13 319.284 186.639 319.383 185.938L315.833 185.545ZM330.002 197.413C328.838 197.483 327.154 197.483 326.313 197.666C326.846 195.716 328.15 192.84 328.235 190.483C328.249 192.643 329.637 195.407 330.002 197.413ZM326.733 185.896L321.711 201.355C321.347 202.477 321.01 203.628 320.954 204.483H324.601C324.643 203.88 324.882 203.067 325.162 202.211L325.583 200.948C327.267 200.527 328.459 200.583 330.591 200.541L331.04 202.141C331.251 202.884 331.391 203.656 331.391 204.483H335.263C335.263 203.375 334.898 202.197 334.561 201.06L329.876 185.896H326.733ZM336.89 195.309L336.974 197.034V198.746C337.746 198.704 338.588 198.69 339.387 198.69C340.79 198.69 342.067 198.732 342.67 198.732C344.423 198.732 347.257 198.732 349.151 198.774H349.404V195.337H349.151C347.65 195.323 345.518 195.309 344.367 195.309H342.698C341.744 195.309 340.327 195.267 338.924 195.267C338.223 195.267 337.521 195.281 336.89 195.309ZM358.55 188.659C359.757 188.659 360.318 188.968 361.019 190.707L364.274 188.954C363.039 186.681 360.598 185.797 358.634 185.797C356.179 185.797 354.271 187.088 353.261 188.603C352.532 189.697 351.396 191.928 351.396 195.561C351.396 198.76 352.223 201.103 353.907 202.856C355.225 204.175 357.077 204.525 358.634 204.525H358.676C361.342 204.525 363.741 203.123 364.779 200.906L361.328 198.984C360.654 200.808 360.121 201.706 358.382 201.706H358.185C356.698 201.706 355.071 199.517 355.071 195.673C355.071 190.567 356.937 188.659 358.55 188.659ZM374.248 201.018C373.743 201.523 373.378 201.706 372.607 201.72C370.909 201.72 370.026 200.05 370.026 197.722C370.026 194.804 370.657 192.84 372.775 192.84C374.571 192.84 375.062 194.621 375.09 196.824V197.048C375.09 198.83 374.907 200.289 374.248 201.018ZM372.593 204.568H372.621C377.334 204.568 378.681 200.864 378.681 196.866C378.681 195.519 378.429 193.934 377.853 192.826C376.871 190.974 375.328 190.006 372.565 190.006C368.468 190.006 366.49 192.77 366.49 197.974C366.49 201.902 368.244 204.568 372.593 204.568ZM393.706 204.932L395.024 202.66C394.449 202.435 393.762 202.028 393.762 201.313V194.116C393.762 192.124 392.976 190.174 391.237 190.174H391.124C389.848 190.174 388.978 191.465 388.389 192.615C388.263 191.619 387.673 190.174 386.13 190.174C384.882 190.174 383.998 191.17 383.591 191.703C383.493 191.184 383.437 190.287 383.226 189.838L380.168 190.763C380.407 191.451 380.603 191.928 380.603 193.233L380.631 204.483H383.773V195.94C384.082 194.453 384.994 193.078 385.331 193.078C385.695 193.078 385.723 193.289 385.723 193.808V204.469L388.88 204.483L388.908 196.066C389.104 195.281 389.834 193.078 390.142 193.078C390.563 193.078 390.647 193.247 390.676 193.836V201.257V201.285C390.676 204.175 392.71 204.736 393.706 204.932ZM404.774 197.034C404.774 200.78 403.947 201.776 402.333 201.776C401.281 201.776 400.524 200.934 399.99 200.121L399.962 195.281C400.594 194.046 401.211 193.106 403.021 193.106C404.255 193.106 404.774 194.327 404.774 197.034ZM396.539 194.116L396.511 206.532C396.511 207.808 396.582 209.141 396.708 210.165L400.187 210.067C400.089 209.113 399.99 207.934 399.99 206.616V205.339C399.948 204.722 399.85 204.203 399.794 203.642C400.201 204.077 400.86 204.596 402.263 204.596C407.341 204.596 408.365 201.467 408.365 196.754C408.365 192.994 407.103 190.301 403.245 190.301C401.674 190.301 400.495 190.693 399.71 191.563C399.654 191.016 399.556 190.483 399.429 190.146L396.231 190.511C396.371 191.423 396.539 192.587 396.539 193.752V194.116ZM414.552 200.036C414.552 198.493 416.081 197.89 417.007 197.89C417.905 197.89 418.859 198.367 419.364 198.956V199.615C419.111 200.401 417.961 201.832 416.418 201.832C415.52 201.832 414.552 201.411 414.552 200.036ZM422.955 200.05V195.295C422.955 191.956 420.164 190.062 417.007 190.062C414.51 190.104 413.654 190.076 411.213 191.619L412.925 194.537C413.963 193.443 415.282 192.98 416.895 192.98C417.737 192.98 419.364 193.415 419.364 195.744C418.831 195.379 417.905 195.084 417.007 195.084C415.015 195.084 413.458 195.547 412.125 196.908C411.297 197.764 410.877 198.984 410.877 200.247C410.877 202.8 413.304 204.638 415.702 204.638C418.256 204.638 419.406 204.161 420.472 203.067C421.061 204.077 421.538 204.231 422.268 204.792L424.021 202.702C423.222 202.07 422.955 201.341 422.955 200.05ZM430.994 198.367C431.05 196.964 431.036 195.491 431.12 193.162C432.986 193.162 435.202 193.19 437.124 193.19L437.166 190.329C437.054 190.329 432.677 190.272 431.148 190.272C431.162 189.319 431.176 187.958 431.176 187.032L427.655 186.948C427.655 187.93 427.641 189.347 427.641 190.329H427.43C426.967 190.329 426.336 190.385 425.999 190.497L426.238 193.359C426.603 193.247 426.995 193.19 427.388 193.19H427.585C427.514 195.491 427.486 197.048 427.458 198.311V198.9C427.458 200.106 427.514 201.173 428.005 202.183C429.001 204.259 431.078 204.568 433.659 204.568C434.851 204.568 435.932 204.455 436.745 203.978C438.316 203.081 439.074 201.509 439.214 201.117L436.296 199.714C436.198 199.994 436.044 200.948 435.314 201.341C434.964 201.537 434.543 201.734 433.631 201.734C433.449 201.734 432.972 201.706 432.719 201.678C431.541 201.481 430.994 200.808 430.994 198.928V198.367ZM444.798 184.423L444.812 187.874H448.81L448.782 184.423H444.798ZM444.798 190.272C443.675 190.272 442.427 190.469 441.108 190.862L441.515 193.471C442.848 193.162 444.11 193.078 444.798 193.078V201.594C444.798 202.421 444.91 203.543 446.102 204.203C446.72 204.54 448.01 204.736 449.203 204.736C450.942 204.736 453.06 204.315 454.267 203.319L452.906 200.654C452.064 201.467 451.223 201.93 449.918 201.93C448.627 201.93 448.389 201.537 448.389 200.64C448.389 200.64 448.375 194.102 448.375 190.272H444.798ZM464.353 197.778C464.353 200.443 463.792 202.056 462.277 202.056C461.421 202.056 460.425 201.018 459.71 199.587V194.902C460.173 194.13 461.029 193.078 462.039 193.078C463.329 193.078 464.353 194.088 464.353 197.778ZM467.931 198.044C467.931 192.826 466.345 190.272 462.53 190.272C460.93 190.272 459.892 191.044 459.373 191.437C459.626 190.357 459.71 189.585 459.71 188.323C459.71 187.046 459.64 185.699 459.514 184.675L456.048 184.801C456.147 185.755 456.259 186.934 456.259 188.252C456.259 192.18 456.273 197.245 456.273 200.738V201.074C456.273 202.239 456.147 203.459 456.006 204.385L458.756 204.666C458.756 204.666 459.373 203.768 459.373 203.179C459.906 203.922 461.015 204.582 462.754 204.582C466.275 204.582 467.931 202.351 467.931 198.044ZM474.552 184.829C473.43 184.829 471.859 184.9 470.54 185.292L470.947 187.902C471.999 187.663 473.191 187.635 473.991 187.635H474.552C474.538 189.094 474.538 190.244 474.538 191.844C474.538 195.028 474.552 198.409 474.552 201.594C474.552 202.421 474.664 203.543 475.857 204.203C476.474 204.54 477.751 204.736 478.943 204.736C480.683 204.736 482.801 204.315 484.007 203.319L482.647 200.654C481.805 201.467 480.963 201.93 479.659 201.93C478.368 201.93 478.143 201.537 478.143 200.64C478.143 200.64 478.115 188.659 478.115 184.829H474.552ZM489.156 195.982C489.24 194.355 490.18 193.008 491.611 193.008C492.845 193.008 493.855 193.808 493.926 195.645C492.06 195.645 490.741 195.702 489.156 195.982ZM491.583 190.16C487.613 190.16 485.536 193.233 485.536 197.245C485.536 201.636 487.809 204.624 491.821 204.624C495.174 204.624 496.1 203.95 497.517 202.379L495.02 200.191C494.066 201.229 493.392 201.734 491.905 201.734C490.615 201.734 489.38 200.485 489.156 198.928C490.587 198.648 493.575 198.451 497.573 198.395C497.573 198.395 497.587 198.072 497.587 197.792C497.587 193.078 496.058 190.16 491.583 190.16ZM507.87 183.946V187.158C508.179 187.93 508.277 188.8 508.277 190.02C508.277 190.974 508.207 192.194 508.066 192.966L510.858 193.204C511.335 190.385 511.461 187.916 511.461 183.946H507.87ZM501.95 183.946V187.158C502.258 187.93 502.357 188.8 502.357 190.02C502.357 190.974 502.287 192.194 502.146 192.966L504.938 193.204C505.415 190.385 505.541 187.916 505.541 183.946H501.95ZM533.71 197.076C533.71 195.07 534.65 193.162 536.713 193.162C538.677 193.162 539.111 194.074 539.252 194.607L542.338 193.176C542.029 192.447 541.384 191.619 540.542 191.058C539.659 190.469 538.298 190.202 536.965 190.202C532.546 190.202 530.049 192.321 530.049 197.09C530.049 199.882 530.61 202.042 532.434 203.459C533.781 204.469 535.506 204.582 536.965 204.582C540.023 204.582 541.875 203.558 542.829 201.453L539.659 199.573C538.985 200.71 538.228 201.636 536.825 201.636H536.656C535.997 201.636 533.71 201.551 533.71 197.076ZM552.691 201.018C552.186 201.523 551.821 201.706 551.05 201.72C549.352 201.72 548.468 200.05 548.468 197.722C548.468 194.804 549.1 192.84 551.218 192.84C553.014 192.84 553.505 194.621 553.533 196.824V197.048C553.533 198.83 553.35 200.289 552.691 201.018ZM551.036 204.568H551.064C555.777 204.568 557.124 200.864 557.124 196.866C557.124 195.519 556.872 193.934 556.296 192.826C555.314 190.974 553.771 190.006 551.008 190.006C546.911 190.006 544.933 192.77 544.933 197.974C544.933 201.902 546.687 204.568 551.036 204.568ZM563.535 191.479C563.437 190.792 563.142 190.062 563.002 189.725L559.747 190.399C560.084 191.717 560.196 192.082 560.196 194.579V204.483H563.717V194.565C564.91 193.527 566.397 192.994 567.281 192.994C568.221 192.994 568.431 193.639 568.431 194.677V201.369C568.431 203.586 570.479 204.624 571.812 205.045L573.439 202.239C572.654 201.818 571.952 201.509 571.952 200.583V193.317C571.952 191.016 570.044 190.09 567.744 190.09C566.201 190.09 564.321 190.778 563.535 191.479ZM579.696 198.367C579.752 196.964 579.738 195.491 579.822 193.162C581.688 193.162 583.905 193.19 585.826 193.19L585.869 190.329C585.756 190.329 581.379 190.272 579.85 190.272C579.864 189.319 579.878 187.958 579.878 187.032L576.357 186.948C576.357 187.93 576.343 189.347 576.343 190.329H576.133C575.67 190.329 575.038 190.385 574.702 190.497L574.94 193.359C575.305 193.247 575.698 193.19 576.091 193.19H576.287C576.217 195.491 576.189 197.048 576.161 198.311V198.9C576.161 200.106 576.217 201.173 576.708 202.183C577.704 204.259 579.78 204.568 582.361 204.568C583.554 204.568 584.634 204.455 585.448 203.978C587.019 203.081 587.776 201.509 587.917 201.117L584.999 199.714C584.901 199.994 584.746 200.948 584.017 201.341C583.666 201.537 583.245 201.734 582.333 201.734C582.151 201.734 581.674 201.706 581.421 201.678C580.243 201.481 579.696 200.808 579.696 198.928V198.367ZM593.248 195.982C593.332 194.355 594.272 193.008 595.703 193.008C596.937 193.008 597.947 193.808 598.017 195.645C596.151 195.645 594.833 195.702 593.248 195.982ZM595.674 190.16C591.704 190.16 589.628 193.233 589.628 197.245C589.628 201.636 591.901 204.624 595.913 204.624C599.266 204.624 600.192 203.95 601.609 202.379L599.111 200.191C598.158 201.229 597.484 201.734 595.997 201.734C594.706 201.734 593.472 200.485 593.248 198.928C594.678 198.648 597.667 198.451 601.665 198.395C601.665 198.395 601.679 198.072 601.679 197.792C601.679 193.078 600.15 190.16 595.674 190.16ZM608.146 191.479C608.048 190.792 607.753 190.062 607.613 189.725L604.358 190.399C604.695 191.717 604.807 192.082 604.807 194.579V204.483H608.328V194.565C609.521 193.527 611.008 192.994 611.891 192.994C612.831 192.994 613.042 193.639 613.042 194.677V201.369C613.042 203.586 615.09 204.624 616.423 205.045L618.05 202.239C617.264 201.818 616.563 201.509 616.563 200.583V193.317C616.563 191.016 614.655 190.09 612.354 190.09C610.811 190.09 608.931 190.778 608.146 191.479ZM624.307 198.367C624.363 196.964 624.349 195.491 624.433 193.162C626.299 193.162 628.515 193.19 630.437 193.19L630.479 190.329C630.367 190.329 625.99 190.272 624.461 190.272C624.475 189.319 624.489 187.958 624.489 187.032L620.968 186.948C620.968 187.93 620.954 189.347 620.954 190.329H620.743C620.28 190.329 619.649 190.385 619.313 190.497L619.551 193.359C619.916 193.247 620.309 193.19 620.701 193.19H620.898C620.828 195.491 620.8 197.048 620.771 198.311V198.9C620.771 200.106 620.828 201.173 621.319 202.183C622.315 204.259 624.391 204.568 626.972 204.568C628.165 204.568 629.245 204.455 630.058 203.978C631.63 203.081 632.387 201.509 632.527 201.117L629.609 199.714C629.511 199.994 629.357 200.948 628.627 201.341C628.277 201.537 627.856 201.734 626.944 201.734C626.762 201.734 626.285 201.706 626.032 201.678C624.854 201.481 624.307 200.808 624.307 198.928V198.367ZM633.902 198.956L633.93 202.099C634.884 202.042 635.782 202.014 636.624 202.014C637.353 202.014 638.055 202.042 638.756 202.042C641.309 202.042 643.329 202.099 645.77 202.099V198.956C643.414 198.956 641.534 198.844 639.037 198.844C637.437 198.844 635.866 198.844 633.902 198.956ZM633.818 192.405C633.804 192.713 633.79 193.19 633.79 193.681C633.79 194.341 633.804 195.042 633.804 195.463C635.838 195.589 637.353 195.688 638.7 195.688C641.464 195.688 643.021 195.519 645.728 195.519L645.7 192.433C642.923 192.433 641.393 192.573 638.7 192.573C637.381 192.573 635.824 192.531 633.818 192.405ZM656.572 183.946V187.158C656.881 187.93 656.979 188.8 656.979 190.02C656.979 190.974 656.909 192.194 656.769 192.966L659.56 193.204C660.037 190.385 660.164 187.916 660.164 183.946H656.572ZM650.652 183.946V187.158C650.961 187.93 651.059 188.8 651.059 190.02C651.059 190.974 650.989 192.194 650.849 192.966L653.64 193.204C654.117 190.385 654.244 187.916 654.244 183.946H650.652ZM664.737 185.91L664.821 188.884C666.308 188.8 667.094 188.8 668.02 188.785V201.425H667.29C666.49 201.425 665.957 201.439 664.765 201.495V204.525C666.939 204.525 668.637 204.427 669.675 204.427C670.503 204.427 671.19 204.413 671.849 204.413C672.733 204.413 673.603 204.427 674.795 204.497L674.781 201.453C674.052 201.411 673.393 201.397 672.761 201.397C672.046 201.397 672.256 201.411 671.611 201.411V188.771C672.944 188.771 673.112 188.842 674.837 188.842L674.851 185.882C672.565 185.854 671.162 185.839 669.689 185.839C668.342 185.839 666.925 185.854 664.737 185.91ZM679.186 185.98V204.483H688.754C690.129 204.483 690.704 204.189 691.377 204.006L690.367 201.215C690.367 201.215 689.399 201.594 688.613 201.594L682.778 201.622C682.778 200.513 682.806 198.76 682.806 195.856V195.421H687.547V192.573H682.806V188.8H690.227V185.966H690.002C688.964 185.966 687.056 185.924 684.966 185.924H683.423H682.048C680.954 185.924 679.972 185.924 679.186 185.98ZM693.383 198.956L693.411 202.099C694.365 202.042 695.263 202.014 696.105 202.014C696.834 202.014 697.536 202.042 698.237 202.042C700.79 202.042 702.81 202.099 705.251 202.099V198.956C702.894 198.956 701.015 198.844 698.518 198.844C696.918 198.844 695.347 198.844 693.383 198.956ZM693.299 192.405C693.285 192.713 693.271 193.19 693.271 193.681C693.271 194.341 693.285 195.042 693.285 195.463C695.319 195.589 696.834 195.688 698.181 195.688C700.945 195.688 702.502 195.519 705.209 195.519L705.181 192.433C702.403 192.433 700.874 192.573 698.181 192.573C696.862 192.573 695.305 192.531 693.299 192.405ZM712.209 195.982C712.294 194.355 713.234 193.008 714.664 193.008C715.899 193.008 716.909 193.808 716.979 195.645C715.113 195.645 713.795 195.702 712.209 195.982ZM714.636 190.16C710.666 190.16 708.59 193.233 708.59 197.245C708.59 201.636 710.863 204.624 714.875 204.624C718.228 204.624 719.154 203.95 720.57 202.379L718.073 200.191C717.119 201.229 716.446 201.734 714.959 201.734C713.668 201.734 712.434 200.485 712.209 198.928C713.64 198.648 716.628 198.451 720.627 198.395C720.627 198.395 720.641 198.072 720.641 197.792C720.641 193.078 719.111 190.16 714.636 190.16ZM726.981 197.778C726.981 194.088 728.258 193.078 729.549 193.078C730.559 193.078 731.414 194.13 731.877 194.902V199.587C731.162 201.018 730.18 201.65 729.324 201.65C727.809 201.65 726.981 200.443 726.981 197.778ZM723.404 198.044C723.404 202.351 725.312 204.582 728.833 204.582C730.573 204.582 731.681 203.922 732.214 203.179C732.214 203.768 732.845 204.666 732.845 204.666L735.595 204.385C735.455 203.459 735.314 202.239 735.314 201.074V200.738C735.314 197.245 735.342 192.18 735.342 188.252C735.342 186.934 735.455 185.755 735.553 184.801L732.074 184.675C731.948 185.699 731.877 187.046 731.877 188.323C731.877 189.585 731.962 190.357 732.214 191.437C731.695 191.044 730.671 190.146 729.072 190.146C725.382 190.146 723.404 192.699 723.404 198.044ZM744.826 207.065H743.563C742.595 207.065 741.557 206.377 741.557 205.507C741.557 204.89 741.557 204.105 741.88 203.684L745.625 203.67C747.225 203.67 747.533 204.133 747.533 204.708C747.533 206.083 745.696 207.065 744.826 207.065ZM746.285 194.299C746.285 195.351 745.696 196.08 744.04 196.08C742.778 196.08 741.824 195.688 741.824 194.425C741.824 193.373 742.792 192.952 744.026 192.952C745.233 192.952 746.285 193.092 746.285 194.299ZM749.441 192.994C749.778 192.91 750.03 192.882 750.507 192.882C750.648 192.882 750.914 192.924 751.082 192.952V190.09C749.455 190.09 748.684 190.301 747.996 190.946C746.93 190.287 745.583 190.09 744.18 190.09C740.617 190.09 738.359 191.451 738.359 194.748C738.359 195.786 738.878 196.305 739.425 197.006C738.906 197.581 738.359 198.255 738.359 199.672C738.359 200.878 738.92 201.986 739.579 202.477C738.836 203.137 738.359 204.161 738.359 205.578C738.359 208.594 740.547 209.87 743.409 209.87H745.583C748.01 209.87 751.04 207.598 751.04 204.469C751.04 201.65 748.291 201.004 746.144 201.004H743.633C742.146 201.004 741.824 200.303 741.824 199.812C741.824 199.391 741.978 199.012 742.245 198.704C742.441 198.788 743.255 198.886 744.307 198.886H744.349C748.277 198.886 749.736 196.908 749.736 194.439C749.736 193.303 749.441 192.994 749.441 192.994ZM756.82 195.982C756.904 194.355 757.844 193.008 759.275 193.008C760.51 193.008 761.52 193.808 761.59 195.645C759.724 195.645 758.405 195.702 756.82 195.982ZM759.247 190.16C755.277 190.16 753.201 193.233 753.201 197.245C753.201 201.636 755.473 204.624 759.486 204.624C762.838 204.624 763.764 203.95 765.181 202.379L762.684 200.191C761.73 201.229 761.057 201.734 759.57 201.734C758.279 201.734 757.045 200.485 756.82 198.928C758.251 198.648 761.239 198.451 765.237 198.395C765.237 198.395 765.251 198.072 765.251 197.792C765.251 193.078 763.722 190.16 759.247 190.16ZM775.534 183.946V187.158C775.843 187.93 775.941 188.8 775.941 190.02C775.941 190.974 775.871 192.194 775.731 192.966L778.522 193.204C778.999 190.385 779.126 187.916 779.126 183.946H775.534ZM769.614 183.946V187.158C769.923 187.93 770.021 188.8 770.021 190.02C770.021 190.974 769.951 192.194 769.811 192.966L772.602 193.204C773.079 190.385 773.205 187.916 773.205 183.946H769.614ZM783.418 202.267L785.747 205.129C786.084 204.624 786.813 203.978 787.487 203.445C788.819 202.337 794.529 199.153 794.894 198.9L794.922 195.73C792.719 193.92 788.342 190.749 786.476 189.655C786.056 189.417 785.761 189.22 785.27 189.066L783.446 191.97C785.705 193.162 788.791 195.519 791.022 197.245C789.016 198.662 784.541 200.527 783.418 202.267Z" fill="white"/>
<path d="M22.7881 470.829C22.5019 471.23 20.413 476.266 11.685 481.417L14.5753 485.738C18.0951 483.163 21.7579 480.33 23.7038 477.897L23.7611 508.345H28.4541V471.173L22.7881 470.829ZM41.1597 498.501C41.1597 504.339 45.3663 508.717 52.2628 508.717C56.8127 508.717 59.474 507.401 61.3627 505.197C63.28 502.936 64.1099 499.76 64.1099 497.328C64.1099 492.463 62.3929 488.657 57.7857 486.425C60.3897 485.252 61.8492 482.19 61.8492 478.527C61.8492 473.061 57.1561 470.801 52.0338 470.801H51.719C44.7653 470.801 42.2757 476.495 42.1326 476.924L46.1961 479.185C46.7112 478.155 48.371 475.179 52.0052 475.179C54.8954 475.179 57.3278 476.438 57.3278 478.67C57.3278 481.56 56.0973 482.905 53.6936 483.764C51.6332 484.45 50.2024 484.508 49.115 484.508H48.6571V489.029C50.9464 489.029 53.2071 489.029 55.8112 490.488C58.5869 492.034 59.5313 494.237 59.5313 497.385C59.5313 501.62 56.7841 504.281 52.2628 504.281C48.0562 504.281 45.7097 501.792 45.681 498.472L41.1597 498.501ZM107.606 495.067C107.492 494.38 107.263 492.406 107.263 490.975C107.263 484.88 107.95 475.036 113.644 475.036C116.792 475.036 117.851 477.955 118.738 480.816L107.606 495.067ZM119.797 484.679C119.911 485.853 119.969 487.255 119.969 488.657C119.969 494.924 119.625 504.167 113.702 504.167C110.525 504.167 109.323 501.735 108.579 499.016L119.797 484.679ZM113.616 470.657C104.945 470.657 102.828 481.761 102.828 490.46C102.828 499.159 105.117 508.545 113.702 508.545C122.802 508.545 124.404 497.843 124.404 489.201C124.404 480.644 122.287 470.657 113.616 470.657ZM137.94 495.067C137.825 494.38 137.596 492.406 137.596 490.975C137.596 484.88 138.283 475.036 143.978 475.036C147.125 475.036 148.184 477.955 149.071 480.816L137.94 495.067ZM150.13 484.679C150.245 485.853 150.302 487.255 150.302 488.657C150.302 494.924 149.958 504.167 144.035 504.167C140.858 504.167 139.657 501.735 138.913 499.016L150.13 484.679ZM143.949 470.657C135.278 470.657 133.161 481.761 133.161 490.46C133.161 499.159 135.45 508.545 144.035 508.545C153.135 508.545 154.737 497.843 154.737 489.201C154.737 480.644 152.62 470.657 143.949 470.657ZM168.273 495.067C168.158 494.38 167.929 492.406 167.929 490.975C167.929 484.88 168.616 475.036 174.311 475.036C177.458 475.036 178.517 477.955 179.404 480.816L168.273 495.067ZM180.463 484.679C180.578 485.853 180.635 487.255 180.635 488.657C180.635 494.924 180.291 504.167 174.368 504.167C171.192 504.167 169.99 501.735 169.246 499.016L180.463 484.679ZM174.282 470.657C165.611 470.657 163.494 481.761 163.494 490.46C163.494 499.159 165.783 508.545 174.368 508.545C183.468 508.545 185.07 497.843 185.07 489.201C185.07 480.644 182.953 470.657 174.282 470.657ZM243.333 484.25L242.589 484.279C241.387 484.307 240.385 484.365 238.897 484.422H233.518H230.398C231.457 478.813 234.176 474.32 237.953 474.32C240.843 474.32 243.362 476.552 244.907 479.5L246.767 474.206C244.134 471.258 241.129 469.656 238.039 469.656C235.206 469.656 230.685 471.43 228.338 476.552C227.365 478.727 226.535 481.131 225.992 484.365C224.675 484.336 223.645 484.307 223.159 484.279L222.815 484.25L222.672 484.594C222.3 485.481 221.728 486.539 221.241 487.856L220.955 488.6L221.67 488.657C222.5 488.714 223.731 488.714 225.534 488.743C225.505 489.143 225.505 489.573 225.505 490.002V491.376C224.961 491.376 224.275 491.376 223.073 491.404H222.758L222.643 491.719C222.1 493.064 221.442 493.98 221.213 495.038L221.041 495.754L221.728 495.725C222.443 495.697 222.987 495.697 223.531 495.697C224.246 495.697 224.933 495.697 225.763 495.725C226.306 499.245 227.565 502.421 229.454 504.854C231.858 508.002 235.292 508.975 237.552 508.975C241.53 508.975 245.823 507.343 247.94 502.364L244.191 499.875C242.818 502.908 240.529 504.539 237.696 504.539H237.152C233.832 504.539 231.028 500.848 230.255 495.754L239.441 495.639L240.929 491.347H240.185C237.638 491.376 234.777 491.404 232.316 491.404C231.228 491.404 230.713 491.404 229.855 491.376V490.66C229.855 490.031 229.883 489.401 229.912 488.743H236.837C239.012 488.743 239.899 488.628 241.53 488.571H241.873L243.333 484.25ZM292.753 503.738C292.753 506.199 292.782 507.801 292.782 509.146C292.782 510.72 292.753 511.951 292.639 513.725L297.246 513.753C297.389 510.863 297.417 509.261 297.417 505.97V501.677C297.417 492.12 297.074 477.468 297.074 469.541V465.392H292.496V468.053C292.496 476.295 292.753 493.293 292.753 503.738ZM349.327 487.799C351.016 488.571 352.847 489.029 354.621 489.458L353.705 501.878C350.529 501.134 348.497 499.417 348.497 495.525H343.976C343.976 501.477 347.152 505.054 353.362 506.227L352.532 512.723L357.655 513.124L357.998 506.542C363.75 506.342 369.387 503.852 369.387 496.469C369.387 491.49 366.497 488.628 363.406 487.14C362.176 486.568 360.86 486.196 359.543 485.91L360.259 476.381C362.348 476.81 364.78 477.84 365.696 480.358L369.673 478.155C368.128 474.807 364.293 472.489 360.602 471.917L361.232 465.278L356.224 464.877L355.966 471.602H355.709C349.671 471.602 344.319 474.091 344.319 479.786C344.319 483.964 346.723 486.568 349.327 487.799ZM355.651 476.009L354.965 484.908C353.849 484.651 352.761 484.307 351.788 483.85C350.186 483.105 348.869 481.989 348.869 479.643C348.869 476.896 351.903 476.037 355.651 476.009ZM358.313 502.164L359.2 490.603C359.772 490.803 360.344 491.004 360.888 491.232C363.149 492.205 364.809 493.636 364.809 496.698C364.809 500.39 362.405 501.906 358.313 502.164ZM386.528 503.881C381.778 503.881 379.002 501.391 379.002 497.557C379.002 493.207 382.751 491.004 386.528 489.287C390.306 491.004 394.054 493.207 394.054 497.557C394.054 501.391 391.279 503.881 386.528 503.881ZM386.528 484.594C383.438 483.821 381.177 481.675 381.177 479.786C381.177 477.525 383.037 475.579 386.471 475.579C389.905 475.579 391.765 477.525 391.765 479.786C391.765 481.675 389.619 483.821 386.528 484.594ZM386.471 471.087C380.204 471.087 376.684 474.95 376.684 479.9C376.684 482.848 379.145 485.853 381.663 486.969C378.458 488.514 374.452 492.062 374.452 497.27C374.452 503.623 379.117 508.345 386.528 508.345C393.94 508.345 398.604 503.623 398.604 497.27C398.604 492.062 394.598 488.514 391.393 486.969C393.911 485.853 396.258 482.848 396.258 479.9C396.258 474.95 392.738 471.087 386.471 471.087ZM407.246 471.115C406.502 473.262 405.501 475.379 404.957 477.067L408.82 478.813C409.192 477.583 409.478 476.552 410.022 475.494C411.825 475.579 414.286 475.723 416.089 475.723H419.78C421.812 475.723 423.958 475.723 425.446 475.665C417.634 487.655 411.882 496.441 411.882 508.087H416.604C416.604 495.096 423.243 489 431.513 473.634L430.197 471.287H429.023H414.944C412.741 471.287 409.65 471.115 407.246 471.115ZM474.752 503.738C474.752 506.199 474.781 507.801 474.781 509.146C474.781 510.72 474.752 511.951 474.637 513.725L479.245 513.753C479.388 510.863 479.416 509.261 479.416 505.97V501.677C479.416 492.12 479.073 477.468 479.073 469.541V465.392H474.494V468.053C474.494 476.295 474.752 493.293 474.752 503.738ZM533.072 502.765C532.614 503.337 531.813 504.11 531.183 504.11C530.725 504.11 530.353 503.709 530.296 502.507V502.336C530.296 501.477 530.668 500.59 530.954 500.39C531.612 500.819 532.127 501.906 533.072 502.765ZM548.896 488.314V483.935C547.294 484.107 545.405 484.136 543.288 484.136H541.657L537.45 484.222C537.135 482.333 536.706 479.557 536.706 478.012C536.706 476.152 537.278 473.805 540.626 473.805H540.798C543.116 473.862 543.774 475.551 544.232 477.325L548.439 476.095C547.551 472.46 545.005 469.427 540.798 469.427C535.39 469.427 532.185 472.374 532.185 478.241C532.185 480.129 532.499 482.047 532.871 484.078H529.18V488.428H529.666C530.954 488.428 532.242 488.428 533.73 488.485C534.274 491.232 534.789 493.693 534.817 496.727C534.817 497.356 534.817 497.957 534.76 498.53C533.816 497.528 532.328 495.954 530.639 495.954H530.382C529.952 495.954 529.409 496.04 528.922 496.298C526.862 497.499 525.975 499.703 525.975 502.593C525.975 505.798 527.749 508.459 530.611 508.459C533.1 508.459 535.533 507.258 536.906 505.369C540.025 507.372 542.887 508.545 546.264 508.545C550.299 508.517 552.616 506.542 552.731 502.65V501.477L548.267 501.534V501.964C548.267 503.681 548.181 504.167 545.52 504.167C542.973 504.167 541.456 503.251 538.766 501.506C539.11 500.132 539.31 498.558 539.31 497.07C539.281 493.922 538.795 491.232 538.28 488.571H541.599C544.404 488.571 546.779 488.571 548.896 488.314ZM576.711 474.95L576.025 470.572C567.983 471.459 561.945 475.322 559.484 481.532C557.796 485.767 557.281 490.116 557.281 493.522C557.281 502.021 561.058 508.173 568.527 508.173C575.28 508.173 580.26 504.711 580.26 497.185C580.26 490.574 575.91 485.938 569.557 485.938C565.265 485.938 563.92 487.255 562.375 488.571C562.632 486.854 562.947 485.08 563.662 483.306C565.551 478.67 570.502 475.522 576.711 474.95ZM562.088 495.496C562.546 493.064 565.494 490.374 569.3 490.374C573.277 490.374 575.71 493.293 575.71 497.185C575.71 501.592 572.648 503.795 568.527 503.795C564.75 503.795 562.088 500.304 562.088 495.496ZM599.347 475.122C602.695 475.122 605.413 478.384 605.785 481.532C605.213 483.506 602.809 486.11 599.146 486.11C595.712 486.11 592.221 484.565 592.221 480.845C592.221 476.781 595.627 475.122 599.347 475.122ZM587.671 480.759C587.671 487.198 592.622 490.46 598.746 490.46C602.437 490.46 604.498 489.601 606.3 487.77C606.329 488.771 606.386 489.802 606.386 490.832C606.386 497.356 605.184 503.681 598.86 503.681C593.623 503.681 592.45 501.964 591.162 497.814L586.784 499.102C588.644 504.854 591.849 508.145 598.86 508.145C608.79 508.145 610.85 498.93 610.85 489.659C610.85 480.53 609.534 470.829 598.631 470.829C592.278 470.829 587.671 474.606 587.671 480.759ZM664.334 501.076C662.846 502.793 660.585 504.281 657.724 504.281C654.433 504.281 651.485 501.592 651.485 497.328C651.485 494.037 653.403 491.519 655.635 489.544C658.496 493.178 661.272 497.013 664.334 501.076ZM661.415 477.497C661.415 478.298 661.1 479.013 660.356 480.015C659.698 480.902 658.668 482.018 656.55 483.506C655.263 481.989 653.889 480.272 653.889 478.212C653.889 476.009 655.806 473.92 657.752 473.92C659.898 473.92 661.415 474.978 661.415 477.497ZM673.777 506.256C673.119 505.369 670.687 502.25 669.542 500.79C671.002 498.472 671.602 494.352 671.602 489.573L667.339 489.544C667.339 492.663 667.253 494.695 666.623 496.698C664.105 493.293 661.644 490.116 659.154 486.883C662.503 484.422 665.908 481.675 665.908 477.039C665.908 472.117 661.93 469.541 657.781 469.541C653.174 469.541 649.368 473.576 649.368 478.412C649.368 481.732 651.457 484.365 652.83 486.024C649.568 488.6 646.935 492.463 646.935 497.585C646.935 504.396 651.628 508.717 657.581 508.717C661.301 508.717 664.448 507.572 667.053 504.768C668.541 506.742 669.857 508.431 670.286 509.003L673.777 506.256ZM720.679 475.122C724.027 475.122 726.746 478.384 727.118 481.532C726.546 483.506 724.142 486.11 720.479 486.11C717.045 486.11 713.554 484.565 713.554 480.845C713.554 476.781 716.959 475.122 720.679 475.122ZM709.004 480.759C709.004 487.198 713.954 490.46 720.078 490.46C723.77 490.46 725.83 489.601 727.633 487.77C727.662 488.771 727.719 489.802 727.719 490.832C727.719 497.356 726.517 503.681 720.193 503.681C714.956 503.681 713.783 501.964 712.495 497.814L708.117 499.102C709.977 504.854 713.182 508.145 720.193 508.145C730.123 508.145 732.183 498.93 732.183 489.659C732.183 480.53 730.867 470.829 719.964 470.829C713.611 470.829 709.004 474.606 709.004 480.759ZM758.71 474.95L758.023 470.572C749.982 471.459 743.944 475.322 741.483 481.532C739.795 485.767 739.28 490.116 739.28 493.522C739.28 502.021 743.057 508.173 750.526 508.173C757.279 508.173 762.259 504.711 762.259 497.185C762.259 490.574 757.909 485.938 751.556 485.938C747.264 485.938 745.919 487.255 744.373 488.571C744.631 486.854 744.946 485.08 745.661 483.306C747.55 478.67 752.5 475.522 758.71 474.95ZM744.087 495.496C744.545 493.064 747.493 490.374 751.299 490.374C755.276 490.374 757.709 493.293 757.709 497.185C757.709 501.592 754.647 503.795 750.526 503.795C746.749 503.795 744.087 500.304 744.087 495.496ZM781.403 499.96C781.231 499.96 781.088 499.989 780.916 499.989C777.339 499.989 775.622 497.099 775.622 493.379C775.622 491.032 776.424 489.916 776.967 489.287C778.026 487.999 779.857 487.484 781.603 487.484C783.864 487.484 784.894 487.655 785.209 489.172L785.323 489.83L789.845 488.199C788.9 485.595 786.983 483.764 783.635 483.277V478.527H778.999V483.334C776.91 483.735 774.85 484.708 773.247 486.539C772.074 487.913 770.986 490.231 770.986 493.751V494.065C770.986 497.9 771.988 500.533 774.964 502.536C776.252 503.394 777.683 503.852 778.999 504.11V508.345H783.578V504.224C786.668 503.881 789.387 502.536 790.875 500.332L791.218 499.875L787.298 497.499L786.983 497.957C786.239 498.987 784.093 499.96 781.46 499.96H781.403Z" fill="white"/>
<path d="M39.6455 233.365V227.364C23.2762 227.858 15.1486 240.277 15.1486 260.483C15.1486 281.637 25.9348 293.563 39.6075 293.677V287.372C28.3655 287.334 21.2253 274.915 21.2253 260.483C21.2253 246.05 26.4285 233.365 39.3037 233.365H39.6455ZM67.5605 235.644C75.3464 235.644 77.7011 236.403 79.6001 240.125L84.3855 237.201C81.1952 230.858 75.5742 229.871 67.2567 229.871C56.7363 229.871 55.6729 237.885 55.6729 243.316C55.6729 244.037 55.7109 244.379 55.7109 244.987H50.2418V250.798H55.6729C55.7489 256.381 55.7868 282.777 55.7868 283.726H61.7496C61.7496 283.574 61.6737 256.647 61.6357 250.798H73.2195C75.3464 250.798 76.1439 251.026 76.9415 251.291L78.0429 245.746C76.9035 245.405 75.8781 245.101 71.9282 244.987C69.1557 244.987 64.2183 244.949 61.6357 244.949V243.468C61.6357 239.366 61.9775 235.644 67.5605 235.644ZM120.656 284.106L123.77 279.662C122.251 278.447 120.39 276.624 120.314 274.649V244.987H114.314V270.661C112.87 274.003 110.25 275.143 108.465 276.206C106.528 277.383 104.971 277.687 102.426 277.801C100.869 277.801 98.9317 277.497 98.4 277.118C97.5645 276.51 96.7289 275.522 96.5011 274.231C96.4251 260.331 96.615 248.443 95.7794 244.949L89.7027 245.974C90.7281 249.127 90.4623 265.42 90.5762 275.598C90.5762 278.713 93.1209 280.878 94.8299 282.055C97.1087 283.612 100.337 283.65 102.692 283.65H103.034C108.731 283.536 112.415 280.992 115.605 277.725C116.44 280.992 118.491 282.549 120.656 284.106ZM136.76 248.519C136.456 246.658 136 245.139 135.62 244.227L129.543 245.632C130.455 249.203 130.759 250.19 130.759 256.95V283.764L136.76 283.726V254.862C142.305 252.203 145.951 250.608 148.381 250.608C150.888 250.608 154.572 251.861 154.572 254.672V275.978C154.572 280.878 158.066 282.815 161.408 284.448L164.599 280.194C162.472 279.055 160.573 278.219 160.573 275.712V253.494C160.573 247.835 153.774 244.911 149.217 244.911C145.039 244.911 141.545 246.012 136.76 248.519ZM175.499 263.711C175.499 254.634 179.373 250.874 187.766 250.874C193.843 250.874 194.944 254.482 195.362 256.039L201.211 253.76C200.375 251.785 199.198 249.506 196.881 247.721C194.603 245.974 191.792 245.063 188.184 245.063C176.22 245.063 169.46 249.772 169.46 263.711C169.46 271.269 170.979 277.118 175.917 280.954C179.563 283.688 184.234 283.992 188.184 283.992C198.78 283.992 202.312 277.308 203.566 275.712L198.78 272.256C196.805 275.56 193.957 278.029 188.032 278.029H187.538C183.361 278.029 175.499 277.763 175.499 263.711ZM220.657 267.129C220.809 263.331 220.847 258.47 221.188 250.722C222.935 250.722 223.961 250.608 225.708 250.608H237.747V245.025H237.064C237.064 245.025 231.215 245.063 225.708 245.101H221.074C221.112 242.518 221.15 238.948 221.15 236.441L215.15 236.403C215.15 239.062 215.112 242.632 215.112 245.291H214.542C213.289 245.291 211.579 245.405 210.668 245.746L211.428 251.291C212.415 251.026 213.478 250.874 214.542 250.874H215.074C214.846 258.204 214.77 263.179 214.618 267.129V268.762C214.618 272.028 214.77 274.877 216.099 277.611C218.796 283.232 223.429 283.954 230.417 283.954C233.646 283.954 236.38 283.612 238.583 282.321C242.837 279.852 243.71 276.396 244.09 275.333L239.305 273.206C239.039 273.927 238.355 276.016 236.19 277.156C235.241 277.687 232.81 278.067 230.341 278.067C229.848 278.067 226.923 278.029 226.24 277.953C222.024 277.535 220.657 273.699 220.657 268.648V267.129ZM259.168 230.327V238.872H268.093V230.327H259.168ZM263.118 245.253C259.168 245.253 254.99 245.86 250.737 246.848L251.838 252.241C255.446 251.405 259.776 251.177 261.637 251.177V275.902C261.637 278.143 261.941 281.181 265.169 282.966C266.84 283.878 269.726 284.41 272.955 284.41C277.664 284.41 283.095 283.27 286.361 280.574L283.779 276.244C281.158 278.219 276.449 279.017 272.917 279.017C269.423 279.017 267.751 278.865 267.562 275.75C267.562 275.75 267.524 255.621 267.524 245.253H263.118ZM312.378 275.56C310.479 277.156 308.807 277.763 305.921 277.801C299.578 277.801 296.274 273.32 296.274 265.914C296.274 256.647 298.629 250.38 306.529 250.38C313.251 250.38 315.682 255.925 315.758 262.913V263.597C315.758 269.218 314.846 273.244 312.378 275.56ZM305.845 283.688H305.921C318.15 283.688 321.797 273.927 321.797 263.103C321.797 259.457 321.113 255.165 319.556 252.165C316.897 247.152 312.719 244.531 305.237 244.531C294.147 244.531 290.273 255.013 290.273 266.104C290.273 276.738 295.515 283.65 305.845 283.688ZM338.052 248.519C337.748 246.658 337.292 245.139 336.912 244.227L330.836 245.632C331.747 249.203 332.051 250.19 332.051 256.95V283.764L338.052 283.726V254.862C343.597 252.203 347.243 250.608 349.674 250.608C352.18 250.608 355.864 251.861 355.864 254.672V275.978C355.864 280.878 359.358 282.815 362.701 284.448L365.891 280.194C363.764 279.055 361.865 278.219 361.865 275.712V253.494C361.865 247.835 355.067 244.911 350.509 244.911C346.331 244.911 342.837 246.012 338.052 248.519ZM401.972 233.365V227.364C385.602 227.858 377.475 240.277 377.475 260.483C377.475 281.637 388.261 293.563 401.934 293.677V287.372C390.692 287.334 383.551 274.915 383.551 260.483C383.551 246.05 388.755 233.365 401.63 233.365H401.972ZM440.977 250.95C442.192 249.013 442.572 246.848 442.8 244.987L436.799 245.025C436.647 245.67 436.267 247.076 435.508 248.405C432.849 253.076 430.722 256.723 427.988 260.027C424.873 255.621 420.999 249.886 416.29 243.43L411.353 247.266C416.366 253.874 420.696 259.837 423.886 264.318C417.961 271.459 411.087 280.118 410.783 280.536L415.378 284.41C415.948 283.726 421.911 276.738 427.608 269.332C430.798 273.813 434.748 280.308 437.483 282.093C439.002 283.156 440.521 283.612 442.04 283.612C442.8 283.612 443.635 283.498 444.395 283.384V277.573C443.787 277.687 443.104 277.801 442.42 277.801C441.129 277.801 440.521 277.573 440.369 277.459C439.609 276.966 434.52 269.104 431.558 265.192C434.596 261.128 439.078 254.178 440.977 250.95ZM454.118 233.365H454.46C467.335 233.365 472.538 246.05 472.538 260.483C472.538 274.915 465.398 287.334 454.156 287.372V293.677C467.828 293.563 478.615 281.637 478.615 260.483C478.615 240.277 470.487 227.858 454.118 227.364V233.365ZM499.276 263.597C503.871 264.888 508.732 266.445 508.732 271.535C508.732 272.674 508.467 273.965 507.935 275.484C507.023 277.953 505.922 280.688 505.922 283.384C505.922 285.283 506.492 287.182 508.011 288.967C511.543 293.069 517.202 293.449 522.253 293.677L522.443 287.676C516.936 287.41 512.341 287.486 512.341 283.042C512.341 279.206 514.657 275.674 514.657 271.307C514.657 265.61 510.821 261.432 507.175 260.558C510.821 259.685 514.657 255.507 514.657 249.81C514.657 245.443 512.341 241.91 512.341 238.074C512.341 233.631 516.936 233.631 522.443 233.365L522.253 227.364C517.202 227.592 511.543 228.048 508.011 232.15C506.492 233.935 505.922 235.834 505.922 237.733C505.922 240.429 507.023 243.164 507.935 245.632C508.467 247.152 508.732 248.443 508.732 249.582C508.732 254.672 503.871 256.229 499.276 257.52V263.597ZM545.497 247.266V260.938H531.444V266.863H545.497V281.789H551.384V266.863H566.006V260.938H551.384V247.266H545.497ZM602.011 250.95C603.226 249.013 603.606 246.848 603.834 244.987L597.833 245.025C597.681 245.67 597.301 247.076 596.542 248.405C593.883 253.076 591.756 256.723 589.022 260.027C585.907 255.621 582.033 249.886 577.324 243.43L572.386 247.266C577.4 253.874 581.729 259.837 584.92 264.318C578.995 271.459 572.121 280.118 571.817 280.536L576.412 284.41C576.982 283.726 582.945 276.738 588.642 269.332C591.832 273.813 595.782 280.308 598.516 282.093C600.036 283.156 601.555 283.612 603.074 283.612C603.834 283.612 604.669 283.498 605.429 283.384V277.573C604.821 277.687 604.137 277.801 603.454 277.801C602.163 277.801 601.555 277.573 601.403 277.459C600.643 276.966 595.554 269.104 592.592 265.192C595.63 261.128 600.112 254.178 602.011 250.95ZM639.345 263.597V257.52C634.749 256.229 629.888 254.672 629.888 249.582C629.888 248.443 630.154 247.152 630.685 245.632C631.597 243.164 632.698 240.429 632.698 237.733C632.698 235.834 632.128 233.935 630.609 232.15C627.077 228.048 621.418 227.592 616.367 227.364L616.177 233.365C621.684 233.631 626.28 233.631 626.28 238.074C626.28 241.91 623.963 245.443 623.963 249.81C623.963 255.507 627.799 259.685 631.445 260.558C627.799 261.432 623.963 265.61 623.963 271.307C623.963 275.674 626.28 279.206 626.28 283.042C626.28 287.486 621.684 287.41 616.177 287.676L616.367 293.677C621.418 293.449 627.077 293.069 630.609 288.967C632.128 287.182 632.698 285.283 632.698 283.384C632.698 280.688 631.597 277.953 630.685 275.484C630.154 273.965 629.888 272.674 629.888 271.535C629.888 266.445 634.749 264.888 639.345 263.597ZM681.92 227.402C681.046 227.478 680.704 227.516 677.97 227.63C676.033 227.63 666.766 227.896 663.234 227.896V243.885C663.234 248.861 663.31 255.545 663.31 262.192C663.348 268.99 663.386 273.585 663.386 277.004C663.386 283.84 663.31 286.992 663.31 293.753C666.842 293.753 676.185 293.563 678.426 293.563C681.122 293.563 682.641 293.791 683.591 293.905V287.752C683.059 287.638 680.553 287.41 678.16 287.41H677.666C676.945 287.41 672.957 287.448 669.311 287.562V233.745C675.653 233.593 679.299 233.593 683.135 233.251L681.92 227.402ZM702.885 292.196C699.846 292.196 698.175 290.448 698.175 283.726H692.25C692.25 293.981 696.39 298.006 703.037 298.006C708.696 298.006 711.658 294.246 713.671 289.119C718.684 277.308 722.52 264.774 724.989 251.367C725.331 249.43 725.521 247.266 725.521 244.987H719.52C719.216 253.608 716.709 264.584 713.899 272.826C709.607 260.483 703.454 246.202 697.112 245.253C696.048 245.101 694.149 244.949 692.896 244.949V250.76C694.263 250.76 695.82 250.798 697.074 251.937C702.315 256.647 706.835 268.686 710.405 281.143C708.961 285.169 706.91 292.196 702.885 292.196ZM737.94 227.402L736.725 233.251C740.56 233.593 744.207 233.593 750.549 233.745V287.562C746.903 287.448 742.915 287.41 742.194 287.41H741.7C739.307 287.41 736.8 287.638 736.269 287.752V293.905C737.218 293.791 738.737 293.563 741.434 293.563C743.675 293.563 753.018 293.753 756.55 293.753C756.55 286.992 756.474 283.84 756.474 277.004C756.474 273.585 756.512 268.99 756.55 262.192C756.55 255.545 756.626 248.861 756.626 243.885V227.896C753.094 227.896 743.827 227.63 741.89 227.63C739.155 227.516 738.813 227.478 737.94 227.402ZM785.452 244.987V255.203H794.985V244.987H785.452ZM785.566 273.32V283.536H788.909C788.909 288.777 787.01 291.436 783.515 293.373L785.832 298.652C792.175 295.766 795.365 290.904 795.365 283.422V283.308L795.099 273.32H785.566Z" fill="white"/>
<path d="M12.9434 156.08C13.7023 152.074 16.9487 134.282 17.9605 129.097C20.701 129.012 23.0198 129.012 24.2847 129.012H27.8683C29.7656 129.012 31.8315 129.223 33.2649 129.94C34.2346 127.073 35.2043 124.164 36.174 121.297C34.6141 120.538 31.9579 119.906 28.1635 119.906C23.0198 119.906 24.7906 119.99 19.7313 119.99L21.8815 109.112C29.5969 109.07 31.1569 109.07 35.5416 109.07H38.4929C42.6247 109.112 43.4257 109.66 44.3954 110.251C45.6181 107.384 46.7986 104.559 48.0212 101.692C46.7143 100.975 44.9435 100.259 40.6431 100.259H12.5639C8.98027 118.809 5.35443 137.402 1.77076 155.953C5.48091 155.995 9.23323 156.037 12.9434 156.08ZM59.1517 134.451C61.3862 123.236 66.2347 121.55 69.0174 121.55C71.7157 121.55 74.2032 123.574 75.3837 125.344C74.5826 129.518 73.7394 133.734 72.9383 137.908C71.7157 140.269 66.7407 148.111 62.103 148.111C60.1636 148.111 58.0977 148.069 58.0977 142.968C58.0977 140.986 58.3928 138.246 59.1517 134.451ZM82.2559 142.757C84.1953 132.975 86.0925 123.152 88.0319 113.371L78.3349 112.865C78.0398 114.045 77.7868 115.226 77.4917 116.406C75.8896 114.045 72.3902 112.738 68.9752 112.738C62.8197 112.738 51.9422 116.575 48.738 133.186C47.9791 137.192 47.5996 140.564 47.5996 143.347C47.5996 153.929 52.6168 156.543 58.3085 156.543C65.9818 156.543 70.8303 154.014 74.2453 148.28C74.2032 148.575 74.2032 148.828 74.2032 149.123C74.2032 153.044 76.6063 155.827 78.3349 157.387C80.5694 155.531 82.7618 153.676 84.9963 151.821C83.3521 150.261 82.0451 147.816 82.0451 144.823C82.0451 144.148 82.1294 143.473 82.2559 142.757ZM107.215 121.466C107.299 119.863 107.552 115.563 107.552 113.202C107.552 112.485 107.51 111.937 107.468 111.726C104.095 112.401 100.68 113.075 97.3073 113.75C97.3916 115.099 97.476 116.069 97.476 117.123C97.476 119.147 97.1808 121.339 96.2111 126.314C94.2717 136.222 92.3745 146.172 90.4351 156.08H101.017L105.191 134.831C108.311 129.856 115.099 121.55 119.568 121.55C120.791 121.55 121.255 122.393 121.255 123.869C121.255 124.628 121.128 125.555 120.917 126.609L116.996 146.72C116.87 147.394 116.786 148.069 116.786 148.659C116.786 154.014 121.634 156.628 125.007 157.766C127.199 154.941 129.35 152.159 131.542 149.334C129.687 148.196 127.958 147.352 127.958 145.244C127.958 144.949 127.958 144.696 128.043 144.359C129.476 137.065 130.867 129.813 132.301 122.52C132.469 121.676 132.554 120.833 132.554 120.116C132.554 114.931 128.591 112.823 123.363 112.823C114.846 112.823 111.389 116.659 107.215 121.466ZM175.263 149.966C175.263 149.966 169.908 141.956 169.782 141.956C168.601 143.431 165.229 147.816 158.567 147.816C154.393 147.816 152.243 145.834 152.243 141.365C152.243 140.227 152.369 138.92 152.665 137.444C152.791 136.896 152.875 136.306 153.002 135.758C153.972 131.542 154.435 129.054 156.037 122.056C161.645 122.056 168.264 122.14 174.04 122.14C174.63 119.273 175.263 116.406 175.853 113.539C175.516 113.539 162.404 113.371 157.808 113.371C158.398 110.504 159.242 106.414 159.79 103.631C156.29 103.547 152.749 103.463 149.25 103.378C148.659 106.33 147.816 110.588 147.226 113.539H146.593C145.202 113.539 143.305 113.708 142.209 114.045C141.871 116.912 141.576 119.779 141.239 122.646C142.419 122.309 143.6 122.14 144.78 122.14H145.371C143.811 129.054 143.221 131.795 142.419 135.589L142.04 137.36C141.703 139.004 141.534 140.691 141.534 142.293C141.534 149.882 145.539 156.333 157.007 156.333C165.734 156.333 172.522 151.4 175.263 149.966ZM191.874 132.933C195.416 134.831 202.035 136.728 204.565 138.583C205.956 139.679 206.63 140.733 206.63 142.335C206.63 142.799 206.546 143.305 206.462 143.853C205.829 147.563 200.812 148.406 198.325 148.406C194.53 148.406 192.717 147.226 192.717 144.232C192.717 143.6 192.76 142.925 192.928 142.166H182.261C182.051 143.305 181.924 144.359 181.924 145.371C181.924 152.538 187.321 156.923 196.765 156.923C199.168 156.923 201.74 156.628 204.227 156.08C208.949 154.899 215.822 151.189 217.086 144.359C217.297 143.178 217.424 142.124 217.424 141.112C217.424 132.09 208.443 130.488 199.463 126.525C198.704 125.977 198.451 125.386 198.451 124.67C198.451 124.375 198.493 124.079 198.578 123.7C198.915 122.056 200.433 121.128 203.89 121.128C207.937 121.128 213.671 121.971 217.044 124.164C218.689 121.508 220.375 118.809 222.019 116.153C216.201 113.371 211.268 112.696 205.408 112.696C198.03 112.696 189.513 115.31 187.995 123.152C187.827 124.037 187.742 124.881 187.742 125.639C187.742 129.054 189.345 131.542 191.874 132.933ZM238.462 133.692C240.064 125.555 242.383 121.887 246.093 121.887C251.532 121.887 252.797 124.712 253.977 128.422C253.556 130.404 253.176 132.343 252.754 134.325C249.803 141.323 244.322 148.027 239.895 148.027C238.588 148.027 237.408 146.678 237.408 142.504C237.408 140.354 237.703 137.487 238.462 133.692ZM264.981 124.923C265.065 124.543 265.108 124.206 265.192 123.827C265.867 120.327 267.005 116.828 267.975 114.087C264.855 113.708 261.693 113.371 258.573 112.991C257.982 114.003 257.434 115.605 256.928 117.249C255.073 114.635 251.785 113.455 247.063 113.455C235.469 113.455 229.988 121.55 227.837 132.849C227.121 136.643 226.699 140.101 226.699 143.136C226.699 151.442 229.861 156.501 238.462 156.501C243.479 156.501 248.412 151.99 249.888 150.683C249.382 152.369 248.665 156.122 248.159 157.977C247.737 160.043 247.569 161.94 247.569 163.626C247.569 168.728 249.213 172.269 251.195 175.178C254.188 173.492 257.139 171.763 260.133 170.077C260.006 169.866 259.838 169.571 259.669 169.192C258.994 167.59 258.025 165.987 258.025 162.825C258.025 161.603 258.193 160.127 258.531 158.356C260.681 147.226 262.831 136.053 264.981 124.923ZM302.504 156.796C304.992 154.225 307.521 151.653 310.009 149.081C308.154 148.238 306.13 145.75 306.13 143.642C306.13 143.473 306.13 143.347 306.172 143.178C308.112 133.228 310.051 123.321 311.991 113.371H301.408C300.565 117.798 299.68 122.267 298.836 126.693C297.782 132.048 288.76 147.015 283.532 147.015C281.635 147.015 281.34 146.383 281.34 143.642V143.516C284.164 128.591 286.483 117.713 286.483 113.497V113.075C282.857 113.455 279.189 113.877 275.564 114.256C275.606 114.467 275.606 114.762 275.606 115.057C275.606 118.261 274.088 126.525 272.486 134.831C271.685 138.878 271.094 142.04 270.378 145.497C270.167 146.467 270.083 147.394 270.083 148.196C270.083 155.236 276.828 155.995 282.562 155.995H282.942C289.308 155.869 293.524 150.894 296.813 146.256C298.162 153.929 300.059 155.574 302.504 156.796ZM328.138 133.228C329.529 125.977 333.788 121.592 337.919 121.592C342.473 121.592 343.948 123.953 343.948 126.103C343.948 127.495 342.81 128.928 341.798 129.771C340.576 130.783 333.788 132.554 328.138 133.228ZM339.479 113.033C327.548 113.033 319.495 122.267 317.176 134.325C316.755 136.559 316.544 138.667 316.544 140.649C316.544 150.304 321.73 156.501 331.764 156.501C341.84 156.501 344.244 155.026 351.411 151.231L347.111 143.642C342.979 146.678 338.172 147.816 333.703 147.816C329.698 147.816 327.295 144.78 327.295 142.082C344.033 140.101 351.327 137.107 353.941 130.151C354.32 129.139 354.615 127.326 354.615 125.85C354.615 120.159 351.327 113.033 339.479 113.033ZM414.526 126.483C419.627 129.054 423.253 129.392 427.722 131.542C430.336 132.807 432.571 134.746 432.571 138.203C432.571 138.751 432.529 139.342 432.402 139.974C431.179 146.13 425.403 147.647 422.073 147.647C416.803 147.647 414.526 145.455 414.526 141.365C414.526 140.48 414.652 139.468 414.863 138.372C411.111 138.33 407.401 138.33 403.648 138.288C403.353 139.805 403.185 141.281 403.185 142.715C403.185 150.304 407.696 156.122 420.133 156.459H420.934C431.053 156.459 441.045 152.032 443.406 139.384C443.659 137.993 443.785 136.77 443.785 135.589C443.785 129.645 440.666 126.23 437.208 124.375C432.149 121.803 429.24 121.423 424.434 119.4C422.494 118.599 420.639 117.755 420.639 114.931C420.639 114.467 420.681 113.919 420.808 113.328C421.356 110.462 426.542 108.944 428.65 108.944C431.601 108.944 438.558 109.618 441.973 113.919L449.562 105.824C446.273 102.029 440.244 100.09 430.125 100.09H429.746C418.995 100.09 411.49 104.433 409.467 113.666C409.256 114.635 409.129 115.605 409.129 116.575C409.129 120.791 411.111 124.754 414.526 126.483ZM461.367 134.451C463.601 123.236 468.45 121.55 471.232 121.55C473.93 121.55 476.418 123.574 477.598 125.344C476.797 129.518 475.954 133.734 475.153 137.908C473.93 140.269 468.956 148.111 464.318 148.111C462.378 148.111 460.313 148.069 460.313 142.968C460.313 140.986 460.608 138.246 461.367 134.451ZM484.471 142.757C486.41 132.975 488.307 123.152 490.247 113.371L480.55 112.865C480.255 114.045 480.002 115.226 479.707 116.406C478.104 114.045 474.605 112.738 471.19 112.738C465.035 112.738 454.157 116.575 450.953 133.186C450.194 137.192 449.814 140.564 449.814 143.347C449.814 153.929 454.832 156.543 460.523 156.543C468.197 156.543 473.045 154.014 476.46 148.28C476.418 148.575 476.418 148.828 476.418 149.123C476.418 153.044 478.821 155.827 480.55 157.387C482.784 155.531 484.977 153.676 487.211 151.821C485.567 150.261 484.26 147.816 484.26 144.823C484.26 144.148 484.344 143.473 484.471 142.757ZM509.43 121.466C509.514 119.863 509.767 115.563 509.767 113.202C509.767 112.485 509.725 111.937 509.683 111.726C506.31 112.401 502.895 113.075 499.522 113.75C499.606 115.099 499.691 116.069 499.691 117.123C499.691 119.147 499.396 121.339 498.426 126.314C496.487 136.222 494.589 146.172 492.65 156.08H503.232L507.406 134.831C510.526 129.856 517.314 121.55 521.783 121.55C523.006 121.55 523.47 122.393 523.47 123.869C523.47 124.628 523.343 125.555 523.132 126.609L519.211 146.72C519.085 147.394 519 148.069 519 148.659C519 154.014 523.849 156.628 527.222 157.766C529.414 154.941 531.564 152.159 533.757 149.334C531.902 148.196 530.173 147.352 530.173 145.244C530.173 144.949 530.173 144.696 530.257 144.359C531.691 137.065 533.082 129.813 534.516 122.52C534.684 121.676 534.769 120.833 534.769 120.116C534.769 114.931 530.806 112.823 525.578 112.823C517.061 112.823 513.604 116.659 509.43 121.466ZM549.398 132.933C552.94 134.831 559.559 136.728 562.089 138.583C563.48 139.679 564.155 140.733 564.155 142.335C564.155 142.799 564.07 143.305 563.986 143.853C563.354 147.563 558.337 148.406 555.849 148.406C552.055 148.406 550.242 147.226 550.242 144.232C550.242 143.6 550.284 142.925 550.452 142.166H539.786C539.575 143.305 539.449 144.359 539.449 145.371C539.449 152.538 544.845 156.923 554.289 156.923C556.692 156.923 559.264 156.628 561.752 156.08C566.474 154.899 573.346 151.189 574.611 144.359C574.821 143.178 574.948 142.124 574.948 141.112C574.948 132.09 565.968 130.488 556.987 126.525C556.229 125.977 555.976 125.386 555.976 124.67C555.976 124.375 556.018 124.079 556.102 123.7C556.439 122.056 557.957 121.128 561.414 121.128C565.462 121.128 571.196 121.971 574.569 124.164C576.213 121.508 577.899 118.809 579.544 116.153C573.725 113.371 568.792 112.696 562.932 112.696C555.554 112.696 547.037 115.31 545.52 123.152C545.351 124.037 545.267 124.881 545.267 125.639C545.267 129.054 546.869 131.542 549.398 132.933ZM635.955 100.301C632.329 118.894 628.745 137.487 625.119 156.08H635.66C637.304 147.69 638.906 139.342 640.55 130.952C641.478 126.188 641.689 118.219 641.689 118.219C643.038 121.634 645.146 132.933 645.146 132.933C647.254 132.891 649.362 132.891 651.47 132.849C652.229 131.289 656.74 123.405 660.408 118.219C660.408 118.219 657.71 126.567 656.867 130.952C655.264 139.342 653.662 147.69 652.06 156.08H662.474C662.474 156.08 669.979 117.081 673.225 100.301H664.118C659.607 105.908 654.253 113.244 650.5 120.917C649.404 113.075 646.832 105.107 644.556 100.301H635.955ZM695.57 145.666C693.757 147.184 692.535 147.732 690.216 147.774C686.253 147.774 684.355 144.738 684.355 140.101C684.355 138.794 684.524 137.318 684.819 135.758C686.506 126.989 689.541 121.086 695.908 121.086C699.786 121.086 701.093 123.827 701.093 127.79C701.093 129.392 700.883 131.163 700.545 133.06C700.503 133.313 700.461 133.481 700.419 133.734C699.449 139.089 697.973 143.473 695.57 145.666ZM688.529 156.333H688.614C702.78 156.333 708.935 145.202 711.338 133.186C711.76 131.12 711.971 128.928 711.971 126.778C711.971 124.67 711.76 122.688 711.212 121.044C709.357 115.479 705.267 112.57 696.962 112.57C684.651 112.57 677.062 120.875 674.026 136.517C673.604 138.667 673.394 140.691 673.394 142.546C673.394 150.978 677.821 156.333 688.529 156.333ZM732.883 121.466C732.967 119.863 733.22 115.563 733.22 113.202C733.22 112.485 733.178 111.937 733.136 111.726C729.763 112.401 726.348 113.075 722.975 113.75C723.059 115.099 723.143 116.069 723.143 117.123C723.143 119.147 722.848 121.339 721.879 126.314C719.939 136.222 718.042 146.172 716.103 156.08H726.685L730.859 134.831C733.979 129.856 740.767 121.55 745.236 121.55C746.458 121.55 746.922 122.393 746.922 123.869C746.922 124.628 746.796 125.555 746.585 126.609L742.664 146.72C742.537 147.394 742.453 148.069 742.453 148.659C742.453 154.014 747.302 156.628 750.675 157.766C752.867 154.941 755.017 152.159 757.209 149.334C755.354 148.196 753.626 147.352 753.626 145.244C753.626 144.949 753.626 144.696 753.71 144.359C755.144 137.065 756.535 129.813 757.968 122.52C758.137 121.676 758.221 120.833 758.221 120.116C758.221 114.931 754.258 112.823 749.03 112.823C740.514 112.823 737.057 116.659 732.883 121.466ZM784.951 145.666C783.138 147.184 781.916 147.732 779.597 147.774C775.634 147.774 773.737 144.738 773.737 140.101C773.737 138.794 773.905 137.318 774.2 135.758C775.887 126.989 778.922 121.086 785.289 121.086C789.167 121.086 790.474 123.827 790.474 127.79C790.474 129.392 790.264 131.163 789.926 133.06C789.884 133.313 789.842 133.481 789.8 133.734C788.83 139.089 787.355 143.473 784.951 145.666ZM777.91 156.333H777.995C792.161 156.333 798.316 145.202 800.72 133.186C801.141 131.12 801.352 128.928 801.352 126.778C801.352 124.67 801.141 122.688 800.593 121.044C798.738 115.479 794.648 112.57 786.343 112.57C774.032 112.57 766.443 120.875 763.407 136.517C762.986 138.667 762.775 140.691 762.775 142.546C762.775 150.978 767.202 156.333 777.91 156.333Z" fill="white"/>
<path d="M9.93248 333.852V423.536H26.8795V383.134C26.8795 375.474 24.7103 362.662 24.7103 362.662C27.9641 368.153 34.8785 386.32 34.8785 386.32L45.0467 386.184C45.7924 383.676 50.5375 371 54.8082 362.662C54.8082 362.662 53.1135 376.084 53.1135 383.134L53.2491 423.536H69.9927C69.9927 423.536 69.8571 360.832 69.8571 333.852H55.2149C49.7241 342.868 43.4198 354.663 39.7592 367C35.5564 354.392 28.9131 341.58 23.7612 333.852H9.93248ZM101.311 324.429C91.7527 324.429 86.9397 331.818 84.7027 338.123L97.1757 343.41C97.7858 339.139 100.294 336.631 103.141 336.631C109.988 336.631 111.411 345.444 124.833 345.444C135.815 345.444 139.747 336.767 141.17 330.259L129.172 326.599C128.765 331.276 126.731 333.377 123.342 333.377C117.241 333.377 115.953 324.429 101.311 324.429ZM119.953 406.792C117.512 409.232 115.75 410.114 112.021 410.181C103.819 410.181 99.5483 402.115 99.5483 390.862C99.5483 376.762 102.599 367.272 112.835 367.272C121.512 367.272 123.884 375.881 124.02 386.523V387.608C124.02 396.217 123.139 403.267 119.953 406.792ZM111.954 423.942H112.089C134.866 423.942 141.374 406.046 141.374 386.727C141.374 380.219 140.153 372.559 137.374 367.204C132.629 358.256 125.172 353.578 111.818 353.578C92.0238 353.578 82.4657 366.933 82.4657 392.082C82.4657 411.063 90.9392 423.942 111.954 423.942ZM118.393 307.005V323.275L137.51 323.342V307.209L118.393 307.005ZM89.9224 307.005V323.275H108.835V307.005H89.9224ZM172.353 360.696C171.878 357.374 170.455 353.849 169.777 352.223L154.05 355.476C155.677 361.848 156.219 363.611 156.219 375.677V423.536H173.234V375.609C178.996 370.593 186.181 368.017 190.452 368.017C194.994 368.017 196.011 371.135 196.011 376.152V408.487C196.011 419.197 205.908 424.214 212.348 426.247L220.211 412.69C216.415 410.656 213.026 409.165 213.026 404.691V369.576C213.026 358.459 203.806 353.985 192.689 353.985C185.232 353.985 176.149 357.307 172.353 360.696ZM174.522 326.599L174.59 343.275H193.909L193.774 326.599H174.522ZM221.296 392.299V377.861H233.096C234.485 367.68 238.326 359.905 244.619 354.537C251.005 349.076 259.335 346.346 269.609 346.346C279.142 346.346 287.147 349.076 293.626 354.537C300.197 359.905 304.177 367.68 305.566 377.861H317.505V392.299H305.704C304.594 402.757 300.799 410.81 294.32 416.455C287.842 422.101 279.465 424.924 269.192 424.924C259.567 424.924 251.422 422.101 244.758 416.455C238.187 410.81 234.299 402.757 233.096 392.299H221.296ZM269.331 363.006C264.888 363.006 261.418 364.255 258.919 366.754C256.512 369.161 254.985 372.863 254.337 377.861H284.463C283.815 372.863 282.242 369.161 279.743 366.754C277.337 364.255 273.866 363.006 269.331 363.006ZM269.47 408.264C274.097 408.264 277.614 406.922 280.021 404.238C282.427 401.554 283.954 397.574 284.602 392.299H254.198C254.846 397.574 256.373 401.554 258.78 404.238C261.279 406.922 264.842 408.264 269.47 408.264ZM388.08 329.964L381.278 346.346C376.743 344.495 372.67 343.061 369.061 342.042C365.451 341.024 361.749 340.515 357.954 340.515C353.975 340.515 350.92 341.441 348.792 343.292C346.663 345.143 345.598 347.549 345.598 350.511C345.598 354.028 347.172 356.805 350.319 358.841C353.466 360.877 358.139 363.376 364.341 366.338C369.431 368.744 373.735 371.243 377.252 373.835C380.861 376.426 383.638 379.48 385.582 382.997C387.525 386.514 388.497 390.864 388.497 396.047C388.497 403.914 385.952 410.393 380.861 415.484C375.863 420.481 368.644 423.489 359.204 424.507C358.926 424.6 358.417 424.646 357.677 424.646C358.325 425.572 358.926 426.451 359.481 427.284C360.037 428.117 360.546 429.043 361.009 430.061C362.86 434.226 364.942 436.956 367.256 438.252C369.57 439.64 372.393 440.334 375.725 440.334C377.298 440.334 378.918 440.149 380.584 439.779C382.25 439.501 383.823 438.992 385.304 438.252V454.217C383.638 454.958 381.463 455.559 378.779 456.022C376.095 456.485 373.503 456.716 371.004 456.716C364.988 456.716 360.129 455.79 356.427 453.939C352.818 452.088 349.856 449.497 347.542 446.165C345.321 442.926 343.238 439.177 341.295 434.92C339.721 431.403 338.148 428.626 336.575 426.59C335.001 424.554 332.502 422.749 329.078 421.176C328.152 420.805 327.273 420.481 326.44 420.204C325.607 419.834 324.774 419.417 323.941 418.954V399.379C328.661 401.415 333.52 403.313 338.518 405.071C343.609 406.737 348.653 407.57 353.651 407.57C358.834 407.57 362.489 406.598 364.618 404.655C366.839 402.619 367.95 400.073 367.95 397.019C367.95 394.52 367.071 392.391 365.312 390.633C363.646 388.874 361.379 387.255 358.51 385.774C355.641 384.2 352.355 382.535 348.653 380.776C346.339 379.665 343.84 378.37 341.156 376.889C338.472 375.315 335.88 373.418 333.381 371.197C330.975 368.883 328.985 366.106 327.412 362.867C325.838 359.628 325.052 355.74 325.052 351.205C325.052 342.32 328.06 335.425 334.076 330.52C340.092 325.522 348.283 323.023 358.648 323.023C363.831 323.023 368.737 323.624 373.364 324.828C377.992 326.031 382.897 327.743 388.08 329.964ZM447.053 346.346C452.791 346.346 457.789 347.827 462.046 350.789C466.304 353.658 469.636 357.73 472.042 363.006C474.449 368.189 475.652 374.297 475.652 381.331C475.652 388.55 473.94 395.307 470.515 401.601C467.183 407.894 461.815 413.216 454.411 417.566C447.099 421.916 437.474 424.785 425.534 426.173V456.855H404.849V347.734H421.647L424.562 357.591H425.534C427.57 354.537 430.301 351.899 433.725 349.678C437.15 347.457 441.592 346.346 447.053 346.346ZM440.389 362.867C435.021 362.867 431.18 364.625 428.866 368.142C426.645 371.567 425.534 376.704 425.534 383.553V408.542C434.327 407.431 441.361 404.423 446.636 399.518C451.912 394.613 454.55 388.458 454.55 381.054C454.55 375.871 453.393 371.567 451.079 368.142C448.765 364.625 445.202 362.867 440.389 362.867ZM515.699 333.106C510.615 333.106 505.328 330.869 503.498 322.938L488.652 324.972C491.906 340.224 500.854 345.512 516.106 345.512C532.375 345.512 541.12 337.58 542.747 325.582L527.901 323.548C527.495 328.836 523.021 333.106 515.699 333.106ZM503.43 402.047C503.43 394.59 510.819 391.675 515.293 391.675C519.631 391.675 524.241 393.98 526.681 396.827V400.013C525.461 403.809 519.902 410.724 512.446 410.724C508.107 410.724 503.43 408.69 503.43 402.047ZM544.035 402.115V379.134C544.035 363.001 530.545 353.849 515.293 353.849C503.226 354.053 499.091 353.917 487.296 361.374L495.566 375.474C500.583 370.186 506.955 367.949 514.75 367.949C518.818 367.949 526.681 370.051 526.681 381.304C524.105 379.541 519.631 378.118 515.293 378.118C505.667 378.118 498.142 380.355 491.702 386.93C487.703 391.065 485.669 396.963 485.669 403.064C485.669 415.401 497.397 424.281 508.988 424.281C521.326 424.281 526.884 421.977 532.036 416.689C534.883 421.57 537.188 422.315 540.713 425.027L549.187 414.927C545.323 411.876 544.035 408.351 544.035 402.115ZM590.605 345.986L616.229 326.26L606.874 315.685L590.605 329.31L575.556 316.498L565.795 325.853L590.605 345.986ZM576.234 387.744C576.234 378.05 580.776 368.831 590.741 368.831C600.231 368.831 602.333 373.237 603.01 375.813L617.924 368.898C616.432 365.373 613.314 361.374 609.247 358.662C604.976 355.815 598.401 354.527 591.961 354.527C570.608 354.527 558.541 364.763 558.541 387.811C558.541 401.301 561.253 411.741 570.065 418.587C576.573 423.468 584.911 424.01 591.961 424.01C606.739 424.01 615.687 419.062 620.296 408.893L604.976 399.81C601.722 405.301 598.062 409.775 591.283 409.775H590.47C587.284 409.775 576.234 409.368 576.234 387.744ZM625.723 396.464C625.723 390.17 627.713 385.172 631.692 381.47C635.765 377.675 641.272 375.778 648.213 375.778C650.62 375.778 652.933 375.871 655.155 376.056C657.376 376.241 659.875 376.426 662.651 376.611C664.225 366.523 668.112 358.98 674.313 353.982C680.607 348.891 688.428 346.346 697.775 346.346C708.234 346.346 716.518 349.354 722.626 355.37C728.735 361.294 731.789 369.762 731.789 380.776V390.772H682.921C683.106 396.603 684.818 401.184 688.057 404.516C691.389 407.848 695.971 409.514 701.802 409.514C706.707 409.514 711.149 409.051 715.129 408.126C719.109 407.107 723.228 405.58 727.485 403.544V419.51C723.783 421.361 719.849 422.703 715.685 423.536C711.612 424.461 706.661 424.924 700.83 424.924C693.611 424.924 687.178 423.674 681.532 421.176C675.979 418.677 671.49 414.882 668.066 409.791C664.641 404.608 662.651 398.083 662.096 390.216C659.69 390.124 657.468 389.985 655.432 389.8C653.489 389.615 651.406 389.522 649.185 389.522C646.501 389.522 644.418 390.17 642.938 391.466C641.549 392.762 640.855 394.335 640.855 396.186C640.855 398.407 641.596 400.12 643.076 401.323C644.557 402.526 646.316 403.128 648.352 403.128C650.666 403.128 652.795 402.757 654.738 402.017V415.761C654.09 415.946 653.072 416.178 651.684 416.455C650.296 416.733 648.352 416.872 645.853 416.872C639.559 416.872 634.608 414.928 630.998 411.041C627.481 407.061 625.723 402.202 625.723 396.464ZM697.914 361.062C693.935 361.062 690.603 362.358 687.919 364.949C685.234 367.541 683.707 371.567 683.337 377.028H712.353C712.26 372.492 711.057 368.698 708.743 365.644C706.429 362.589 702.82 361.062 697.914 361.062ZM756.957 391.133C756.957 373.305 761.567 368.424 767.397 368.424C772.006 368.424 775.87 373.508 777.972 377.236V399.878C774.718 406.792 770.244 411.808 766.38 411.808C759.533 411.808 756.957 404.013 756.957 391.133ZM740.756 392.421C740.756 413.232 748.213 424.01 764.143 424.01C772.006 424.01 777.022 420.824 779.463 417.231C779.463 420.078 782.31 424.417 782.31 424.417L794.783 423.061C794.173 418.587 793.495 412.69 793.495 407.063V405.436C793.495 388.557 793.631 364.085 793.631 345.105C793.631 338.733 794.105 333.039 794.58 328.429L778.853 327.819C778.31 332.767 777.972 339.275 777.972 345.444C777.972 351.545 778.31 355.273 779.463 360.493C777.09 358.595 772.481 354.866 765.227 354.866C748.484 354.866 740.756 366.594 740.756 392.421ZM812.476 331.073L800.138 327.819C799.054 334.937 797.63 344.698 796.681 354.527L806.714 356.832C809.086 346.393 810.442 338.868 812.476 331.073Z" fill="white"/>
</svg>
