<svg width="156" height="43" viewBox="0 0 156 43" fill="none" xmlns="http://www.w3.org/2000/svg">
<path d="M155.298 18.3754C155.782 17.3823 155.369 16.1853 154.375 15.7018L138.191 7.82274C137.198 7.33925 136.001 7.75239 135.518 8.74551C135.034 9.73864 135.447 10.9357 136.441 11.4192L150.826 18.4228L143.823 32.8085C143.339 33.8016 143.752 34.9987 144.746 35.4822C145.739 35.9657 146.936 35.5525 147.419 34.5594L155.298 18.3754ZM0.352985 2.63461C1.26666 3.96091 1.52165 6.01091 1.67579 9.18301C1.81995 12.1496 1.88492 15.8614 2.90883 19.5919C3.9544 23.4012 5.99466 27.2531 10.0447 30.6628C14.0595 34.0428 19.9428 36.8994 28.5368 38.9456L29.4632 35.0544C21.2572 33.1006 16.0113 30.4572 12.6209 27.6028C9.26576 24.7782 7.62477 21.6613 6.76617 18.5331C5.88591 15.3261 5.8238 12.1316 5.67108 8.98887C5.52835 6.05159 5.31668 2.78909 3.64702 0.36539L0.352985 2.63461ZM28.5368 38.9456C62.7662 47.0955 97.6802 38.881 154.152 19.3906L152.848 15.6094C96.3198 35.119 62.4338 42.9045 29.4632 35.0544L28.5368 38.9456Z" fill="white"/>
</svg>
