<svg width="654" height="221" viewBox="0 0 654 221" fill="none" xmlns="http://www.w3.org/2000/svg">
<path d="M92.5867 178.076L100.967 166.12C96.8788 162.849 91.8714 157.944 91.667 152.63V72.8175H75.5205V141.9C71.6372 150.893 64.5859 153.959 59.7828 156.82C54.571 159.988 50.3811 160.806 43.5341 161.112C39.3442 161.112 34.1324 160.295 32.7017 159.273C30.4535 157.638 28.2052 154.981 27.5921 151.506C27.3877 114.103 27.8986 82.1171 25.6504 72.7153L9.29955 75.4745C12.0588 83.9565 11.3434 127.797 11.65 155.185C11.65 163.565 18.4969 169.39 23.0956 172.558C29.2271 176.748 37.9135 176.85 44.2495 176.85H45.1692C60.4982 176.543 70.4109 169.696 78.9951 160.908C81.2433 169.696 86.7617 173.886 92.5867 178.076Z" fill="white" fill-opacity="0.8"/>
<path d="M132.827 145.272C132.827 133.213 144.988 125.651 158.887 125.549C169.515 125.549 177.077 128.513 182.902 132.089V141.798C180.245 145.988 169.515 162.134 148.054 162.134C138.55 162.134 132.827 156.002 132.827 145.272ZM198.946 144.557V110.833C198.946 87.8399 183.004 72 158.273 72C139.981 72 126.287 78.1315 116.476 96.7306L129.762 105.11C137.937 90.4969 144.375 87.4311 158.478 87.4311C175.851 87.4311 182.902 96.7306 182.902 116.045C177.383 112.673 170.945 110.833 158.069 110.833C146.01 110.833 135.689 113.286 125.98 123.199C119.951 129.432 116.885 138.528 116.885 146.294C116.885 163.258 130.579 177.667 148.054 177.667C168.186 177.667 178.61 168.777 186.581 161.112C188.42 171.434 194.552 173.988 199.866 178.076L208.348 165.915C205.384 163.565 201.603 161.214 200.275 159.375C198.946 157.638 198.946 148.134 198.946 144.557Z" fill="white" fill-opacity="0.8"/>
<path d="M293.349 118.191V155.798C293.349 168.777 300.911 174.193 309.087 178.791L318.08 166.835C311.948 162.849 309.291 159.886 309.291 154.265C309.291 142.82 309.393 134.951 309.393 118.191V111.446C309.393 100.205 308.882 92.2342 301.524 83.5478C293.451 73.7373 282.21 72.8175 269.845 72.8175C259.421 72.8175 252.063 76.803 245.42 80.9929V33.7799H229.172C229.172 33.7799 229.274 104.702 229.274 156.207C229.274 164.076 228.967 168.879 228.15 176.237L244.296 177.054C244.807 172.353 245.318 164.893 245.318 156.82V102.351C248.486 96.0153 258.808 88.453 269.129 88.453C289.67 88.453 293.349 94.9934 293.349 118.191Z" fill="white" fill-opacity="0.8"/>
<path d="M386.628 119.213C383.869 119.213 380.701 118.702 376.919 117.885C371.912 116.76 365.269 115.228 356.685 113.899V104.702C364.248 99.592 372.321 94.9934 382.438 90.1903C385.81 88.5552 388.672 87.9421 391.124 87.9421C397.562 87.9421 400.833 92.4385 401.854 95.8109C402.365 97.3438 402.57 99.0811 402.57 100.921C402.57 109.914 396.949 119.213 386.628 119.213ZM356.685 87.1245V44.9189C356.685 38.1741 354.846 33.5755 353.926 31.225L338.291 35.7215C339.619 39.9114 340.641 45.3276 340.641 51.5614V177.054H356.685C356.685 173.682 356.583 168.981 356.583 163.871C356.583 148.542 356.787 129.126 356.787 129.126C369.459 130.556 392.453 137.914 397.562 152.732C400.322 160.806 403.898 172.864 416.468 178.996L425.052 167.959C421.68 165.506 419.023 163.36 416.57 159.375C411.154 150.382 411.358 138.119 401.344 130.659C411.869 125.651 417.183 115.228 417.797 111.753C418.308 109.096 418.614 105.621 418.614 102.249C418.614 99.2855 418.41 96.2197 418.103 93.8692C416.672 81.7083 404.103 73.2263 390.205 73.2263C379.372 73.2263 364.043 82.1171 356.685 87.1245Z" fill="white" fill-opacity="0.8"/>
<path d="M463.249 82.3214C462.431 77.314 461.205 73.2263 460.183 70.7737L443.832 74.5548C446.285 84.1609 447.102 86.8179 447.102 105.008V177.156L463.249 177.054V99.3877C478.169 92.2342 487.98 87.9421 494.52 87.9421C501.265 87.9421 511.177 91.3144 511.177 98.8767V156.207C511.177 169.39 520.579 174.602 529.572 178.996L538.156 167.55C532.433 164.484 527.324 162.236 527.324 155.492V95.7087C527.324 80.482 509.031 72.6131 496.768 72.6131C485.527 72.6131 476.125 75.5767 463.249 82.3214Z" fill="white" fill-opacity="0.8"/>
<path d="M622.749 72.2044C613.347 72.2044 607.011 79.3579 602.617 87.4311C602.617 80.2776 596.792 72.2044 586.879 72.2044C579.419 72.2044 570.528 79.2557 565.827 87.4311C565.623 82.7302 564.192 73.3285 562.659 70.0583L547.33 74.146C549.068 79.1535 550.396 84.2631 550.396 93.767L550.703 177.054H565.112V106.439C571.448 92.5407 578.499 87.8399 583.404 87.8399C588.105 87.8399 588.31 91.8254 588.31 94.6868V177.054H602.719V106.337C609.055 92.5407 614.369 87.8399 619.274 87.8399C625.406 87.8399 625.814 94.4824 625.814 98.0591V99.3877V157.331V157.535C625.814 171.945 636.034 177.77 643.289 179.2L649.523 165.609C645.333 163.974 640.121 160.192 640.121 154.981V101.534C640.121 91.8254 637.567 72.2044 622.749 72.2044Z" fill="white" fill-opacity="0.8"/>
<mask id="mask0_401_2" style="mask-type:alpha" maskUnits="userSpaceOnUse" x="116" y="71" width="93" height="107">
<path d="M132.648 144.515C132.648 132.456 144.809 124.894 158.708 124.792C169.336 124.792 176.898 127.756 182.723 131.332V141.041C180.066 145.231 169.336 161.377 147.875 161.377C138.371 161.377 132.648 155.245 132.648 144.515ZM198.767 143.8V110.076C198.767 87.0828 182.825 71.2429 158.094 71.2429C139.802 71.2429 126.108 77.3745 116.298 95.9736L129.583 104.353C137.758 89.7398 144.196 86.674 158.299 86.674C175.672 86.674 182.723 95.9736 182.723 115.288C177.204 111.916 170.766 110.076 157.89 110.076C145.831 110.076 135.51 112.529 125.801 122.442C119.772 128.675 116.706 137.77 116.706 145.537C116.706 162.501 130.4 176.91 147.875 176.91C168.007 176.91 178.431 168.02 186.402 160.355C188.241 170.677 194.373 173.231 199.687 177.319L208.169 165.158C205.205 162.808 201.424 160.457 200.096 158.618C198.767 156.881 198.767 147.377 198.767 143.8Z" fill="black"/>
</mask>
<g mask="url(#mask0_401_2)">
<mask id="path-8-inside-1_401_2" fill="white">
<path fill-rule="evenodd" clip-rule="evenodd" d="M198.767 142.765V143.8V143.8C198.767 147.377 198.767 156.88 200.096 158.618C201.001 159.872 203.047 161.364 205.197 162.931C206.2 163.662 207.226 164.41 208.169 165.158L199.687 177.319C198.818 176.651 197.927 176.023 197.037 175.396C192.538 172.228 188.052 169.067 186.46 160.67C188.716 158.87 190.741 157.179 192.085 155.835C194.395 153.524 198.796 146.703 198.686 142.633L198.767 142.765ZM176.26 168.8C179.19 166.838 181.741 164.691 184.058 162.564C183.333 163.13 182.602 163.698 181.876 164.262C179.86 165.828 177.89 167.359 176.243 168.706L176.26 168.8Z"/>
</mask>
<path fill-rule="evenodd" clip-rule="evenodd" d="M198.767 142.765V143.8V143.8C198.767 147.377 198.767 156.88 200.096 158.618C201.001 159.872 203.047 161.364 205.197 162.931C206.2 163.662 207.226 164.41 208.169 165.158L199.687 177.319C198.818 176.651 197.927 176.023 197.037 175.396C192.538 172.228 188.052 169.067 186.46 160.67C188.716 158.87 190.741 157.179 192.085 155.835C194.395 153.524 198.796 146.703 198.686 142.633L198.767 142.765ZM176.26 168.8C179.19 166.838 181.741 164.691 184.058 162.564C183.333 163.13 182.602 163.698 181.876 164.262C179.86 165.828 177.89 167.359 176.243 168.706L176.26 168.8Z" fill="#1E2021"/>
<path d="M198.767 142.765H200.087V142.392L199.892 142.074L198.767 142.765ZM200.096 158.618L201.166 157.845L201.155 157.83L201.144 157.816L200.096 158.618ZM205.197 162.931L205.975 161.864L205.197 162.931ZM208.169 165.158L209.252 165.913L209.962 164.895L208.989 164.124L208.169 165.158ZM199.687 177.319L198.882 178.365L199.978 179.209L200.77 178.074L199.687 177.319ZM197.037 175.396L197.797 174.317L197.037 175.396ZM186.46 160.67L185.636 159.638L185.014 160.134L185.163 160.916L186.46 160.67ZM198.686 142.633L199.811 141.942L197.233 137.746L197.366 142.668L198.686 142.633ZM176.26 168.8L174.96 169.032L175.315 171.021L176.994 169.897L176.26 168.8ZM184.058 162.564L184.951 163.536L183.245 161.523L184.058 162.564ZM181.876 164.262L181.066 163.219H181.066L181.876 164.262ZM176.243 168.706L175.407 167.684L174.807 168.175L174.943 168.938L176.243 168.706ZM200.087 143.8V142.765H197.447V143.8H200.087ZM200.087 143.8V143.8H197.447V143.8H200.087ZM201.144 157.816C201.145 157.816 201.116 157.777 201.07 157.673C201.026 157.572 200.976 157.435 200.924 157.257C200.819 156.899 200.72 156.432 200.632 155.868C200.455 154.741 200.333 153.329 200.251 151.827C200.087 148.827 200.087 145.592 200.087 143.8H197.447C197.447 145.585 197.447 148.889 197.615 151.971C197.699 153.509 197.826 155.022 198.023 156.277C198.122 156.904 198.241 157.493 198.39 158.001C198.531 158.481 198.732 159.007 199.047 159.42L201.144 157.816ZM205.975 161.864C204.893 161.075 203.873 160.332 203.012 159.632C202.135 158.92 201.511 158.323 201.166 157.845L199.025 159.391C199.585 160.166 200.438 160.943 201.347 161.682C202.273 162.433 203.352 163.219 204.419 163.998L205.975 161.864ZM208.989 164.124C208.021 163.356 206.973 162.592 205.975 161.864L204.419 163.998C205.427 164.732 206.43 165.464 207.348 166.192L208.989 164.124ZM200.77 178.074L209.252 165.913L207.086 164.403L198.604 176.564L200.77 178.074ZM196.277 176.476C197.171 177.105 198.039 177.717 198.882 178.365L200.492 176.273C199.597 175.585 198.684 174.942 197.797 174.317L196.277 176.476ZM185.163 160.916C185.999 165.327 187.613 168.427 189.649 170.844C191.658 173.231 194.045 174.904 196.277 176.476L197.797 174.317C195.53 172.72 193.425 171.229 191.668 169.144C189.938 167.089 188.512 164.41 187.757 160.424L185.163 160.916ZM191.152 154.901C189.865 156.187 187.892 157.839 185.636 159.638L187.283 161.702C189.539 159.902 191.617 158.17 193.019 156.768L191.152 154.901ZM197.366 142.668C197.411 144.325 196.498 146.779 195.136 149.258C193.8 151.69 192.192 153.86 191.152 154.901L193.019 156.768C194.288 155.498 196.036 153.103 197.45 150.529C198.839 148.002 200.071 145.011 200.006 142.597L197.366 142.668ZM199.892 142.074L199.811 141.942L197.561 143.324L197.642 143.456L199.892 142.074ZM176.994 169.897C180 167.885 182.605 165.69 184.951 163.536L183.165 161.591C180.877 163.692 178.381 165.791 175.525 167.703L176.994 169.897ZM183.245 161.523C182.522 162.088 181.792 162.655 181.066 163.219L182.686 165.304C183.411 164.741 184.144 164.171 184.87 163.604L183.245 161.523ZM181.066 163.219C179.054 164.783 177.069 166.324 175.407 167.684L177.079 169.728C178.71 168.393 180.666 166.873 182.686 165.304L181.066 163.219ZM174.943 168.938L174.96 169.032L177.559 168.568L177.543 168.474L174.943 168.938Z" fill="white" fill-opacity="0.8" mask="url(#path-8-inside-1_401_2)"/>
</g>
<mask id="mask1_401_2" style="mask-type:alpha" maskUnits="userSpaceOnUse" x="9" y="72" width="92" height="107">
<path d="M92.5867 178.076L100.967 166.12C96.8788 162.849 91.8714 157.944 91.667 152.63V72.8175H75.5205V141.9C71.6372 150.893 64.5859 153.959 59.7828 156.82C54.571 159.988 50.3811 160.806 43.5341 161.112C39.3442 161.112 34.1324 160.295 32.7017 159.273C30.4535 157.638 28.2052 154.981 27.5921 151.506C27.3877 114.103 27.8986 82.1171 25.6504 72.7153L9.29955 75.4745C12.0588 83.9565 11.3434 127.797 11.65 155.185C11.65 163.565 18.4969 169.39 23.0956 172.558C29.2271 176.748 37.9135 176.85 44.2495 176.85H45.1692C60.4982 176.543 70.4109 169.696 78.9951 160.908C81.2433 169.696 86.7617 173.886 92.5867 178.076Z" fill="black"/>
</mask>
<g mask="url(#mask1_401_2)">
<mask id="path-11-inside-2_401_2" fill="white">
<path fill-rule="evenodd" clip-rule="evenodd" d="M100.967 165.362L92.5867 177.319C86.7618 173.129 81.2433 168.939 78.9951 160.151C75.7793 163.443 72.3771 166.463 68.5735 168.968L68.5267 168.706C73.3673 164.746 82.4455 157.22 85.8113 153.854C88.1216 151.544 91.532 143.733 91.422 139.662L91.667 140.127V151.873C91.8714 157.187 96.8788 162.092 100.967 165.362Z"/>
</mask>
<path fill-rule="evenodd" clip-rule="evenodd" d="M100.967 165.362L92.5867 177.319C86.7618 173.129 81.2433 168.939 78.9951 160.151C75.7793 163.443 72.3771 166.463 68.5735 168.968L68.5267 168.706C73.3673 164.746 82.4455 157.22 85.8113 153.854C88.1216 151.544 91.532 143.733 91.422 139.662L91.667 140.127V151.873C91.8714 157.187 96.8788 162.092 100.967 165.362Z" fill="#1E2021"/>
<path d="M92.5867 177.319L91.8159 178.391L92.9008 179.171L93.6678 178.077L92.5867 177.319ZM100.967 165.362L102.048 166.12L102.759 165.106L101.791 164.332L100.967 165.362ZM78.9951 160.151L80.2741 159.823L79.6919 157.548L78.0507 159.228L78.9951 160.151ZM68.5735 168.968L67.2739 169.201L67.6262 171.173L69.2998 170.071L68.5735 168.968ZM68.5267 168.706L67.6907 167.684L67.0908 168.175L67.2271 168.938L68.5267 168.706ZM85.8113 153.854L86.7448 154.788L85.8113 153.854ZM91.422 139.662L92.5899 139.047L90.1023 139.698L91.422 139.662ZM91.667 140.127H92.9872V139.801L92.8349 139.512L91.667 140.127ZM91.667 151.873H90.3468V151.898L90.3478 151.924L91.667 151.873ZM93.6678 178.077L102.048 166.12L99.8855 164.605L91.5057 176.561L93.6678 178.077ZM77.7161 160.478C80.0908 169.761 85.974 174.189 91.8159 178.391L93.3576 176.247C87.5495 172.07 82.3959 168.118 80.2741 159.823L77.7161 160.478ZM69.2998 170.071C73.2071 167.497 76.6823 164.408 79.9395 161.073L78.0507 159.228C74.8764 162.478 71.5471 165.429 67.8473 167.866L69.2998 170.071ZM67.2271 168.938L67.2739 169.201L69.8732 168.736L69.8263 168.474L67.2271 168.938ZM84.8778 152.921C81.57 156.229 72.5545 163.705 67.6907 167.684L69.3627 169.728C74.1802 165.786 83.321 158.211 86.7448 154.788L84.8778 152.921ZM90.1023 139.698C90.1496 141.448 89.4141 144.207 88.3028 146.918C87.1888 149.635 85.8388 151.96 84.8778 152.921L86.7448 154.788C88.094 153.438 89.6044 150.703 90.7457 147.919C91.8897 145.129 92.8044 141.948 92.7417 139.627L90.1023 139.698ZM92.8349 139.512L92.5899 139.047L90.2541 140.278L90.4991 140.743L92.8349 139.512ZM92.9872 151.873V140.127H90.3468V151.873H92.9872ZM101.791 164.332C99.7838 162.726 97.6 160.756 95.9026 158.574C94.1953 156.379 93.0733 154.088 92.9862 151.822L90.3478 151.924C90.4651 154.973 91.949 157.791 93.8185 160.195C95.6978 162.611 98.0616 164.729 100.142 166.393L101.791 164.332Z" fill="white" fill-opacity="0.8" mask="url(#path-11-inside-2_401_2)"/>
</g>
<mask id="mask2_401_2" style="mask-type:alpha" maskUnits="userSpaceOnUse" x="227" y="33" width="91" height="146">
<path d="M292.991 117.434V155.041C292.991 168.019 300.553 173.436 308.728 178.034L317.721 166.078C311.59 162.092 308.933 159.129 308.933 153.508C308.933 142.062 309.035 134.194 309.035 117.434V110.689C309.035 99.448 308.524 91.477 301.166 82.7906C293.093 72.9801 281.852 72.0604 269.486 72.0604C259.063 72.0604 251.705 76.0459 245.062 80.2358V33.0227H228.814C228.814 33.0227 228.916 103.945 228.916 155.45C228.916 163.319 228.609 168.122 227.792 175.48L243.938 176.297C244.449 171.596 244.96 164.136 244.96 156.063V101.594C248.128 95.2581 258.45 87.6959 268.771 87.6959C289.312 87.6959 292.991 94.2362 292.991 117.434Z" fill="black"/>
</mask>
<g mask="url(#mask2_401_2)">
<mask id="path-14-inside-3_401_2" fill="white">
<path fill-rule="evenodd" clip-rule="evenodd" d="M309.622 142.294L309.25 141.643C309.36 145.713 303.64 152.534 301.33 154.845C299.646 156.528 297.112 159.004 294.394 161.554C296.491 170.01 302.737 174.293 309.389 178.035L318.382 166.078C312.25 162.092 309.593 159.129 309.593 153.508C309.593 149.511 309.605 145.95 309.622 142.294Z"/>
</mask>
<path fill-rule="evenodd" clip-rule="evenodd" d="M309.622 142.294L309.25 141.643C309.36 145.713 303.64 152.534 301.33 154.845C299.646 156.528 297.112 159.004 294.394 161.554C296.491 170.01 302.737 174.293 309.389 178.035L318.382 166.078C312.25 162.092 309.593 159.129 309.593 153.508C309.593 149.511 309.605 145.95 309.622 142.294Z" fill="#1E2021"/>
<path d="M309.622 142.294L310.942 142.3L310.943 141.947L310.768 141.64L309.622 142.294ZM309.25 141.643L310.397 140.989L307.931 141.678L309.25 141.643ZM301.33 154.845L300.396 153.911L301.33 154.845ZM294.394 161.554L293.491 160.591L292.926 161.12L293.113 161.872L294.394 161.554ZM309.389 178.035L308.741 179.185L309.749 179.752L310.444 178.828L309.389 178.035ZM318.382 166.078L319.437 166.872L320.286 165.742L319.101 164.971L318.382 166.078ZM310.768 141.64L310.397 140.989L308.104 142.297L308.475 142.948L310.768 141.64ZM307.931 141.678C307.95 142.409 307.702 143.386 307.179 144.56C306.664 145.712 305.933 146.948 305.107 148.16C303.452 150.588 301.499 152.808 300.396 153.911L302.263 155.778C303.471 154.57 305.533 152.225 307.289 149.647C308.168 148.357 308.99 146.98 309.59 145.636C310.18 144.314 310.605 142.912 310.57 141.607L307.931 141.678ZM300.396 153.911C298.722 155.585 296.198 158.051 293.491 160.591L295.297 162.517C298.027 159.956 300.571 157.47 302.263 155.778L300.396 153.911ZM293.113 161.872C295.353 170.906 302.057 175.425 308.741 179.185L310.036 176.884C303.417 173.161 297.629 169.114 295.675 161.236L293.113 161.872ZM310.444 178.828L319.437 166.872L317.326 165.284L308.334 177.241L310.444 178.828ZM319.101 164.971C316.061 162.995 314.033 161.364 312.751 159.623C311.51 157.939 310.913 156.078 310.913 153.508H308.273C308.273 156.559 309.004 158.99 310.625 161.189C312.204 163.332 314.571 165.176 317.662 167.185L319.101 164.971ZM310.913 153.508C310.913 149.514 310.926 145.955 310.942 142.3L308.301 142.288C308.285 145.945 308.273 149.508 308.273 153.508H310.913Z" fill="white" fill-opacity="0.8" mask="url(#path-14-inside-3_401_2)"/>
</g>
<mask id="mask3_401_2" style="mask-type:alpha" maskUnits="userSpaceOnUse" x="337" y="30" width="88" height="149">
<path d="M386.09 118.456C383.331 118.456 380.163 117.945 376.382 117.128C371.375 116.004 364.732 114.471 356.148 113.142V103.945C363.71 98.8353 371.783 94.2366 381.9 89.4335C385.273 87.7984 388.134 87.1853 390.587 87.1853C397.025 87.1853 400.295 91.6818 401.317 95.0541C401.828 96.587 402.032 98.3243 402.032 100.164C402.032 109.157 396.412 118.456 386.09 118.456ZM356.148 86.3677V44.1621C356.148 37.4174 354.308 32.8187 353.389 30.4683L337.753 34.9647C339.082 39.1547 340.104 44.5709 340.104 50.8046V176.297H356.148C356.148 172.925 356.046 168.224 356.046 163.115C356.046 147.786 356.25 128.369 356.25 128.369C368.922 129.8 391.915 137.158 397.025 151.976C399.784 160.049 403.361 172.108 415.931 178.239L424.515 167.202C421.142 164.75 418.485 162.604 416.033 158.618C410.617 149.625 410.821 137.362 400.806 129.902C411.332 124.894 416.646 114.471 417.259 110.996C417.77 108.339 418.077 104.865 418.077 101.492C418.077 98.5287 417.872 95.4629 417.566 93.1125C416.135 80.9515 403.565 72.4695 389.667 72.4695C378.835 72.4695 363.506 81.3603 356.148 86.3677Z" fill="black"/>
</mask>
<g mask="url(#mask3_401_2)">
<mask id="path-17-inside-4_401_2" fill="white">
<path fill-rule="evenodd" clip-rule="evenodd" d="M412.359 148.977C410.665 151.451 408.685 153.701 407.541 154.844C405.905 156.48 403.466 158.865 400.835 161.339C403.635 167.886 408.025 174.817 416.591 178.996L425.175 167.959C421.803 165.507 419.146 163.36 416.693 159.375C414.78 156.198 413.568 152.614 412.359 148.977Z"/>
</mask>
<path fill-rule="evenodd" clip-rule="evenodd" d="M412.359 148.977C410.665 151.451 408.685 153.701 407.541 154.844C405.905 156.48 403.466 158.865 400.835 161.339C403.635 167.886 408.025 174.817 416.591 178.996L425.175 167.959C421.803 165.507 419.146 163.36 416.693 159.375C414.78 156.198 413.568 152.614 412.359 148.977Z" fill="#1E2021"/>
<path d="M412.359 148.977L413.612 148.56L412.773 146.036L411.27 148.231L412.359 148.977ZM407.541 154.844L406.608 153.911V153.911L407.541 154.844ZM400.835 161.339L399.93 160.377L399.258 161.009L399.621 161.858L400.835 161.339ZM416.591 178.996L416.012 180.182L416.975 180.652L417.633 179.806L416.591 178.996ZM425.175 167.959L426.217 168.77L427.054 167.693L425.952 166.891L425.175 167.959ZM416.693 159.375L415.562 160.056L415.569 160.067L416.693 159.375ZM411.27 148.231C409.626 150.632 407.7 152.819 406.608 153.911L408.475 155.778C409.671 154.582 411.704 152.27 413.449 149.723L411.27 148.231ZM406.608 153.911C404.981 155.538 402.551 157.913 399.93 160.377L401.739 162.301C404.381 159.817 406.83 157.423 408.475 155.778L406.608 153.911ZM399.621 161.858C402.486 168.556 407.048 175.81 416.012 180.182L417.17 177.809C409.001 173.825 404.784 167.216 402.048 160.82L399.621 161.858ZM417.633 179.806L426.217 168.77L424.133 167.149L415.549 178.185L417.633 179.806ZM425.952 166.891C422.624 164.471 420.134 162.447 417.818 158.683L415.569 160.067C418.158 164.274 420.982 166.542 424.399 169.027L425.952 166.891ZM417.824 158.694C415.999 155.663 414.828 152.217 413.612 148.56L411.107 149.393C412.309 153.01 413.562 156.734 415.562 160.056L417.824 158.694Z" fill="white" fill-opacity="0.8" mask="url(#path-17-inside-4_401_2)"/>
</g>
<mask id="mask4_401_2" style="mask-type:alpha" maskUnits="userSpaceOnUse" x="443" y="70" width="96" height="109">
<path d="M463.249 81.5644C462.431 76.5569 461.205 72.4692 460.183 70.0166L443.832 73.7977C446.285 83.4039 447.103 86.0609 447.103 104.251V176.399L463.249 176.297V98.6306C478.169 91.4771 487.98 87.185 494.52 87.185C501.265 87.185 511.177 90.5574 511.177 98.1196V155.45C511.177 168.633 520.579 173.845 529.572 178.239L538.156 166.793C532.434 163.727 527.324 161.479 527.324 154.734V94.9517C527.324 79.7249 509.031 71.8561 496.768 71.8561C485.527 71.8561 476.125 74.8197 463.249 81.5644Z" fill="black"/>
</mask>
<g mask="url(#mask4_401_2)">
<mask id="path-20-inside-5_401_2" fill="white">
<path fill-rule="evenodd" clip-rule="evenodd" d="M527.324 145.85C525.535 149.398 522.245 153.227 520.627 154.844C518.629 156.842 515.433 159.956 512.153 162.986C514.783 171.366 522.311 175.448 529.572 178.996L538.156 167.55C537.79 167.354 537.427 167.161 537.067 166.971C531.801 164.178 527.324 161.805 527.324 155.491V145.85Z"/>
</mask>
<path fill-rule="evenodd" clip-rule="evenodd" d="M527.324 145.85C525.535 149.398 522.245 153.227 520.627 154.844C518.629 156.842 515.433 159.956 512.153 162.986C514.783 171.366 522.311 175.448 529.572 178.996L538.156 167.55C537.79 167.354 537.427 167.161 537.067 166.971C531.801 164.178 527.324 161.805 527.324 155.491V145.85Z" fill="#1E2021"/>
<path d="M527.324 145.85H528.644L526.145 145.255L527.324 145.85ZM520.627 154.844L519.694 153.911L520.627 154.844ZM512.153 162.986L511.257 162.016L510.643 162.584L510.893 163.381L512.153 162.986ZM529.572 178.996L528.992 180.182L529.973 180.661L530.628 179.788L529.572 178.996ZM538.156 167.55L539.212 168.342L540.135 167.112L538.78 166.387L538.156 167.55ZM537.067 166.971L536.448 168.137V168.137L537.067 166.971ZM526.145 145.255C524.444 148.628 521.262 152.343 519.694 153.911L521.561 155.778C523.228 154.11 526.625 150.167 528.503 146.444L526.145 145.255ZM519.694 153.911C517.706 155.898 514.523 159 511.257 162.016L513.049 163.956C516.344 160.912 519.553 157.786 521.561 155.778L519.694 153.911ZM510.893 163.381C513.714 172.369 521.785 176.66 528.992 180.182L530.152 177.81C522.837 174.235 515.852 170.364 513.413 162.591L510.893 163.381ZM530.628 179.788L539.212 168.342L537.1 166.758L528.516 178.204L530.628 179.788ZM538.78 166.387C538.411 166.189 538.045 165.995 537.685 165.804L536.448 168.137C536.809 168.328 537.17 168.519 537.533 168.714L538.78 166.387ZM537.685 165.804C535.006 164.384 532.757 163.179 531.142 161.606C529.604 160.108 528.644 158.271 528.644 155.491H526.004C526.004 159.025 527.282 161.532 529.299 163.497C531.239 165.387 533.861 166.765 536.448 168.137L537.685 165.804ZM528.644 155.491V145.85H526.004V155.491H528.644Z" fill="white" fill-opacity="0.8" mask="url(#path-20-inside-5_401_2)"/>
</g>
<mask id="mask5_401_2" style="mask-type:alpha" maskUnits="userSpaceOnUse" x="547" y="69" width="103" height="110">
<path d="M622.749 71.4473C613.347 71.4473 607.011 78.6008 602.617 86.6741C602.617 79.5206 596.792 71.4473 586.879 71.4473C579.419 71.4473 570.528 78.4986 565.827 86.6741C565.623 81.9732 564.192 72.5714 562.659 69.3013L547.33 73.389C549.068 78.3964 550.396 83.5061 550.396 93.01L550.703 176.297H565.112V105.682C571.448 91.7837 578.499 87.0828 583.404 87.0828C588.105 87.0828 588.31 91.0683 588.31 93.9297V176.297H602.719V105.58C609.055 91.7837 614.369 87.0828 619.274 87.0828C625.406 87.0828 625.814 93.7254 625.814 97.3021V98.6306V156.574V156.778C625.814 171.188 636.034 177.013 643.289 178.443L649.523 164.852C645.333 163.216 640.121 159.435 640.121 154.224V100.777C640.121 91.0683 637.567 71.4473 622.749 71.4473Z" fill="black"/>
</mask>
<g mask="url(#mask5_401_2)">
<mask id="path-23-inside-6_401_2" fill="white">
<path fill-rule="evenodd" clip-rule="evenodd" d="M640.122 149.806C638.574 151.945 636.902 153.83 635.888 154.844C633.745 156.987 630.225 160.413 626.701 163.642C629.337 173.111 637.317 177.266 643.29 178.443L649.523 164.852C645.333 163.217 640.122 159.435 640.122 154.224V149.806Z"/>
</mask>
<path fill-rule="evenodd" clip-rule="evenodd" d="M640.122 149.806C638.574 151.945 636.902 153.83 635.888 154.844C633.745 156.987 630.225 160.413 626.701 163.642C629.337 173.111 637.317 177.266 643.29 178.443L649.523 164.852C645.333 163.217 640.122 159.435 640.122 154.224V149.806Z" fill="#1E2021"/>
<path d="M640.122 149.806H641.442V145.728L639.052 149.032L640.122 149.806ZM626.701 163.642L625.809 162.668L625.212 163.215L625.429 163.996L626.701 163.642ZM643.29 178.443L643.034 179.738L644.056 179.94L644.49 178.994L643.29 178.443ZM649.523 164.852L650.723 165.402L651.307 164.13L650.003 163.622L649.523 164.852ZM639.052 149.032C637.546 151.114 635.92 152.945 634.954 153.911L636.821 155.778C637.884 154.714 639.602 152.777 641.191 150.58L639.052 149.032ZM634.954 153.911C632.822 156.043 629.316 159.455 625.809 162.668L627.593 164.615C631.134 161.37 634.669 157.93 636.821 155.778L634.954 153.911ZM625.429 163.996C628.245 174.111 636.768 178.503 643.034 179.738L643.545 177.148C637.867 176.028 630.429 172.11 627.973 163.288L625.429 163.996ZM644.49 178.994L650.723 165.402L648.323 164.301L642.09 177.893L644.49 178.994ZM650.003 163.622C648.037 162.854 645.851 161.588 644.178 159.939C642.507 158.291 641.442 156.361 641.442 154.224H638.801C638.801 157.298 640.342 159.865 642.324 161.819C644.305 163.772 646.82 165.214 649.043 166.081L650.003 163.622ZM641.442 154.224V149.806H638.801V154.224H641.442Z" fill="white" fill-opacity="0.8" mask="url(#path-23-inside-6_401_2)"/>
</g>
</svg>
