<svg width="938" height="287" viewBox="0 0 938 287" fill="none" xmlns="http://www.w3.org/2000/svg">
<path d="M0.720528 104.794C3.24238 109.237 8.0459 120.045 9.9673 127.13C16.4521 151.989 17.6529 208.43 18.2534 220.919C20.2949 221.76 22.2163 222.24 25.4587 222.36H26.1792H26.8997C49.9566 222 60.044 206.509 64.4872 196.902C66.1685 204.347 69.2908 214.314 71.3323 222H75.4153H77.817C103.276 222 118.767 195.581 118.767 136.738C118.767 127.13 118.407 105.154 117.806 99.5103H99.0726C100.514 107.916 101.955 125.329 101.955 140.22C101.955 185.013 93.0682 204.347 82.2603 204.347C78.5375 192.098 73.6139 178.528 73.6139 159.554V123.047H56.8016V154.631C56.8016 185.733 49.3562 204.107 35.0657 204.107C34.2251 182.731 34.5853 155.591 29.0613 126.53C26.2993 112.119 22.5765 102.753 18.4936 95.6674L0.720528 104.794ZM179.104 116.923C174.661 106.836 167.455 102.272 160.13 96.388L147.641 113.32C155.086 119.925 159.89 123.408 159.89 130.253V221.88L178.624 222V149.227C190.632 122.447 205.884 118.124 218.013 118.124C229.061 118.124 227.62 125.449 228.1 135.176H246.834V134.456C246.834 112.6 241.43 98.9098 221.375 98.9098C202.761 98.9098 190.272 103.233 179.104 116.923ZM312.455 169.522C312.935 157.513 313.055 142.141 314.136 117.644C319.66 117.644 322.902 117.283 328.426 117.283H366.494V99.6303H364.333C364.333 99.6303 345.839 99.7504 328.426 99.8705H313.776C313.896 91.7045 314.016 80.4163 314.016 72.4905L295.042 72.3704C295.042 80.7765 294.922 92.0648 294.922 100.471H293.12C289.157 100.471 283.754 100.831 280.871 101.912L283.273 119.445C286.395 118.604 289.758 118.124 293.12 118.124H294.802C294.081 141.301 293.841 157.032 293.361 169.522V174.685C293.361 185.013 293.841 194.019 298.044 202.666C306.57 220.439 321.221 222.721 343.317 222.721C353.525 222.721 362.171 221.64 369.136 217.557C382.586 209.751 385.348 198.823 386.549 195.461L371.418 188.736C370.577 191.017 368.416 197.622 361.571 201.225C358.568 202.906 350.883 204.107 343.077 204.107C341.516 204.107 332.269 203.987 330.107 203.747C316.778 202.426 312.455 190.297 312.455 174.325V169.522ZM495.642 158.714C495.642 192.699 481.591 204.227 462.017 204.227C451.089 204.227 444.244 196.661 437.999 190.537V138.179C446.526 124.489 452.29 118.965 468.742 118.965C489.157 118.965 495.642 134.216 495.642 158.714ZM419.266 133.255L419.145 239.533C419.145 250.461 419.746 261.989 420.827 270.756L439.921 269.675C439.08 261.509 437.999 251.422 437.999 240.133V215.275C443.764 218.998 448.327 222.841 460.336 222.841C499.124 222.841 514.495 196.782 514.495 156.432C514.495 124.248 501.646 100.351 468.622 100.351C455.172 100.351 445.565 104.554 437.999 111.279C437.879 106.235 437.279 103.593 436.678 99.7504L416.984 102.152C418.185 110.078 419.266 120.406 419.266 130.373V133.255ZM566.426 164.598C566.426 130.613 574.112 117.764 593.686 117.764C604.614 117.764 617.704 126.53 623.948 132.655V185.133C615.422 198.823 609.658 204.347 593.206 204.347C572.791 204.347 566.426 189.096 566.426 164.598ZM642.802 189.937L642.922 83.6586C642.922 72.7306 642.322 61.3223 641.241 52.5558L622.027 53.5166C622.868 61.6825 623.828 71.89 623.828 83.1783V108.036C618.064 104.314 607.376 99.15 595.367 99.15C556.579 99.15 547.452 126.53 547.452 166.88C547.452 199.063 560.182 222.841 593.206 222.841C606.656 222.841 616.383 218.638 623.948 211.913C624.068 216.956 624.669 219.598 625.269 223.441L644.964 221.159C643.763 213.354 642.802 203.026 642.802 193.059V189.937ZM741.567 69.9686C766.185 69.9686 773.631 72.3704 779.635 84.139L794.766 74.8922C784.679 54.8375 766.906 51.7152 740.607 51.7152C707.342 51.7152 703.98 77.0538 703.98 94.2264C703.98 96.5081 704.1 97.5888 704.1 99.5103H686.807V117.884H703.98C704.22 135.537 704.34 218.998 704.34 222H723.194C723.194 221.52 722.954 136.377 722.834 117.884H759.46C766.185 117.884 768.707 118.604 771.229 119.445L774.712 101.912C771.109 100.831 767.867 99.8705 755.377 99.5103C746.611 99.5103 731 99.3902 722.834 99.3902V94.7067C722.834 81.7372 723.914 69.9686 741.567 69.9686ZM897.975 164.598C897.975 189.096 891.37 204.347 870.955 204.347C854.503 204.347 848.859 198.823 840.332 185.133V132.655C846.577 126.53 854.023 118.124 864.951 118.124C884.525 118.124 897.975 130.613 897.975 164.598ZM916.829 166.88C916.829 126.53 902.058 99.5103 863.269 99.5103C851.26 99.5103 846.097 103.713 840.332 108.036V83.6586C840.332 72.7306 839.732 61.2022 838.651 52.4358L819.557 53.5166C820.398 61.6825 821.359 71.7699 821.359 83.0582C821.359 116.683 821.479 160.035 821.479 189.937V192.819C821.479 202.786 820.398 213.234 819.197 221.159L839.012 223.441C839.612 219.598 840.212 216.956 840.332 211.913C847.898 218.638 857.505 222.841 870.955 222.841C903.979 222.841 916.829 199.063 916.829 166.88Z" fill="white" fill-opacity="0.8"/>
<path d="M19 287L19 0" stroke="#BCBCBC" stroke-width="1.18434"/>
<path d="M34 287L34 0" stroke="#BCBCBC" stroke-width="1.18434"/>
<path d="M118 287L118 0" stroke="#BCBCBC" stroke-width="1.18434"/>
<path d="M160 287L160 0" stroke="#BCBCBC" stroke-width="1.18434"/>
<path d="M179 287L179 0" stroke="#BCBCBC" stroke-width="1.18434"/>
<path d="M296 287L296 0" stroke="#BCBCBC" stroke-width="1.18434"/>
<path d="M314 287L314 0" stroke="#BCBCBC" stroke-width="1.18434"/>
<path d="M419 287L419 0" stroke="#BCBCBC" stroke-width="1.18434"/>
<path d="M438 287L438 0" stroke="#BCBCBC" stroke-width="1.18434"/>
<path d="M624 287L624 0" stroke="#BCBCBC" stroke-width="1.18434"/>
<path d="M643 287L643 0" stroke="#BCBCBC" stroke-width="1.18434"/>
<path d="M704 287L704 0" stroke="#BCBCBC" stroke-width="1.18434"/>
<path d="M722 287L722 0" stroke="#BCBCBC" stroke-width="1.18434"/>
<path d="M822 287L822 0" stroke="#BCBCBC" stroke-width="1.18434"/>
<path d="M840 287L840 0" stroke="#BCBCBC" stroke-width="1.18434"/>
<path d="M102 287L102 0" stroke="#BCBCBC" stroke-width="1.18434"/>
</svg>
