<svg width="609" height="279" viewBox="0 0 609 279" fill="none" xmlns="http://www.w3.org/2000/svg">
<path d="M82.6154 161.723C77.041 161.723 57.0304 158.007 54.7434 157.578V149.145C54.7434 149.145 75.8976 130.849 86.3317 130.849C94.4789 130.849 97.0517 137.567 97.0517 142.713C97.0517 153.147 95.4794 161.723 82.6154 161.723ZM54.7434 247.054V190.167H55.0293C57.745 190.167 84.4736 190.738 90.1909 210.606C95.3365 228.616 100.196 243.767 118.778 250.913L146.221 227.472C141.504 224.042 134.357 218.753 132.499 212.464C127.925 197.313 123.78 186.736 109.058 181.591C129.64 171.728 133.5 159.722 133.5 142.141C133.5 114.269 116.205 101.691 87.6181 101.691C67.1786 101.691 50.4554 118.986 50.4554 118.986C53.1712 111.411 54.7434 102.406 54.7434 94.1156V62.2415C54.7434 52.8079 52.0277 46.3759 50.7413 43.0885L15.8656 49.3775C17.7237 55.2378 19.1531 62.8132 19.1531 71.5322V247.054H54.7434Z" fill="white"/>
<path d="M383.464 170.156L376.032 190.167C403.046 200.887 419.77 226.472 427.631 251.199L447.784 242.194C439.208 222.756 432.491 205.318 414.767 191.596C443.068 189.309 453.216 161.294 454.788 136.138C454.788 135.423 454.931 134.709 454.931 133.994C454.931 117.7 440.781 101.834 422.199 101.834C407.048 101.834 390.754 106.122 368.742 138.282L382.035 69.817C383.036 64.6714 383.464 58.2394 383.464 52.9508C383.464 48.377 383.179 44.6607 382.893 43.0885L359.595 45.5183C360.166 49.0916 360.452 52.522 360.452 56.0954C360.452 61.241 359.881 66.3866 358.88 71.5322L324.719 247.054H347.159C348.017 242.337 357.451 194.169 358.88 187.022C367.17 163.152 396.328 122.416 419.484 122.416C428.488 122.416 433.205 129.992 433.205 140.283C433.205 143.571 432.634 147.287 431.633 151.003C428.774 161.437 420.77 175.016 405.905 175.016C400.331 175.016 383.464 170.156 383.464 170.156Z" fill="white"/>
<path d="M209.241 166.154C213.1 166.154 217.531 165.439 222.82 164.296C229.824 162.724 239.114 160.58 251.121 158.721V145.857C240.543 138.711 229.252 132.279 215.101 125.561C210.385 123.274 206.382 122.416 202.952 122.416C193.947 122.416 189.373 128.705 187.944 133.422C187.229 135.566 186.944 137.996 186.944 140.569C186.944 153.147 194.805 166.154 209.241 166.154ZM251.121 121.273V62.2415C251.121 52.8079 253.693 46.3759 254.98 43.0885L276.849 49.3775C274.99 55.2378 273.561 62.8132 273.561 71.5322V247.054H251.121C251.121 242.337 251.263 235.762 251.263 228.616C251.263 207.176 250.978 180.019 250.978 180.019C233.254 182.02 201.094 192.311 193.947 213.036C190.088 224.328 185.085 241.194 167.505 249.77L155.498 234.333C160.215 230.903 163.931 227.901 167.362 222.327C174.937 209.749 174.651 192.597 188.659 182.163C173.937 175.159 166.504 160.58 165.646 155.72C164.932 152.004 164.503 147.144 164.503 142.427C164.503 138.282 164.789 133.994 165.218 130.707C167.219 113.697 184.8 101.834 204.238 101.834C219.389 101.834 240.829 114.269 251.121 121.273Z" fill="white"/>
<path d="M543.822 185.736C526.528 213.751 506.946 241.051 496.083 251.342C485.649 243.481 475.072 235.477 464.637 227.615C479.217 215.323 487.364 207.319 501.514 185.021C482.647 182.448 470.641 168.155 465.781 142.141C465.066 138.282 464.637 134.852 464.637 131.564C464.637 111.125 479.074 101.691 503.801 101.691C524.241 101.691 544.394 118.986 544.394 118.986C540.249 111.411 536.819 102.406 535.246 94.1156C533.102 83.5386 531.101 72.8186 528.957 62.2415C528.386 58.954 528.1 56.0954 528.1 53.5226C528.1 48.6628 528.957 45.2325 529.386 43.0885C541.393 45.2325 553.399 47.2335 565.405 49.3775C565.119 51.6644 564.977 54.2372 564.977 57.0959C564.977 61.3839 565.405 66.2436 566.406 71.5322C577.841 129.992 589.132 188.595 600.567 247.054H564.977C558.687 214.465 552.255 181.734 545.966 149.145C545.966 149.145 521.239 130.849 510.805 130.849C503.658 130.849 500.8 136.281 500.8 141.141C500.8 141.855 500.8 142.57 500.942 143.285C503.372 156.006 508.661 162.152 517.666 162.152C520.667 162.152 523.955 161.437 527.814 160.151C529.243 161.723 542.107 183.163 543.822 185.736Z" fill="white"/>
</svg>
