<svg width="339" height="178" viewBox="0 0 339 178" fill="none" xmlns="http://www.w3.org/2000/svg">
<g filter="url(#filter0_f_316_44)">
<path fill-rule="evenodd" clip-rule="evenodd" d="M102.512 17.6512C102.512 13.9778 105.489 11 109.163 11C112.836 11 115.814 13.9778 115.814 17.6512V72.6744C115.814 75.6799 118.25 78.1163 121.256 78.1163C124.261 78.1163 126.698 75.6799 126.698 72.6744V25.5117C126.698 21.8383 129.675 18.8605 133.349 18.8605C137.022 18.8605 140 21.8383 140 25.5116V53.9302C140 67.2878 150.828 78.1163 164.186 78.1163H191.86C204.383 78.1163 214.535 67.9646 214.535 55.4419V39.4186C214.535 35.7453 217.513 32.7674 221.186 32.7674C224.859 32.7674 227.837 35.7453 227.837 39.4186V69.9535C227.837 74.4617 231.492 78.1163 236 78.1163C240.508 78.1163 244.163 74.4617 244.163 69.9535V17.6512C244.163 13.9778 247.141 11 250.814 11C254.487 11 257.465 13.9778 257.465 17.6512V71.3139C257.465 75.0708 260.511 78.1163 264.267 78.1163C268.024 78.1163 271.07 75.0708 271.07 71.3139V37C271.07 33.3267 274.048 30.3488 277.721 30.3488C281.394 30.3488 284.372 33.3267 284.372 37V69.9535C284.372 74.4617 288.027 78.1163 292.535 78.1163C297.043 78.1163 300.698 74.4617 300.698 69.9535V64.8139C300.698 61.1406 303.676 58.1628 307.349 58.1628C311.022 58.1628 314 61.1406 314 64.8139V69.2161C314 74.1315 317.985 78.1163 322.9 78.1163C327.816 78.1163 331.8 74.1315 331.8 69.2161V37C331.8 33.3267 334.778 30.3488 338.452 30.3488C342.125 30.3488 345.103 33.3267 345.103 37V64.2258C345.103 71.8973 351.322 78.1163 358.993 78.1163H363.512C368.688 78.1163 372.884 82.3123 372.884 87.4884C372.884 92.6644 368.688 96.8605 363.512 96.8605H358.993C351.322 96.8605 345.103 103.079 345.103 110.751V137.977C345.103 141.65 342.125 144.628 338.452 144.628C334.778 144.628 331.8 141.65 331.8 137.977V105.761C331.8 100.845 327.816 96.8605 322.9 96.8605C317.985 96.8605 314 100.845 314 105.761V110.163C314 113.836 311.022 116.814 307.349 116.814C303.676 116.814 300.698 113.836 300.698 110.163V105.023C300.698 100.515 297.043 96.8605 292.535 96.8605C288.027 96.8605 284.372 100.515 284.372 105.023V137.977C284.372 141.65 281.394 144.628 277.721 144.628C274.048 144.628 271.07 141.65 271.07 137.977V103.663C271.07 99.906 268.024 96.8605 264.267 96.8605C260.511 96.8605 257.465 99.906 257.465 103.663V160.349C257.465 164.022 254.487 167 250.814 167C247.141 167 244.163 164.022 244.163 160.349V105.023C244.163 100.515 240.508 96.8605 236 96.8605C231.492 96.8605 227.837 100.515 227.837 105.023V137.977C227.837 141.65 224.859 144.628 221.186 144.628C217.513 144.628 214.535 141.65 214.535 137.977V120.744C214.535 107.554 203.842 96.8605 190.651 96.8605H164.186C150.828 96.8605 140 107.689 140 121.047V148.86C140 152.534 137.022 155.512 133.349 155.512C129.675 155.512 126.698 152.534 126.698 148.86V102.302C126.698 99.2969 124.261 96.8605 121.256 96.8605C118.25 96.8605 115.814 99.2969 115.814 102.302V160.349C115.814 164.022 112.836 167 109.163 167C105.489 167 102.512 164.022 102.512 160.349V121.047C102.512 107.689 91.6832 96.8605 78.3256 96.8605H25.1264C19.6164 96.8605 15.1497 101.327 15.1497 106.837V110.163C15.1497 113.836 12.1718 116.814 8.49847 116.814C4.82513 116.814 1.84729 113.836 1.84729 110.163V105.023C1.84729 100.515 -1.80731 96.8605 -6.31549 96.8605C-10.8237 96.8605 -14.4783 100.515 -14.4783 105.023V137.977C-14.4783 141.65 -17.4561 144.628 -21.1294 144.628C-24.8028 144.628 -27.7806 141.65 -27.7806 137.977V106.72C-27.7806 101.275 -32.195 96.8605 -37.6403 96.8605H-38.128C-43.304 96.8605 -47.5001 92.6644 -47.5001 87.4884C-47.5001 82.3123 -43.304 78.1163 -38.128 78.1163H-37.6403C-32.195 78.1163 -27.7806 73.7019 -27.7806 68.2566V37C-27.7806 33.3267 -24.8028 30.3488 -21.1294 30.3488C-17.4561 30.3488 -14.4783 33.3267 -14.4783 37V69.9535C-14.4783 74.4617 -10.8237 78.1163 -6.31549 78.1163C-1.80731 78.1163 1.84729 74.4617 1.84729 69.9535V64.814C1.84729 61.1406 4.82513 58.1628 8.49847 58.1628C12.1718 58.1628 15.1497 61.1406 15.1497 64.814V68.1395C15.1497 73.6495 19.6164 78.1163 25.1264 78.1163H78.3256C91.6832 78.1163 102.512 67.2878 102.512 53.9303V17.6512Z" fill="url(#paint0_linear_316_44)"/>
</g>
<g filter="url(#filter1_f_316_44)">
<path d="M-23 88L178 88L228.25 88L253.375 88L278.5 88L379 88" stroke="white" stroke-width="1.81395"/>
</g>
<defs>
<filter id="filter0_f_316_44" x="-57.9449" y="0.555142" width="441.273" height="176.89" filterUnits="userSpaceOnUse" color-interpolation-filters="sRGB">
<feFlood flood-opacity="0" result="BackgroundImageFix"/>
<feBlend mode="normal" in="SourceGraphic" in2="BackgroundImageFix" result="shape"/>
<feGaussianBlur stdDeviation="5.22243" result="effect1_foregroundBlur_316_44"/>
</filter>
<filter id="filter1_f_316_44" x="-29.6512" y="80.4419" width="415.302" height="15.1163" filterUnits="userSpaceOnUse" color-interpolation-filters="sRGB">
<feFlood flood-opacity="0" result="BackgroundImageFix"/>
<feBlend mode="normal" in="SourceGraphic" in2="BackgroundImageFix" result="shape"/>
<feGaussianBlur stdDeviation="3.32558" result="effect1_foregroundBlur_316_44"/>
</filter>
<linearGradient id="paint0_linear_316_44" x1="-47.5001" y1="88.9882" x2="372.884" y2="88.9882" gradientUnits="userSpaceOnUse">
<stop stop-color="#0C76EB"/>
<stop offset="0.328125" stop-color="#670DDA"/>
<stop offset="0.5625" stop-color="#9655E9"/>
<stop offset="1" stop-color="#0C76EB"/>
</linearGradient>
</defs>
</svg>
