<svg width="202" height="202" viewBox="0 0 202 202" fill="none" xmlns="http://www.w3.org/2000/svg">
<g filter="url(#filter0_f_253_165)">
<mask id="mask0_253_165" style="mask-type:alpha" maskUnits="userSpaceOnUse" x="18" y="18" width="166" height="166">
<circle cx="101" cy="101" r="82" transform="rotate(75 101 101)" fill="#D9D9D9"/>
</mask>
<g mask="url(#mask0_253_165)">
<g filter="url(#filter1_f_253_165)">
<path fill-rule="evenodd" clip-rule="evenodd" d="M170.778 78.93C172.17 92.8033 179.72 109.261 170.515 119.734C161.265 130.258 143.823 123.794 129.907 125.431C118.423 126.782 106.927 132.798 96.2022 128.475C85.5042 124.163 81.2142 112.038 74.1189 102.945C66.0355 92.5843 54.2584 84.5193 51.8302 71.605C49.0697 56.9229 50.9065 40.4151 60.1564 28.6838C69.4758 16.8645 85.9452 15.177 100.18 10.2854C115.885 4.88854 132.964 -9.53159 147.381 -1.29028C162.247 7.20789 158.352 29.8408 163.147 46.2797C166.355 57.2786 169.634 67.5301 170.778 78.93Z" fill="#670DDA" fill-opacity="0.5"/>
</g>
<g filter="url(#filter2_f_253_165)">
<path fill-rule="evenodd" clip-rule="evenodd" d="M137.16 150.214C131.538 161.464 129.867 174.289 121.153 183.356C109.836 195.133 96.5366 213.119 80.7567 208.907C64.333 204.522 65.8629 179.564 55.7535 165.897C48.2933 155.812 30.7157 152.478 29.7618 139.97C28.7928 127.264 47.2136 121.655 51.4633 109.642C56.6017 95.1163 46.6237 76.767 56.3478 64.8158C66.7101 52.0802 85.5733 43.9996 101.441 48.2182C117.247 52.4205 122.069 72.056 132.118 84.9603C140.241 95.3919 153.565 103.282 154.583 116.464C155.583 129.404 142.962 138.605 137.16 150.214Z" fill="#0C76EB" fill-opacity="0.3"/>
</g>
<g filter="url(#filter3_f_253_165)">
<path fill-rule="evenodd" clip-rule="evenodd" d="M170.34 45.7528C179.063 58.4162 183.219 74.7617 179.792 89.7525C176.13 105.771 166.356 121.749 151.407 128.569C136.961 135.16 121.023 124.892 105.183 123.791C89.7474 122.718 73.0468 130.414 59.9284 122.21C46.4152 113.758 39.604 97.1628 37.3714 81.3815C35.2887 66.66 40.9173 52.2032 48.1897 39.2351C54.6418 27.7296 64.9372 19.6374 76.0139 12.474C87.0689 5.32464 98.9794 -5.00521 111.769 -1.88221C124.529 1.23347 126.586 19.0236 136.776 27.311C146.928 35.5676 162.916 34.9767 170.34 45.7528Z" fill="#0C76EB" fill-opacity="0.3"/>
</g>
<g filter="url(#filter4_f_253_165)">
<path fill-rule="evenodd" clip-rule="evenodd" d="M194.201 107.808C188.121 122.524 163.982 115.525 150.513 124.017C137.663 132.119 134.096 155.501 118.907 155.28C103.83 155.06 101.036 131.774 88.69 123.117C75.0386 113.544 50.5661 118.373 44.2625 102.937C38.1363 87.9362 54.9866 73.5096 62.5871 59.1987C69.0101 47.1049 73.0229 32.4981 85.1004 26.0445C96.8295 19.7771 110.735 27.0043 124.019 26.373C139.236 25.6497 156.46 12.6197 168.396 22.0854C180.34 31.557 169.968 51.6997 174.362 66.2962C178.894 81.3499 200.205 93.2783 194.201 107.808Z" fill="#BCBCBC"/>
</g>
<g filter="url(#filter5_f_253_165)">
<path fill-rule="evenodd" clip-rule="evenodd" d="M181.533 106.828C181.617 121.911 169.646 133.551 160.958 145.88C154.44 155.13 145.335 161.091 137.524 169.279C126.352 180.991 121.536 202.652 105.416 204.105C89.7961 205.514 81.1782 185.982 69.601 175.403C58.8975 165.622 45.1424 158.343 40.3571 144.656C35.3984 130.473 37.9802 114.766 43.5171 100.799C49.0092 86.9452 57.7745 73.6545 71.1275 67.0366C83.833 60.7396 98.4577 67.1637 112.625 66.5485C129.008 65.837 146.339 54.88 160.497 63.1556C174.796 71.5144 181.44 90.2648 181.533 106.828Z" fill="#670DDA" fill-opacity="0.5"/>
</g>
</g>
</g>
<defs>
<filter id="filter0_f_253_165" x="25.1757" y="14.4303" width="162.394" height="173.139" filterUnits="userSpaceOnUse" color-interpolation-filters="sRGB">
<feFlood flood-opacity="0" result="BackgroundImageFix"/>
<feBlend mode="normal" in="SourceGraphic" in2="BackgroundImageFix" result="shape"/>
<feGaussianBlur stdDeviation="2.27462" result="effect1_foregroundBlur_253_165"/>
</filter>
<filter id="filter1_f_253_165" x="33.8222" y="-20.6105" width="158.022" height="167.457" filterUnits="userSpaceOnUse" color-interpolation-filters="sRGB">
<feFlood flood-opacity="0" result="BackgroundImageFix"/>
<feBlend mode="normal" in="SourceGraphic" in2="BackgroundImageFix" result="shape"/>
<feGaussianBlur stdDeviation="8.41609" result="effect1_foregroundBlur_253_165"/>
</filter>
<filter id="filter2_f_253_165" x="12.8927" y="30.2586" width="158.579" height="196.106" filterUnits="userSpaceOnUse" color-interpolation-filters="sRGB">
<feFlood flood-opacity="0" result="BackgroundImageFix"/>
<feBlend mode="normal" in="SourceGraphic" in2="BackgroundImageFix" result="shape"/>
<feGaussianBlur stdDeviation="8.41609" result="effect1_foregroundBlur_253_165"/>
</filter>
<filter id="filter3_f_253_165" x="-36.5773" y="-75.9657" width="291.079" height="280.237" filterUnits="userSpaceOnUse" color-interpolation-filters="sRGB">
<feFlood flood-opacity="0" result="BackgroundImageFix"/>
<feBlend mode="normal" in="SourceGraphic" in2="BackgroundImageFix" result="shape"/>
<feGaussianBlur stdDeviation="36.7553" result="effect1_foregroundBlur_253_165"/>
</filter>
<filter id="filter4_f_253_165" x="23.841" y="-0.454939" width="190.525" height="174.843" filterUnits="userSpaceOnUse" color-interpolation-filters="sRGB">
<feFlood flood-opacity="0" result="BackgroundImageFix"/>
<feBlend mode="normal" in="SourceGraphic" in2="BackgroundImageFix" result="shape"/>
<feGaussianBlur stdDeviation="9.5534" result="effect1_foregroundBlur_253_165"/>
</filter>
<filter id="filter5_f_253_165" x="26.3375" y="48.6981" width="166.575" height="166.86" filterUnits="userSpaceOnUse" color-interpolation-filters="sRGB">
<feFlood flood-opacity="0" result="BackgroundImageFix"/>
<feBlend mode="normal" in="SourceGraphic" in2="BackgroundImageFix" result="shape"/>
<feGaussianBlur stdDeviation="5.69" result="effect1_foregroundBlur_253_165"/>
</filter>
</defs>
</svg>
