<svg width="700" height="712" viewBox="0 0 700 712" fill="none" xmlns="http://www.w3.org/2000/svg">
<mask id="mask0_384_64" style="mask-type:alpha" maskUnits="userSpaceOnUse" x="4" y="16" width="691" height="679">
<path d="M16.9291 198.954V211.124H29.6394V198.954H16.9291ZM22.5541 220.21C16.9291 220.21 10.9796 221.076 4.92187 222.482L6.49038 230.162C11.6286 228.972 17.7945 228.648 20.4447 228.648V263.858C20.4447 267.049 20.8774 271.376 25.4748 273.918C27.8546 275.216 31.9651 275.974 36.5625 275.974C43.2692 275.974 51.0036 274.351 55.655 270.511L51.9771 264.345C48.2452 267.157 41.5384 268.293 36.5084 268.293C31.5324 268.293 29.1526 268.077 28.8822 263.642C28.8822 263.642 28.8281 234.976 28.8281 220.21H22.5541Z" fill="white"/>
<path d="M30.6346 452.937L30.6346 440.768L17.9784 440.606L17.9784 452.775L30.6346 452.937ZM27.0108 370.834C27.119 368.941 28.9039 364.506 34.9616 364.506L35.881 364.506C39.2885 364.506 43.8317 364.885 49.1863 373.647L56.0012 368.346C49.1863 357.258 41.3979 356.069 34.7452 356.069C21.8726 356.069 18.5733 362.775 18.5733 370.618L18.5733 432.114L24.9015 432.114C30.5265 432.114 36.3678 431.249 42.4255 429.843L40.9111 422.162C36.0433 423.298 33.2308 423.731 27.9303 423.731L27.0649 423.731L27.0108 370.834Z" fill="white"/>
<path d="M22.4459 275.573C16.8209 275.573 10.5469 275.681 4.48918 277.088L6.0036 284.822C9.30288 284.065 13.1971 283.903 16.28 283.903C17.9026 283.903 19.363 283.957 20.2824 283.957L20.4447 341.288C20.4447 344.479 20.8774 348.806 25.4748 351.348C27.8546 352.647 31.9651 353.404 36.5625 353.404C43.2692 353.404 51.0036 351.781 55.655 347.941L51.9771 341.775C48.2452 344.588 41.5384 345.723 36.5084 345.723C31.5324 345.723 29.1526 345.507 28.8822 341.072C28.8822 341.072 28.7199 290.339 28.7199 275.573H22.4459Z" fill="white"/>
<path d="M17.9291 440.954V453.124H30.6394V440.954H17.9291ZM23.5541 462.21C17.9291 462.21 11.9796 463.076 5.92187 464.482L7.49038 472.162C12.6286 470.972 18.7945 470.648 21.4447 470.648V505.858C21.4447 509.049 21.8774 513.376 26.4748 515.918C28.8546 517.216 32.9651 517.974 37.5625 517.974C44.2692 517.974 52.0036 516.351 56.655 512.511L52.9771 506.345C49.2452 509.157 42.5384 510.293 37.5084 510.293C32.5324 510.293 30.1526 510.077 29.8822 505.642C29.8822 505.642 29.8281 476.976 29.8281 462.21H23.5541Z" fill="white"/>
<path d="M31.6346 694.937L31.6346 682.768L18.9784 682.606L18.9784 694.775L31.6346 694.937ZM28.0108 612.834C28.119 610.941 29.9039 606.506 35.9616 606.506L36.881 606.506C40.2885 606.506 44.8317 606.885 50.1863 615.647L57.0012 610.346C50.1863 599.258 42.3979 598.069 35.7452 598.069C22.8726 598.069 19.5733 604.775 19.5733 612.618L19.5733 674.114L25.9015 674.114C31.5265 674.114 37.3678 673.249 43.4255 671.843L41.9111 664.162C37.0433 665.298 34.2308 665.731 28.9303 665.731L28.0649 665.731L28.0108 612.834Z" fill="white"/>
<path d="M23.4459 517.573C17.8209 517.573 11.5469 517.681 5.48918 519.088L7.0036 526.822C10.3029 526.065 14.1971 525.903 17.28 525.903C18.9026 525.903 20.363 525.957 21.2824 525.957L21.4447 583.288C21.4447 586.479 21.8774 590.806 26.4748 593.348C28.8546 594.647 32.9651 595.404 37.5625 595.404C44.2692 595.404 52.0036 593.781 56.655 589.941L52.9771 583.775C49.2452 586.588 42.5384 587.723 37.5084 587.723C32.5324 587.723 30.1526 587.507 29.8822 583.072C29.8822 583.072 29.7199 532.339 29.7199 517.573H23.4459Z" fill="white"/>
<path d="M66.0734 184.954V197.124H78.7837V184.954H66.0734ZM71.6984 206.21C66.0734 206.21 60.1239 207.076 54.0662 208.482L55.6347 216.162C60.7729 214.972 66.9388 214.648 69.589 214.648V249.858C69.589 253.049 70.0217 257.376 74.619 259.918C76.9988 261.216 81.1094 261.974 85.7068 261.974C92.4135 261.974 100.148 260.351 104.799 256.511L101.121 250.345C97.3895 253.157 90.6827 254.293 85.6527 254.293C80.6767 254.293 78.2969 254.077 78.0265 249.642C78.0265 249.642 77.9724 220.976 77.9724 206.21H71.6984Z" fill="white"/>
<path d="M79.7789 438.937L79.7789 426.768L67.1227 426.606L67.1227 438.775L79.7789 438.937ZM76.1551 356.834C76.2633 354.941 78.0482 350.506 84.1058 350.506L85.0253 350.506C88.4328 350.506 92.976 350.885 98.3306 359.647L105.146 354.346C98.3306 343.258 90.5421 342.069 83.8895 342.069C71.0169 342.069 67.7176 348.775 67.7176 356.618L67.7176 418.114L74.0458 418.114C79.6708 418.114 85.5121 417.249 91.5698 415.843L90.0554 408.162C85.1876 409.298 82.3751 409.731 77.0746 409.731L76.2092 409.731L76.1551 356.834Z" fill="white"/>
<path d="M71.5902 261.573C65.9652 261.573 59.6912 261.681 53.6335 263.088L55.1479 270.822C58.4472 270.065 62.3414 269.903 65.4243 269.903C67.0469 269.903 68.5073 269.957 69.4267 269.957L69.589 327.288C69.589 330.479 70.0217 334.806 74.619 337.348C76.9988 338.647 81.1094 339.404 85.7068 339.404C92.4135 339.404 100.148 337.781 104.799 333.941L101.121 327.775C97.3895 330.588 90.6827 331.723 85.6527 331.723C80.6767 331.723 78.2969 331.507 78.0265 327.072C78.0265 327.072 77.8642 276.339 77.8642 261.573H71.5902Z" fill="white"/>
<path d="M67.0734 426.954V439.124H79.7837V426.954H67.0734ZM72.6984 448.21C67.0734 448.21 61.1239 449.076 55.0662 450.482L56.6347 458.162C61.7729 456.972 67.9388 456.648 70.589 456.648V491.858C70.589 495.049 71.0217 499.376 75.619 501.918C77.9988 503.216 82.1094 503.974 86.7068 503.974C93.4135 503.974 101.148 502.351 105.799 498.511L102.121 492.345C98.3895 495.157 91.6827 496.293 86.6527 496.293C81.6767 496.293 79.2969 496.077 79.0265 491.642C79.0265 491.642 78.9724 462.976 78.9724 448.21H72.6984Z" fill="white"/>
<path d="M80.7789 680.937L80.7789 668.768L68.1227 668.606L68.1227 680.775L80.7789 680.937ZM77.1551 598.834C77.2633 596.941 79.0482 592.506 85.1058 592.506L86.0253 592.506C89.4328 592.506 93.976 592.885 99.3306 601.647L106.146 596.346C99.3306 585.258 91.5421 584.069 84.8895 584.069C72.0169 584.069 68.7176 590.775 68.7176 598.618L68.7176 660.114L75.0458 660.114C80.6708 660.114 86.5121 659.249 92.5698 657.843L91.0554 650.162C86.1876 651.298 83.3751 651.731 78.0746 651.731L77.2092 651.731L77.1551 598.834Z" fill="white"/>
<path d="M72.5902 503.573C66.9652 503.573 60.6912 503.681 54.6335 505.088L56.1479 512.822C59.4472 512.065 63.3414 511.903 66.4243 511.903C68.0469 511.903 69.5073 511.957 70.4267 511.957L70.589 569.288C70.589 572.479 71.0217 576.806 75.619 579.348C77.9988 580.647 82.1094 581.404 86.7068 581.404C93.4135 581.404 101.148 579.781 105.799 575.941L102.121 569.775C98.3895 572.588 91.6827 573.723 86.6527 573.723C81.6767 573.723 79.2969 573.507 79.0265 569.072C79.0265 569.072 78.8642 518.339 78.8642 503.573H72.5902Z" fill="white"/>
<path d="M115.073 170.954V183.124H127.784V170.954H115.073ZM120.698 192.21C115.073 192.21 109.124 193.076 103.066 194.482L104.635 202.162C109.773 200.972 115.939 200.648 118.589 200.648V235.858C118.589 239.049 119.022 243.376 123.619 245.918C125.999 247.216 130.109 247.974 134.707 247.974C141.414 247.974 149.148 246.351 153.799 242.511L150.121 236.345C146.389 239.157 139.683 240.293 134.653 240.293C129.677 240.293 127.297 240.077 127.026 235.642C127.026 235.642 126.972 206.976 126.972 192.21H120.698Z" fill="white"/>
<path d="M128.779 424.937L128.779 412.768L116.123 412.606L116.123 424.775L128.779 424.937ZM125.155 342.834C125.263 340.941 127.048 336.506 133.106 336.506L134.025 336.506C137.433 336.506 141.976 336.885 147.331 345.647L154.146 340.346C147.331 329.258 139.542 328.069 132.889 328.069C120.017 328.069 116.718 334.775 116.718 342.618L116.718 404.114L123.046 404.114C128.671 404.114 134.512 403.249 140.57 401.843L139.055 394.162C134.188 395.298 131.375 395.731 126.075 395.731L125.209 395.731L125.155 342.834Z" fill="white"/>
<path d="M120.59 247.573C114.965 247.573 108.691 247.681 102.633 249.088L104.148 256.822C107.447 256.065 111.341 255.903 114.424 255.903C116.047 255.903 117.507 255.957 118.427 255.957L118.589 313.288C118.589 316.479 119.022 320.806 123.619 323.348C125.999 324.647 130.109 325.404 134.707 325.404C141.414 325.404 149.148 323.781 153.799 319.941L150.121 313.775C146.389 316.588 139.683 317.723 134.653 317.723C129.677 317.723 127.297 317.507 127.026 313.072C127.026 313.072 126.864 262.339 126.864 247.573H120.59Z" fill="white"/>
<path d="M116.073 412.954V425.124H128.784V412.954H116.073ZM121.698 434.21C116.073 434.21 110.124 435.076 104.066 436.482L105.635 444.162C110.773 442.972 116.939 442.648 119.589 442.648V477.858C119.589 481.049 120.022 485.376 124.619 487.918C126.999 489.216 131.109 489.974 135.707 489.974C142.414 489.974 150.148 488.351 154.799 484.511L151.121 478.345C147.389 481.157 140.683 482.293 135.653 482.293C130.677 482.293 128.297 482.077 128.026 477.642C128.026 477.642 127.972 448.976 127.972 434.21H121.698Z" fill="white"/>
<path d="M129.779 666.937L129.779 654.768L117.123 654.606L117.123 666.775L129.779 666.937ZM126.155 584.834C126.263 582.941 128.048 578.506 134.106 578.506L135.025 578.506C138.433 578.506 142.976 578.885 148.331 587.647L155.146 582.346C148.331 571.258 140.542 570.069 133.889 570.069C121.017 570.069 117.718 576.775 117.718 584.618L117.718 646.114L124.046 646.114C129.671 646.114 135.512 645.249 141.57 643.843L140.055 636.162C135.188 637.298 132.375 637.731 127.075 637.731L126.209 637.731L126.155 584.834Z" fill="white"/>
<path d="M121.59 489.573C115.965 489.573 109.691 489.681 103.633 491.088L105.148 498.822C108.447 498.065 112.341 497.903 115.424 497.903C117.047 497.903 118.507 497.957 119.427 497.957L119.589 555.288C119.589 558.479 120.022 562.806 124.619 565.348C126.999 566.647 131.109 567.404 135.707 567.404C142.414 567.404 150.148 565.781 154.799 561.941L151.121 555.775C147.389 558.588 140.683 559.723 135.653 559.723C130.677 559.723 128.297 559.507 128.026 555.072C128.026 555.072 127.864 504.339 127.864 489.573H121.59Z" fill="white"/>
<path d="M164.073 156.954V169.124H176.784V156.954H164.073ZM169.698 178.21C164.073 178.21 158.124 179.076 152.066 180.482L153.635 188.162C158.773 186.972 164.939 186.648 167.589 186.648V221.858C167.589 225.049 168.022 229.376 172.619 231.918C174.999 233.216 179.109 233.974 183.707 233.974C190.414 233.974 198.148 232.351 202.799 228.511L199.121 222.345C195.389 225.157 188.683 226.293 183.653 226.293C178.677 226.293 176.297 226.077 176.026 221.642C176.026 221.642 175.972 192.976 175.972 178.21H169.698Z" fill="white"/>
<path d="M177.779 410.937L177.779 398.768L165.123 398.606L165.123 410.775L177.779 410.937ZM174.155 328.834C174.263 326.941 176.048 322.506 182.106 322.506L183.025 322.506C186.433 322.506 190.976 322.885 196.331 331.647L203.146 326.346C196.331 315.258 188.542 314.069 181.889 314.069C169.017 314.069 165.718 320.775 165.718 328.618L165.718 390.114L172.046 390.114C177.671 390.114 183.512 389.249 189.57 387.843L188.055 380.162C183.188 381.298 180.375 381.731 175.075 381.731L174.209 381.731L174.155 328.834Z" fill="white"/>
<path d="M169.59 233.573C163.965 233.573 157.691 233.681 151.633 235.088L153.148 242.822C156.447 242.065 160.341 241.903 163.424 241.903C165.047 241.903 166.507 241.957 167.427 241.957L167.589 299.288C167.589 302.479 168.022 306.806 172.619 309.348C174.999 310.647 179.109 311.404 183.707 311.404C190.414 311.404 198.148 309.781 202.799 305.941L199.121 299.775C195.389 302.588 188.683 303.723 183.653 303.723C178.677 303.723 176.297 303.507 176.026 299.072C176.026 299.072 175.864 248.339 175.864 233.573H169.59Z" fill="white"/>
<path d="M165.073 398.954V411.124H177.784V398.954H165.073ZM170.698 420.21C165.073 420.21 159.124 421.076 153.066 422.482L154.635 430.162C159.773 428.972 165.939 428.648 168.589 428.648V463.858C168.589 467.049 169.022 471.376 173.619 473.918C175.999 475.216 180.109 475.974 184.707 475.974C191.414 475.974 199.148 474.351 203.799 470.511L200.121 464.345C196.389 467.157 189.683 468.293 184.653 468.293C179.677 468.293 177.297 468.077 177.026 463.642C177.026 463.642 176.972 434.976 176.972 420.21H170.698Z" fill="white"/>
<path d="M178.779 652.937L178.779 640.768L166.123 640.606L166.123 652.775L178.779 652.937ZM175.155 570.834C175.263 568.941 177.048 564.506 183.106 564.506L184.025 564.506C187.433 564.506 191.976 564.885 197.331 573.647L204.146 568.346C197.331 557.258 189.542 556.069 182.889 556.069C170.017 556.069 166.718 562.775 166.718 570.618L166.718 632.114L173.046 632.114C178.671 632.114 184.512 631.249 190.57 629.843L189.055 622.162C184.188 623.298 181.375 623.731 176.075 623.731L175.209 623.731L175.155 570.834Z" fill="white"/>
<path d="M170.59 475.573C164.965 475.573 158.691 475.681 152.633 477.088L154.148 484.822C157.447 484.065 161.341 483.903 164.424 483.903C166.047 483.903 167.507 483.957 168.427 483.957L168.589 541.288C168.589 544.479 169.022 548.806 173.619 551.348C175.999 552.647 180.109 553.404 184.707 553.404C191.414 553.404 199.148 551.781 203.799 547.941L200.121 541.775C196.389 544.588 189.683 545.723 184.653 545.723C179.677 545.723 177.297 545.507 177.026 541.072C177.026 541.072 176.864 490.339 176.864 475.573H170.59Z" fill="white"/>
<path d="M213.073 142.954V155.124H225.784V142.954H213.073ZM218.698 164.21C213.073 164.21 207.124 165.076 201.066 166.482L202.635 174.162C207.773 172.972 213.939 172.648 216.589 172.648V207.858C216.589 211.049 217.022 215.376 221.619 217.918C223.999 219.216 228.109 219.974 232.707 219.974C239.414 219.974 247.148 218.351 251.799 214.511L248.121 208.345C244.389 211.157 237.683 212.293 232.653 212.293C227.677 212.293 225.297 212.077 225.026 207.642C225.026 207.642 224.972 178.976 224.972 164.21H218.698Z" fill="white"/>
<path d="M226.779 396.937L226.779 384.768L214.123 384.606L214.123 396.775L226.779 396.937ZM223.155 314.834C223.263 312.941 225.048 308.506 231.106 308.506L232.025 308.506C235.433 308.506 239.976 308.885 245.331 317.647L252.146 312.346C245.331 301.258 237.542 300.069 230.889 300.069C218.017 300.069 214.718 306.775 214.718 314.618L214.718 376.114L221.046 376.114C226.671 376.114 232.512 375.249 238.57 373.843L237.055 366.162C232.188 367.298 229.375 367.731 224.075 367.731L223.209 367.731L223.155 314.834Z" fill="white"/>
<path d="M218.59 219.573C212.965 219.573 206.691 219.681 200.633 221.088L202.148 228.822C205.447 228.065 209.341 227.903 212.424 227.903C214.047 227.903 215.507 227.957 216.427 227.957L216.589 285.288C216.589 288.479 217.022 292.806 221.619 295.348C223.999 296.647 228.109 297.404 232.707 297.404C239.414 297.404 247.148 295.781 251.799 291.941L248.121 285.775C244.389 288.588 237.683 289.723 232.653 289.723C227.677 289.723 225.297 289.507 225.026 285.072C225.026 285.072 224.864 234.339 224.864 219.573H218.59Z" fill="white"/>
<path d="M214.073 384.954V397.124H226.784V384.954H214.073ZM219.698 406.21C214.073 406.21 208.124 407.076 202.066 408.482L203.635 416.162C208.773 414.972 214.939 414.648 217.589 414.648V449.858C217.589 453.049 218.022 457.376 222.619 459.918C224.999 461.216 229.109 461.974 233.707 461.974C240.414 461.974 248.148 460.351 252.799 456.511L249.121 450.345C245.389 453.157 238.683 454.293 233.653 454.293C228.677 454.293 226.297 454.077 226.026 449.642C226.026 449.642 225.972 420.976 225.972 406.21H219.698Z" fill="white"/>
<path d="M227.779 638.937L227.779 626.768L215.123 626.606L215.123 638.775L227.779 638.937ZM224.155 556.834C224.263 554.941 226.048 550.506 232.106 550.506L233.025 550.506C236.433 550.506 240.976 550.885 246.331 559.647L253.146 554.346C246.331 543.258 238.542 542.069 231.889 542.069C219.017 542.069 215.718 548.775 215.718 556.618L215.718 618.114L222.046 618.114C227.671 618.114 233.512 617.249 239.57 615.843L238.055 608.162C233.188 609.298 230.375 609.731 225.075 609.731L224.209 609.731L224.155 556.834Z" fill="white"/>
<path d="M219.59 461.573C213.965 461.573 207.691 461.681 201.633 463.088L203.148 470.822C206.447 470.065 210.341 469.903 213.424 469.903C215.047 469.903 216.507 469.957 217.427 469.957L217.589 527.288C217.589 530.479 218.022 534.806 222.619 537.348C224.999 538.647 229.109 539.404 233.707 539.404C240.414 539.404 248.148 537.781 252.799 533.941L249.121 527.775C245.389 530.588 238.683 531.723 233.653 531.723C228.677 531.723 226.297 531.507 226.026 527.072C226.026 527.072 225.864 476.339 225.864 461.573H219.59Z" fill="white"/>
<path d="M262.073 128.954V141.124H274.784V128.954H262.073ZM267.698 150.21C262.073 150.21 256.124 151.076 250.066 152.482L251.635 160.162C256.773 158.972 262.939 158.648 265.589 158.648V193.858C265.589 197.049 266.022 201.376 270.619 203.918C272.999 205.216 277.109 205.974 281.707 205.974C288.414 205.974 296.148 204.351 300.799 200.511L297.121 194.345C293.389 197.157 286.683 198.293 281.653 198.293C276.677 198.293 274.297 198.077 274.026 193.642C274.026 193.642 273.972 164.976 273.972 150.21H267.698Z" fill="white"/>
<path d="M275.779 382.937L275.779 370.768L263.123 370.606L263.123 382.775L275.779 382.937ZM272.155 300.834C272.263 298.941 274.048 294.506 280.106 294.506L281.025 294.506C284.433 294.506 288.976 294.885 294.331 303.647L301.146 298.346C294.331 287.258 286.542 286.069 279.889 286.069C267.017 286.069 263.718 292.775 263.718 300.618L263.718 362.114L270.046 362.114C275.671 362.114 281.512 361.249 287.57 359.843L286.055 352.162C281.188 353.298 278.375 353.731 273.075 353.731L272.209 353.731L272.155 300.834Z" fill="white"/>
<path d="M267.59 205.573C261.965 205.573 255.691 205.681 249.633 207.088L251.148 214.822C254.447 214.065 258.341 213.903 261.424 213.903C263.047 213.903 264.507 213.957 265.427 213.957L265.589 271.288C265.589 274.479 266.022 278.806 270.619 281.348C272.999 282.647 277.109 283.404 281.707 283.404C288.414 283.404 296.148 281.781 300.799 277.941L297.121 271.775C293.389 274.588 286.683 275.723 281.653 275.723C276.677 275.723 274.297 275.507 274.026 271.072C274.026 271.072 273.864 220.339 273.864 205.573H267.59Z" fill="white"/>
<path d="M263.073 370.954V383.124H275.784V370.954H263.073ZM268.698 392.21C263.073 392.21 257.124 393.076 251.066 394.482L252.635 402.162C257.773 400.972 263.939 400.648 266.589 400.648V435.858C266.589 439.049 267.022 443.376 271.619 445.918C273.999 447.216 278.109 447.974 282.707 447.974C289.414 447.974 297.148 446.351 301.799 442.511L298.121 436.345C294.389 439.157 287.683 440.293 282.653 440.293C277.677 440.293 275.297 440.077 275.026 435.642C275.026 435.642 274.972 406.976 274.972 392.21H268.698Z" fill="white"/>
<path d="M276.779 624.937L276.779 612.768L264.123 612.606L264.123 624.775L276.779 624.937ZM273.155 542.834C273.263 540.941 275.048 536.506 281.106 536.506L282.025 536.506C285.433 536.506 289.976 536.885 295.331 545.647L302.146 540.346C295.331 529.258 287.542 528.069 280.889 528.069C268.017 528.069 264.718 534.775 264.718 542.618L264.718 604.114L271.046 604.114C276.671 604.114 282.512 603.249 288.57 601.843L287.055 594.162C282.188 595.298 279.375 595.731 274.075 595.731L273.209 595.731L273.155 542.834Z" fill="white"/>
<path d="M268.59 447.573C262.965 447.573 256.691 447.681 250.633 449.088L252.148 456.822C255.447 456.065 259.341 455.903 262.424 455.903C264.047 455.903 265.507 455.957 266.427 455.957L266.589 513.288C266.589 516.479 267.022 520.806 271.619 523.348C273.999 524.647 278.109 525.404 282.707 525.404C289.414 525.404 297.148 523.781 301.799 519.941L298.121 513.775C294.389 516.588 287.683 517.723 282.653 517.723C277.677 517.723 275.297 517.507 275.026 513.072C275.026 513.072 274.864 462.339 274.864 447.573H268.59Z" fill="white"/>
<path d="M311.073 114.954V127.124H323.784V114.954H311.073ZM316.698 136.21C311.073 136.21 305.124 137.076 299.066 138.482L300.635 146.162C305.773 144.972 311.939 144.648 314.589 144.648V179.858C314.589 183.049 315.022 187.376 319.619 189.918C321.999 191.216 326.109 191.974 330.707 191.974C337.414 191.974 345.148 190.351 349.799 186.511L346.121 180.345C342.389 183.157 335.683 184.293 330.653 184.293C325.677 184.293 323.297 184.077 323.026 179.642C323.026 179.642 322.972 150.976 322.972 136.21H316.698Z" fill="white"/>
<path d="M324.779 368.937L324.779 356.768L312.123 356.606L312.123 368.775L324.779 368.937ZM321.155 286.834C321.263 284.941 323.048 280.506 329.106 280.506L330.025 280.506C333.433 280.506 337.976 280.885 343.331 289.647L350.146 284.346C343.331 273.258 335.542 272.069 328.889 272.069C316.017 272.069 312.718 278.775 312.718 286.618L312.718 348.114L319.046 348.114C324.671 348.114 330.512 347.249 336.57 345.843L335.055 338.162C330.188 339.298 327.375 339.731 322.075 339.731L321.209 339.731L321.155 286.834Z" fill="white"/>
<path d="M316.59 191.573C310.965 191.573 304.691 191.681 298.633 193.088L300.148 200.822C303.447 200.065 307.341 199.903 310.424 199.903C312.047 199.903 313.507 199.957 314.427 199.957L314.589 257.288C314.589 260.479 315.022 264.806 319.619 267.348C321.999 268.647 326.109 269.404 330.707 269.404C337.414 269.404 345.148 267.781 349.799 263.941L346.121 257.775C342.389 260.588 335.683 261.723 330.653 261.723C325.677 261.723 323.297 261.507 323.026 257.072C323.026 257.072 322.864 206.339 322.864 191.573H316.59Z" fill="white"/>
<path d="M312.073 356.954V369.124H324.784V356.954H312.073ZM317.698 378.21C312.073 378.21 306.124 379.076 300.066 380.482L301.635 388.162C306.773 386.972 312.939 386.648 315.589 386.648V421.858C315.589 425.049 316.022 429.376 320.619 431.918C322.999 433.216 327.109 433.974 331.707 433.974C338.414 433.974 346.148 432.351 350.799 428.511L347.121 422.345C343.389 425.157 336.683 426.293 331.653 426.293C326.677 426.293 324.297 426.077 324.026 421.642C324.026 421.642 323.972 392.976 323.972 378.21H317.698Z" fill="white"/>
<path d="M325.779 610.937L325.779 598.768L313.123 598.606L313.123 610.775L325.779 610.937ZM322.155 528.834C322.263 526.941 324.048 522.506 330.106 522.506L331.025 522.506C334.433 522.506 338.976 522.885 344.331 531.647L351.146 526.346C344.331 515.258 336.542 514.069 329.889 514.069C317.017 514.069 313.718 520.775 313.718 528.618L313.718 590.114L320.046 590.114C325.671 590.114 331.512 589.249 337.57 587.843L336.055 580.162C331.188 581.298 328.375 581.731 323.075 581.731L322.209 581.731L322.155 528.834Z" fill="white"/>
<path d="M317.59 433.573C311.965 433.573 305.691 433.681 299.633 435.088L301.148 442.822C304.447 442.065 308.341 441.903 311.424 441.903C313.047 441.903 314.507 441.957 315.427 441.957L315.589 499.288C315.589 502.479 316.022 506.806 320.619 509.348C322.999 510.647 327.109 511.404 331.707 511.404C338.414 511.404 346.148 509.781 350.799 505.941L347.121 499.775C343.389 502.588 336.683 503.723 331.653 503.723C326.677 503.723 324.297 503.507 324.026 499.072C324.026 499.072 323.864 448.339 323.864 433.573H317.59Z" fill="white"/>
<path d="M360.073 100.954V113.124H372.784V100.954H360.073ZM365.698 122.21C360.073 122.21 354.124 123.076 348.066 124.482L349.635 132.162C354.773 130.972 360.939 130.648 363.589 130.648V165.858C363.589 169.049 364.022 173.376 368.619 175.918C370.999 177.216 375.109 177.974 379.707 177.974C386.414 177.974 394.148 176.351 398.799 172.511L395.121 166.345C391.389 169.157 384.683 170.293 379.653 170.293C374.677 170.293 372.297 170.077 372.026 165.642C372.026 165.642 371.972 136.976 371.972 122.21H365.698Z" fill="white"/>
<path d="M373.779 354.937L373.779 342.768L361.123 342.606L361.123 354.775L373.779 354.937ZM370.155 272.834C370.263 270.941 372.048 266.506 378.106 266.506L379.025 266.506C382.433 266.506 386.976 266.885 392.331 275.647L399.146 270.346C392.331 259.258 384.542 258.069 377.889 258.069C365.017 258.069 361.718 264.775 361.718 272.618L361.718 334.114L368.046 334.114C373.671 334.114 379.512 333.249 385.57 331.843L384.055 324.162C379.188 325.298 376.375 325.731 371.075 325.731L370.209 325.731L370.155 272.834Z" fill="white"/>
<path d="M365.59 177.573C359.965 177.573 353.691 177.681 347.633 179.088L349.148 186.822C352.447 186.065 356.341 185.903 359.424 185.903C361.047 185.903 362.507 185.957 363.427 185.957L363.589 243.288C363.589 246.479 364.022 250.806 368.619 253.348C370.999 254.647 375.109 255.404 379.707 255.404C386.414 255.404 394.148 253.781 398.799 249.941L395.121 243.775C391.389 246.588 384.683 247.723 379.653 247.723C374.677 247.723 372.297 247.507 372.026 243.072C372.026 243.072 371.864 192.339 371.864 177.573H365.59Z" fill="white"/>
<path d="M361.073 342.954V355.124H373.784V342.954H361.073ZM366.698 364.21C361.073 364.21 355.124 365.076 349.066 366.482L350.635 374.162C355.773 372.972 361.939 372.648 364.589 372.648V407.858C364.589 411.049 365.022 415.376 369.619 417.918C371.999 419.216 376.109 419.974 380.707 419.974C387.414 419.974 395.148 418.351 399.799 414.511L396.121 408.345C392.389 411.157 385.683 412.293 380.653 412.293C375.677 412.293 373.297 412.077 373.026 407.642C373.026 407.642 372.972 378.976 372.972 364.21H366.698Z" fill="white"/>
<path d="M374.779 596.937L374.779 584.768L362.123 584.606L362.123 596.775L374.779 596.937ZM371.155 514.834C371.263 512.941 373.048 508.506 379.106 508.506L380.025 508.506C383.433 508.506 387.976 508.885 393.331 517.647L400.146 512.346C393.331 501.258 385.542 500.069 378.889 500.069C366.017 500.069 362.718 506.775 362.718 514.618L362.718 576.114L369.046 576.114C374.671 576.114 380.512 575.249 386.57 573.843L385.055 566.162C380.188 567.298 377.375 567.731 372.075 567.731L371.209 567.731L371.155 514.834Z" fill="white"/>
<path d="M366.59 419.573C360.965 419.573 354.691 419.681 348.633 421.088L350.148 428.822C353.447 428.065 357.341 427.903 360.424 427.903C362.047 427.903 363.507 427.957 364.427 427.957L364.589 485.288C364.589 488.479 365.022 492.806 369.619 495.348C371.999 496.647 376.109 497.404 380.707 497.404C387.414 497.404 395.148 495.781 399.799 491.941L396.121 485.775C392.389 488.588 385.683 489.723 380.653 489.723C375.677 489.723 373.297 489.507 373.026 485.072C373.026 485.072 372.864 434.339 372.864 419.573H366.59Z" fill="white"/>
<path d="M409.073 86.9544V99.1238H421.784V86.9544H409.073ZM414.698 108.21C409.073 108.21 403.124 109.076 397.066 110.482L398.635 118.162C403.773 116.972 409.939 116.648 412.589 116.648V151.858C412.589 155.049 413.022 159.376 417.619 161.918C419.999 163.216 424.109 163.974 428.707 163.974C435.414 163.974 443.148 162.351 447.799 158.511L444.121 152.345C440.389 155.157 433.683 156.293 428.653 156.293C423.677 156.293 421.297 156.077 421.026 151.642C421.026 151.642 420.972 122.976 420.972 108.21H414.698Z" fill="white"/>
<path d="M422.779 340.937L422.779 328.768L410.123 328.606L410.123 340.775L422.779 340.937ZM419.155 258.834C419.263 256.941 421.048 252.506 427.106 252.506L428.025 252.506C431.433 252.506 435.976 252.885 441.331 261.647L448.146 256.346C441.331 245.258 433.542 244.069 426.889 244.069C414.017 244.069 410.718 250.775 410.718 258.618L410.718 320.114L417.046 320.114C422.671 320.114 428.512 319.249 434.57 317.843L433.055 310.162C428.188 311.298 425.375 311.731 420.075 311.731L419.209 311.731L419.155 258.834Z" fill="white"/>
<path d="M414.59 163.573C408.965 163.573 402.691 163.681 396.633 165.088L398.148 172.822C401.447 172.065 405.341 171.903 408.424 171.903C410.047 171.903 411.507 171.957 412.427 171.957L412.589 229.288C412.589 232.479 413.022 236.806 417.619 239.348C419.999 240.647 424.109 241.404 428.707 241.404C435.414 241.404 443.148 239.781 447.799 235.941L444.121 229.775C440.389 232.588 433.683 233.723 428.653 233.723C423.677 233.723 421.297 233.507 421.026 229.072C421.026 229.072 420.864 178.339 420.864 163.573H414.59Z" fill="white"/>
<path d="M410.073 328.954V341.124H422.784V328.954H410.073ZM415.698 350.21C410.073 350.21 404.124 351.076 398.066 352.482L399.635 360.162C404.773 358.972 410.939 358.648 413.589 358.648V393.858C413.589 397.049 414.022 401.376 418.619 403.918C420.999 405.216 425.109 405.974 429.707 405.974C436.414 405.974 444.148 404.351 448.799 400.511L445.121 394.345C441.389 397.157 434.683 398.293 429.653 398.293C424.677 398.293 422.297 398.077 422.026 393.642C422.026 393.642 421.972 364.976 421.972 350.21H415.698Z" fill="white"/>
<path d="M423.779 582.937L423.779 570.768L411.123 570.606L411.123 582.775L423.779 582.937ZM420.155 500.834C420.263 498.941 422.048 494.506 428.106 494.506L429.025 494.506C432.433 494.506 436.976 494.885 442.331 503.647L449.146 498.346C442.331 487.258 434.542 486.069 427.889 486.069C415.017 486.069 411.718 492.775 411.718 500.618L411.718 562.114L418.046 562.114C423.671 562.114 429.512 561.249 435.57 559.843L434.055 552.162C429.188 553.298 426.375 553.731 421.075 553.731L420.209 553.731L420.155 500.834Z" fill="white"/>
<path d="M415.59 405.573C409.965 405.573 403.691 405.681 397.633 407.088L399.148 414.822C402.447 414.065 406.341 413.903 409.424 413.903C411.047 413.903 412.507 413.957 413.427 413.957L413.589 471.288C413.589 474.479 414.022 478.806 418.619 481.348C420.999 482.647 425.109 483.404 429.707 483.404C436.414 483.404 444.148 481.781 448.799 477.941L445.121 471.775C441.389 474.588 434.683 475.723 429.653 475.723C424.677 475.723 422.297 475.507 422.026 471.072C422.026 471.072 421.864 420.339 421.864 405.573H415.59Z" fill="white"/>
<path d="M458.073 72.9544V85.1238H470.784V72.9544H458.073ZM463.698 94.2104C458.073 94.2104 452.124 95.0757 446.066 96.482L447.635 104.162C452.773 102.972 458.939 102.648 461.589 102.648V137.858C461.589 141.049 462.022 145.376 466.619 147.918C468.999 149.216 473.109 149.974 477.707 149.974C484.414 149.974 492.148 148.351 496.799 144.511L493.121 138.345C489.389 141.157 482.683 142.293 477.653 142.293C472.677 142.293 470.297 142.077 470.026 137.642C470.026 137.642 469.972 108.976 469.972 94.2104H463.698Z" fill="white"/>
<path d="M471.779 326.937L471.779 314.768L459.123 314.606L459.123 326.775L471.779 326.937ZM468.155 244.834C468.263 242.941 470.048 238.506 476.106 238.506L477.025 238.506C480.433 238.506 484.976 238.885 490.331 247.647L497.146 242.346C490.331 231.258 482.542 230.069 475.889 230.069C463.017 230.069 459.718 236.775 459.718 244.618L459.718 306.114L466.046 306.114C471.671 306.114 477.512 305.249 483.57 303.843L482.055 296.162C477.188 297.298 474.375 297.731 469.075 297.731L468.209 297.731L468.155 244.834Z" fill="white"/>
<path d="M463.59 149.573C457.965 149.573 451.691 149.681 445.633 151.088L447.148 158.822C450.447 158.065 454.341 157.903 457.424 157.903C459.047 157.903 460.507 157.957 461.427 157.957L461.589 215.288C461.589 218.479 462.022 222.806 466.619 225.348C468.999 226.647 473.109 227.404 477.707 227.404C484.414 227.404 492.148 225.781 496.799 221.941L493.121 215.775C489.389 218.588 482.683 219.723 477.653 219.723C472.677 219.723 470.297 219.507 470.026 215.072C470.026 215.072 469.864 164.339 469.864 149.573H463.59Z" fill="white"/>
<path d="M459.073 314.954V327.124H471.784V314.954H459.073ZM464.698 336.21C459.073 336.21 453.124 337.076 447.066 338.482L448.635 346.162C453.773 344.972 459.939 344.648 462.589 344.648V379.858C462.589 383.049 463.022 387.376 467.619 389.918C469.999 391.216 474.109 391.974 478.707 391.974C485.414 391.974 493.148 390.351 497.799 386.511L494.121 380.345C490.389 383.157 483.683 384.293 478.653 384.293C473.677 384.293 471.297 384.077 471.026 379.642C471.026 379.642 470.972 350.976 470.972 336.21H464.698Z" fill="white"/>
<path d="M472.779 568.937L472.779 556.768L460.123 556.606L460.123 568.775L472.779 568.937ZM469.155 486.834C469.263 484.941 471.048 480.506 477.106 480.506L478.025 480.506C481.433 480.506 485.976 480.885 491.331 489.647L498.146 484.346C491.331 473.258 483.542 472.069 476.889 472.069C464.017 472.069 460.718 478.775 460.718 486.618L460.718 548.114L467.046 548.114C472.671 548.114 478.512 547.249 484.57 545.843L483.055 538.162C478.188 539.298 475.375 539.731 470.075 539.731L469.209 539.731L469.155 486.834Z" fill="white"/>
<path d="M464.59 391.573C458.965 391.573 452.691 391.681 446.633 393.088L448.148 400.822C451.447 400.065 455.341 399.903 458.424 399.903C460.047 399.903 461.507 399.957 462.427 399.957L462.589 457.288C462.589 460.479 463.022 464.806 467.619 467.348C469.999 468.647 474.109 469.404 478.707 469.404C485.414 469.404 493.148 467.781 497.799 463.941L494.121 457.775C490.389 460.588 483.683 461.723 478.653 461.723C473.677 461.723 471.297 461.507 471.026 457.072C471.026 457.072 470.864 406.339 470.864 391.573H464.59Z" fill="white"/>
<path d="M507.073 58.9544V71.1238H519.784V58.9544H507.073ZM512.698 80.2104C507.073 80.2104 501.124 81.0757 495.066 82.482L496.635 90.1623C501.773 88.9724 507.939 88.6479 510.589 88.6479V123.858C510.589 127.049 511.022 131.376 515.619 133.918C517.999 135.216 522.109 135.974 526.707 135.974C533.414 135.974 541.148 134.351 545.799 130.511L542.121 124.345C538.389 127.157 531.683 128.293 526.653 128.293C521.677 128.293 519.297 128.077 519.026 123.642C519.026 123.642 518.972 94.976 518.972 80.2104H512.698Z" fill="white"/>
<path d="M520.779 312.937L520.779 300.768L508.123 300.606L508.123 312.775L520.779 312.937ZM517.155 230.834C517.263 228.941 519.048 224.506 525.106 224.506L526.025 224.506C529.433 224.506 533.976 224.885 539.331 233.647L546.146 228.346C539.331 217.258 531.542 216.069 524.889 216.069C512.017 216.069 508.718 222.775 508.718 230.618L508.718 292.114L515.046 292.114C520.671 292.114 526.512 291.249 532.57 289.843L531.055 282.162C526.188 283.298 523.375 283.731 518.075 283.731L517.209 283.731L517.155 230.834Z" fill="white"/>
<path d="M512.59 135.573C506.965 135.573 500.691 135.681 494.633 137.088L496.148 144.822C499.447 144.065 503.341 143.903 506.424 143.903C508.047 143.903 509.507 143.957 510.427 143.957L510.589 201.288C510.589 204.479 511.022 208.806 515.619 211.348C517.999 212.647 522.109 213.404 526.707 213.404C533.414 213.404 541.148 211.781 545.799 207.941L542.121 201.775C538.389 204.588 531.683 205.723 526.653 205.723C521.677 205.723 519.297 205.507 519.026 201.072C519.026 201.072 518.864 150.339 518.864 135.573H512.59Z" fill="white"/>
<path d="M508.073 300.954V313.124H520.784V300.954H508.073ZM513.698 322.21C508.073 322.21 502.124 323.076 496.066 324.482L497.635 332.162C502.773 330.972 508.939 330.648 511.589 330.648V365.858C511.589 369.049 512.022 373.376 516.619 375.918C518.999 377.216 523.109 377.974 527.707 377.974C534.414 377.974 542.148 376.351 546.799 372.511L543.121 366.345C539.389 369.157 532.683 370.293 527.653 370.293C522.677 370.293 520.297 370.077 520.026 365.642C520.026 365.642 519.972 336.976 519.972 322.21H513.698Z" fill="white"/>
<path d="M521.779 554.937L521.779 542.768L509.123 542.606L509.123 554.775L521.779 554.937ZM518.155 472.834C518.263 470.941 520.048 466.506 526.106 466.506L527.025 466.506C530.433 466.506 534.976 466.885 540.331 475.647L547.146 470.346C540.331 459.258 532.542 458.069 525.889 458.069C513.017 458.069 509.718 464.775 509.718 472.618L509.718 534.114L516.046 534.114C521.671 534.114 527.512 533.249 533.57 531.843L532.055 524.162C527.188 525.298 524.375 525.731 519.075 525.731L518.209 525.731L518.155 472.834Z" fill="white"/>
<path d="M513.59 377.573C507.965 377.573 501.691 377.681 495.633 379.088L497.148 386.822C500.447 386.065 504.341 385.903 507.424 385.903C509.047 385.903 510.507 385.957 511.427 385.957L511.589 443.288C511.589 446.479 512.022 450.806 516.619 453.348C518.999 454.647 523.109 455.404 527.707 455.404C534.414 455.404 542.148 453.781 546.799 449.941L543.121 443.775C539.389 446.588 532.683 447.723 527.653 447.723C522.677 447.723 520.297 447.507 520.026 443.072C520.026 443.072 519.864 392.339 519.864 377.573H513.59Z" fill="white"/>
<path d="M556.073 44.9544V57.1238H568.784V44.9544H556.073ZM561.698 66.2104C556.073 66.2104 550.124 67.0757 544.066 68.482L545.635 76.1623C550.773 74.9724 556.939 74.6479 559.589 74.6479V109.858C559.589 113.049 560.022 117.376 564.619 119.918C566.999 121.216 571.109 121.974 575.707 121.974C582.414 121.974 590.148 120.351 594.799 116.511L591.121 110.345C587.389 113.157 580.683 114.293 575.653 114.293C570.677 114.293 568.297 114.077 568.026 109.642C568.026 109.642 567.972 80.976 567.972 66.2104H561.698Z" fill="white"/>
<path d="M569.779 298.937L569.779 286.768L557.123 286.606L557.123 298.775L569.779 298.937ZM566.155 216.834C566.263 214.941 568.048 210.506 574.106 210.506L575.025 210.506C578.433 210.506 582.976 210.885 588.331 219.647L595.146 214.346C588.331 203.258 580.542 202.069 573.889 202.069C561.017 202.069 557.718 208.775 557.718 216.618L557.718 278.114L564.046 278.114C569.671 278.114 575.512 277.249 581.57 275.843L580.055 268.162C575.188 269.298 572.375 269.731 567.075 269.731L566.209 269.731L566.155 216.834Z" fill="white"/>
<path d="M561.59 121.573C555.965 121.573 549.691 121.681 543.633 123.088L545.148 130.822C548.447 130.065 552.341 129.903 555.424 129.903C557.047 129.903 558.507 129.957 559.427 129.957L559.589 187.288C559.589 190.479 560.022 194.806 564.619 197.348C566.999 198.647 571.109 199.404 575.707 199.404C582.414 199.404 590.148 197.781 594.799 193.941L591.121 187.775C587.389 190.588 580.683 191.723 575.653 191.723C570.677 191.723 568.297 191.507 568.026 187.072C568.026 187.072 567.864 136.339 567.864 121.573H561.59Z" fill="white"/>
<path d="M557.073 286.954V299.124H569.784V286.954H557.073ZM562.698 308.21C557.073 308.21 551.124 309.076 545.066 310.482L546.635 318.162C551.773 316.972 557.939 316.648 560.589 316.648V351.858C560.589 355.049 561.022 359.376 565.619 361.918C567.999 363.216 572.109 363.974 576.707 363.974C583.414 363.974 591.148 362.351 595.799 358.511L592.121 352.345C588.389 355.157 581.683 356.293 576.653 356.293C571.677 356.293 569.297 356.077 569.026 351.642C569.026 351.642 568.972 322.976 568.972 308.21H562.698Z" fill="white"/>
<path d="M570.779 540.937L570.779 528.768L558.123 528.606L558.123 540.775L570.779 540.937ZM567.155 458.834C567.263 456.941 569.048 452.506 575.106 452.506L576.025 452.506C579.433 452.506 583.976 452.885 589.331 461.647L596.146 456.346C589.331 445.258 581.542 444.069 574.889 444.069C562.017 444.069 558.718 450.775 558.718 458.618L558.718 520.114L565.046 520.114C570.671 520.114 576.512 519.249 582.57 517.843L581.055 510.162C576.188 511.298 573.375 511.731 568.075 511.731L567.209 511.731L567.155 458.834Z" fill="white"/>
<path d="M562.59 363.573C556.965 363.573 550.691 363.681 544.633 365.088L546.148 372.822C549.447 372.065 553.341 371.903 556.424 371.903C558.047 371.903 559.507 371.957 560.427 371.957L560.589 429.288C560.589 432.479 561.022 436.806 565.619 439.348C567.999 440.647 572.109 441.404 576.707 441.404C583.414 441.404 591.148 439.781 595.799 435.941L592.121 429.775C588.389 432.588 581.683 433.723 576.653 433.723C571.677 433.723 569.297 433.507 569.026 429.072C569.026 429.072 568.864 378.339 568.864 363.573H562.59Z" fill="white"/>
<path d="M605.073 30.9544V43.1238H617.784V30.9544H605.073ZM610.698 52.2104C605.073 52.2104 599.124 53.0757 593.066 54.482L594.635 62.1623C599.773 60.9724 605.939 60.6479 608.589 60.6479V95.8582C608.589 99.0493 609.022 103.376 613.619 105.918C615.999 107.216 620.109 107.974 624.707 107.974C631.414 107.974 639.148 106.351 643.799 102.511L640.121 96.345C636.389 99.1575 629.683 100.293 624.653 100.293C619.677 100.293 617.297 100.077 617.026 95.6418C617.026 95.6418 616.972 66.976 616.972 52.2104H610.698Z" fill="white"/>
<path d="M618.779 284.937L618.779 272.768L606.123 272.606L606.123 284.775L618.779 284.937ZM615.155 202.834C615.263 200.941 617.048 196.506 623.106 196.506L624.025 196.506C627.433 196.506 631.976 196.885 637.331 205.647L644.146 200.346C637.331 189.258 629.542 188.069 622.889 188.069C610.017 188.069 606.718 194.775 606.718 202.618L606.718 264.114L613.046 264.114C618.671 264.114 624.512 263.249 630.57 261.843L629.055 254.162C624.188 255.298 621.375 255.731 616.075 255.731L615.209 255.731L615.155 202.834Z" fill="white"/>
<path d="M610.59 107.573C604.965 107.573 598.691 107.681 592.633 109.088L594.148 116.822C597.447 116.065 601.341 115.903 604.424 115.903C606.047 115.903 607.507 115.957 608.427 115.957L608.589 173.288C608.589 176.479 609.022 180.806 613.619 183.348C615.999 184.647 620.109 185.404 624.707 185.404C631.414 185.404 639.148 183.781 643.799 179.941L640.121 173.775C636.389 176.588 629.683 177.723 624.653 177.723C619.677 177.723 617.297 177.507 617.026 173.072C617.026 173.072 616.864 122.339 616.864 107.573H610.59Z" fill="white"/>
<path d="M606.073 272.954V285.124H618.784V272.954H606.073ZM611.698 294.21C606.073 294.21 600.124 295.076 594.066 296.482L595.635 304.162C600.773 302.972 606.939 302.648 609.589 302.648V337.858C609.589 341.049 610.022 345.376 614.619 347.918C616.999 349.216 621.109 349.974 625.707 349.974C632.414 349.974 640.148 348.351 644.799 344.511L641.121 338.345C637.389 341.157 630.683 342.293 625.653 342.293C620.677 342.293 618.297 342.077 618.026 337.642C618.026 337.642 617.972 308.976 617.972 294.21H611.698Z" fill="white"/>
<path d="M619.779 526.937L619.779 514.768L607.123 514.606L607.123 526.775L619.779 526.937ZM616.155 444.834C616.263 442.941 618.048 438.506 624.106 438.506L625.025 438.506C628.433 438.506 632.976 438.885 638.331 447.647L645.146 442.346C638.331 431.258 630.542 430.069 623.889 430.069C611.017 430.069 607.718 436.775 607.718 444.618L607.718 506.114L614.046 506.114C619.671 506.114 625.512 505.249 631.57 503.843L630.055 496.162C625.188 497.298 622.375 497.731 617.075 497.731L616.209 497.731L616.155 444.834Z" fill="white"/>
<path d="M611.59 349.573C605.965 349.573 599.691 349.681 593.633 351.088L595.148 358.822C598.447 358.065 602.341 357.903 605.424 357.903C607.047 357.903 608.507 357.957 609.427 357.957L609.589 415.288C609.589 418.479 610.022 422.806 614.619 425.348C616.999 426.647 621.109 427.404 625.707 427.404C632.414 427.404 640.148 425.781 644.799 421.941L641.121 415.775C637.389 418.588 630.683 419.723 625.653 419.723C620.677 419.723 618.297 419.507 618.026 415.072C618.026 415.072 617.864 364.339 617.864 349.573H611.59Z" fill="white"/>
<path d="M654.073 16.9544V29.1238H666.784V16.9544H654.073ZM659.698 38.2104C654.073 38.2104 648.124 39.0757 642.066 40.482L643.635 48.1623C648.773 46.9724 654.939 46.6479 657.589 46.6479V81.8582C657.589 85.0493 658.022 89.3762 662.619 91.9183C664.999 93.2163 669.109 93.9736 673.707 93.9736C680.414 93.9736 688.148 92.351 692.799 88.5108L689.121 82.345C685.389 85.1575 678.683 86.2933 673.653 86.2933C668.677 86.2933 666.297 86.0769 666.026 81.6418C666.026 81.6418 665.972 52.976 665.972 38.2104H659.698Z" fill="white"/>
<path d="M667.779 270.937L667.779 258.768L655.123 258.606L655.123 270.775L667.779 270.937ZM664.155 188.834C664.263 186.941 666.048 182.506 672.106 182.506L673.025 182.506C676.433 182.506 680.976 182.885 686.331 191.647L693.146 186.346C686.331 175.258 678.542 174.069 671.889 174.069C659.017 174.069 655.718 180.775 655.718 188.618L655.718 250.114L662.046 250.114C667.671 250.114 673.512 249.249 679.57 247.843L678.055 240.162C673.188 241.298 670.375 241.731 665.075 241.731L664.209 241.731L664.155 188.834Z" fill="white"/>
<path d="M659.59 93.5732C653.965 93.5732 647.691 93.6814 641.633 95.0876L643.148 102.822C646.447 102.065 650.341 101.903 653.424 101.903C655.047 101.903 656.507 101.957 657.427 101.957L657.589 159.288C657.589 162.479 658.022 166.806 662.619 169.348C664.999 170.647 669.109 171.404 673.707 171.404C680.414 171.404 688.148 169.781 692.799 165.941L689.121 159.775C685.389 162.588 678.683 163.723 673.653 163.723C668.677 163.723 666.297 163.507 666.026 159.072C666.026 159.072 665.864 108.339 665.864 93.5732H659.59Z" fill="white"/>
<path d="M655.073 258.954V271.124H667.784V258.954H655.073ZM660.698 280.21C655.073 280.21 649.124 281.076 643.066 282.482L644.635 290.162C649.773 288.972 655.939 288.648 658.589 288.648V323.858C658.589 327.049 659.022 331.376 663.619 333.918C665.999 335.216 670.109 335.974 674.707 335.974C681.414 335.974 689.148 334.351 693.799 330.511L690.121 324.345C686.389 327.157 679.683 328.293 674.653 328.293C669.677 328.293 667.297 328.077 667.026 323.642C667.026 323.642 666.972 294.976 666.972 280.21H660.698Z" fill="white"/>
<path d="M668.779 512.937L668.779 500.768L656.123 500.606L656.123 512.775L668.779 512.937ZM665.155 430.834C665.263 428.941 667.048 424.506 673.106 424.506L674.025 424.506C677.433 424.506 681.976 424.885 687.331 433.647L694.146 428.346C687.331 417.258 679.542 416.069 672.889 416.069C660.017 416.069 656.718 422.775 656.718 430.618L656.718 492.114L663.046 492.114C668.671 492.114 674.512 491.249 680.57 489.843L679.055 482.162C674.188 483.298 671.375 483.731 666.075 483.731L665.209 483.731L665.155 430.834Z" fill="white"/>
<path d="M660.59 335.573C654.965 335.573 648.691 335.681 642.633 337.088L644.148 344.822C647.447 344.065 651.341 343.903 654.424 343.903C656.047 343.903 657.507 343.957 658.427 343.957L658.589 401.288C658.589 404.479 659.022 408.806 663.619 411.348C665.999 412.647 670.109 413.404 674.707 413.404C681.414 413.404 689.148 411.781 693.799 407.941L690.121 401.775C686.389 404.588 679.683 405.723 674.653 405.723C669.677 405.723 667.297 405.507 667.026 401.072C667.026 401.072 666.864 350.339 666.864 335.573H660.59Z" fill="white"/>
</mask>
<g mask="url(#mask0_384_64)">
<rect x="14" y="185" width="652" height="257" fill="white"/>
</g>
</svg>
